%TF.GenerationSoftware,KiCad,Pcbnew,5.1.9*%
%TF.CreationDate,2021-05-05T06:58:16-05:00*%
%TF.ProjectId,monarch,6d6f6e61-7263-4682-9e6b-696361645f70,rev?*%
%TF.SameCoordinates,Original*%
%TF.FileFunction,Other,Fab,Top*%
%FSLAX46Y46*%
G04 Gerber Fmt 4.6, Leading zero omitted, Abs format (unit mm)*
G04 Created by KiCad (PCBNEW 5.1.9) date 2021-05-05 06:58:16*
%MOMM*%
%LPD*%
G01*
G04 APERTURE LIST*
%ADD10C,0.100000*%
%ADD11C,0.150000*%
%ADD12C,0.120000*%
%ADD13C,0.200000*%
%ADD14C,0.080000*%
%ADD15C,0.110000*%
G04 APERTURE END LIST*
D10*
%TO.C,D23*%
X133379434Y-101807553D02*
X132893220Y-104565014D01*
X132893220Y-104565014D02*
X131120566Y-104252447D01*
X131120566Y-104252447D02*
X131606780Y-101494986D01*
X131606780Y-101494986D02*
X133379434Y-101807553D01*
X132380236Y-102291394D02*
X132310777Y-102685317D01*
X132310777Y-102685317D02*
X132852421Y-102780824D01*
X132310777Y-102685317D02*
X131769133Y-102589811D01*
X132310777Y-102685317D02*
X132600511Y-103345661D01*
X132600511Y-103345661D02*
X131812665Y-103206743D01*
X131812665Y-103206743D02*
X132310777Y-102685317D01*
X132206588Y-103276202D02*
X132119764Y-103768606D01*
%TO.C,D18*%
X128325000Y-69891000D02*
X128325000Y-72691000D01*
X128325000Y-72691000D02*
X126525000Y-72691000D01*
X126525000Y-72691000D02*
X126525000Y-69891000D01*
X126525000Y-69891000D02*
X128325000Y-69891000D01*
X127425000Y-70541000D02*
X127425000Y-70941000D01*
X127425000Y-70941000D02*
X127975000Y-70941000D01*
X127425000Y-70941000D02*
X126875000Y-70941000D01*
X127425000Y-70941000D02*
X127825000Y-71541000D01*
X127825000Y-71541000D02*
X127025000Y-71541000D01*
X127025000Y-71541000D02*
X127425000Y-70941000D01*
X127425000Y-71541000D02*
X127425000Y-72041000D01*
%TO.C,D25*%
X31400000Y-25900000D02*
X28600000Y-25900000D01*
X28600000Y-25900000D02*
X28600000Y-24100000D01*
X28600000Y-24100000D02*
X31400000Y-24100000D01*
X31400000Y-24100000D02*
X31400000Y-25900000D01*
X30750000Y-25000000D02*
X30350000Y-25000000D01*
X30350000Y-25000000D02*
X30350000Y-25550000D01*
X30350000Y-25000000D02*
X30350000Y-24450000D01*
X30350000Y-25000000D02*
X29750000Y-25400000D01*
X29750000Y-25400000D02*
X29750000Y-24600000D01*
X29750000Y-24600000D02*
X30350000Y-25000000D01*
X29750000Y-25000000D02*
X29250000Y-25000000D01*
%TO.C,D24*%
X152152915Y-105042486D02*
X151666701Y-107799947D01*
X151666701Y-107799947D02*
X149894047Y-107487380D01*
X149894047Y-107487380D02*
X150380261Y-104729919D01*
X150380261Y-104729919D02*
X152152915Y-105042486D01*
X151153717Y-105526327D02*
X151084258Y-105920250D01*
X151084258Y-105920250D02*
X151625902Y-106015757D01*
X151084258Y-105920250D02*
X150542614Y-105824744D01*
X151084258Y-105920250D02*
X151373992Y-106580594D01*
X151373992Y-106580594D02*
X150586146Y-106441676D01*
X150586146Y-106441676D02*
X151084258Y-105920250D01*
X150980069Y-106511135D02*
X150893245Y-107003539D01*
%TO.C,D22*%
X158187553Y-105310566D02*
X160945014Y-105796780D01*
X160945014Y-105796780D02*
X160632447Y-107569434D01*
X160632447Y-107569434D02*
X157874986Y-107083220D01*
X157874986Y-107083220D02*
X158187553Y-105310566D01*
X158671394Y-106309764D02*
X159065317Y-106379223D01*
X159065317Y-106379223D02*
X159160824Y-105837579D01*
X159065317Y-106379223D02*
X158969811Y-106920867D01*
X159065317Y-106379223D02*
X159725661Y-106089489D01*
X159725661Y-106089489D02*
X159586743Y-106877335D01*
X159586743Y-106877335D02*
X159065317Y-106379223D01*
X159656202Y-106483412D02*
X160148606Y-106570236D01*
%TO.C,D21*%
X113937500Y-88900000D02*
X113937500Y-91700000D01*
X113937500Y-91700000D02*
X112137500Y-91700000D01*
X112137500Y-91700000D02*
X112137500Y-88900000D01*
X112137500Y-88900000D02*
X113937500Y-88900000D01*
X113037500Y-89550000D02*
X113037500Y-89950000D01*
X113037500Y-89950000D02*
X113587500Y-89950000D01*
X113037500Y-89950000D02*
X112487500Y-89950000D01*
X113037500Y-89950000D02*
X113437500Y-90550000D01*
X113437500Y-90550000D02*
X112637500Y-90550000D01*
X112637500Y-90550000D02*
X113037500Y-89950000D01*
X113037500Y-90550000D02*
X113037500Y-91050000D01*
%TO.C,D20*%
X94937500Y-86900000D02*
X94937500Y-89700000D01*
X94937500Y-89700000D02*
X93137500Y-89700000D01*
X93137500Y-89700000D02*
X93137500Y-86900000D01*
X93137500Y-86900000D02*
X94937500Y-86900000D01*
X94037500Y-87550000D02*
X94037500Y-87950000D01*
X94037500Y-87950000D02*
X94587500Y-87950000D01*
X94037500Y-87950000D02*
X93487500Y-87950000D01*
X94037500Y-87950000D02*
X94437500Y-88550000D01*
X94437500Y-88550000D02*
X93637500Y-88550000D01*
X93637500Y-88550000D02*
X94037500Y-87950000D01*
X94037500Y-88550000D02*
X94037500Y-89050000D01*
%TO.C,D19*%
X74310000Y-95150000D02*
X71510000Y-95150000D01*
X71510000Y-95150000D02*
X71510000Y-93350000D01*
X71510000Y-93350000D02*
X74310000Y-93350000D01*
X74310000Y-93350000D02*
X74310000Y-95150000D01*
X73660000Y-94250000D02*
X73260000Y-94250000D01*
X73260000Y-94250000D02*
X73260000Y-94800000D01*
X73260000Y-94250000D02*
X73260000Y-93700000D01*
X73260000Y-94250000D02*
X72660000Y-94650000D01*
X72660000Y-94650000D02*
X72660000Y-93850000D01*
X72660000Y-93850000D02*
X73260000Y-94250000D01*
X72660000Y-94250000D02*
X72160000Y-94250000D01*
%TO.C,D17*%
X109325000Y-67891000D02*
X109325000Y-70691000D01*
X109325000Y-70691000D02*
X107525000Y-70691000D01*
X107525000Y-70691000D02*
X107525000Y-67891000D01*
X107525000Y-67891000D02*
X109325000Y-67891000D01*
X108425000Y-68541000D02*
X108425000Y-68941000D01*
X108425000Y-68941000D02*
X108975000Y-68941000D01*
X108425000Y-68941000D02*
X107875000Y-68941000D01*
X108425000Y-68941000D02*
X108825000Y-69541000D01*
X108825000Y-69541000D02*
X108025000Y-69541000D01*
X108025000Y-69541000D02*
X108425000Y-68941000D01*
X108425000Y-69541000D02*
X108425000Y-70041000D01*
%TO.C,D16*%
X90325000Y-57891000D02*
X90325000Y-60691000D01*
X90325000Y-60691000D02*
X88525000Y-60691000D01*
X88525000Y-60691000D02*
X88525000Y-57891000D01*
X88525000Y-57891000D02*
X90325000Y-57891000D01*
X89425000Y-58541000D02*
X89425000Y-58941000D01*
X89425000Y-58941000D02*
X89975000Y-58941000D01*
X89425000Y-58941000D02*
X88875000Y-58941000D01*
X89425000Y-58941000D02*
X89825000Y-59541000D01*
X89825000Y-59541000D02*
X89025000Y-59541000D01*
X89025000Y-59541000D02*
X89425000Y-58941000D01*
X89425000Y-59541000D02*
X89425000Y-60041000D01*
%TO.C,D15*%
X71325000Y-60891000D02*
X71325000Y-63691000D01*
X71325000Y-63691000D02*
X69525000Y-63691000D01*
X69525000Y-63691000D02*
X69525000Y-60891000D01*
X69525000Y-60891000D02*
X71325000Y-60891000D01*
X70425000Y-61541000D02*
X70425000Y-61941000D01*
X70425000Y-61941000D02*
X70975000Y-61941000D01*
X70425000Y-61941000D02*
X69875000Y-61941000D01*
X70425000Y-61941000D02*
X70825000Y-62541000D01*
X70825000Y-62541000D02*
X70025000Y-62541000D01*
X70025000Y-62541000D02*
X70425000Y-61941000D01*
X70425000Y-62541000D02*
X70425000Y-63041000D01*
%TO.C,D14*%
X52325000Y-76441000D02*
X52325000Y-79241000D01*
X52325000Y-79241000D02*
X50525000Y-79241000D01*
X50525000Y-79241000D02*
X50525000Y-76441000D01*
X50525000Y-76441000D02*
X52325000Y-76441000D01*
X51425000Y-77091000D02*
X51425000Y-77491000D01*
X51425000Y-77491000D02*
X51975000Y-77491000D01*
X51425000Y-77491000D02*
X50875000Y-77491000D01*
X51425000Y-77491000D02*
X51825000Y-78091000D01*
X51825000Y-78091000D02*
X51025000Y-78091000D01*
X51025000Y-78091000D02*
X51425000Y-77491000D01*
X51425000Y-78091000D02*
X51425000Y-78591000D01*
%TO.C,D13*%
X33325000Y-77741000D02*
X33325000Y-80541000D01*
X33325000Y-80541000D02*
X31525000Y-80541000D01*
X31525000Y-80541000D02*
X31525000Y-77741000D01*
X31525000Y-77741000D02*
X33325000Y-77741000D01*
X32425000Y-78391000D02*
X32425000Y-78791000D01*
X32425000Y-78791000D02*
X32975000Y-78791000D01*
X32425000Y-78791000D02*
X31875000Y-78791000D01*
X32425000Y-78791000D02*
X32825000Y-79391000D01*
X32825000Y-79391000D02*
X32025000Y-79391000D01*
X32025000Y-79391000D02*
X32425000Y-78791000D01*
X32425000Y-79391000D02*
X32425000Y-79891000D01*
%TO.C,D12*%
X128325000Y-50891000D02*
X128325000Y-53691000D01*
X128325000Y-53691000D02*
X126525000Y-53691000D01*
X126525000Y-53691000D02*
X126525000Y-50891000D01*
X126525000Y-50891000D02*
X128325000Y-50891000D01*
X127425000Y-51541000D02*
X127425000Y-51941000D01*
X127425000Y-51941000D02*
X127975000Y-51941000D01*
X127425000Y-51941000D02*
X126875000Y-51941000D01*
X127425000Y-51941000D02*
X127825000Y-52541000D01*
X127825000Y-52541000D02*
X127025000Y-52541000D01*
X127025000Y-52541000D02*
X127425000Y-51941000D01*
X127425000Y-52541000D02*
X127425000Y-53041000D01*
%TO.C,D11*%
X109325000Y-48891000D02*
X109325000Y-51691000D01*
X109325000Y-51691000D02*
X107525000Y-51691000D01*
X107525000Y-51691000D02*
X107525000Y-48891000D01*
X107525000Y-48891000D02*
X109325000Y-48891000D01*
X108425000Y-49541000D02*
X108425000Y-49941000D01*
X108425000Y-49941000D02*
X108975000Y-49941000D01*
X108425000Y-49941000D02*
X107875000Y-49941000D01*
X108425000Y-49941000D02*
X108825000Y-50541000D01*
X108825000Y-50541000D02*
X108025000Y-50541000D01*
X108025000Y-50541000D02*
X108425000Y-49941000D01*
X108425000Y-50541000D02*
X108425000Y-51041000D01*
%TO.C,D10*%
X90325000Y-38891000D02*
X90325000Y-41691000D01*
X90325000Y-41691000D02*
X88525000Y-41691000D01*
X88525000Y-41691000D02*
X88525000Y-38891000D01*
X88525000Y-38891000D02*
X90325000Y-38891000D01*
X89425000Y-39541000D02*
X89425000Y-39941000D01*
X89425000Y-39941000D02*
X89975000Y-39941000D01*
X89425000Y-39941000D02*
X88875000Y-39941000D01*
X89425000Y-39941000D02*
X89825000Y-40541000D01*
X89825000Y-40541000D02*
X89025000Y-40541000D01*
X89025000Y-40541000D02*
X89425000Y-39941000D01*
X89425000Y-40541000D02*
X89425000Y-41041000D01*
%TO.C,D9*%
X71325000Y-41891000D02*
X71325000Y-44691000D01*
X71325000Y-44691000D02*
X69525000Y-44691000D01*
X69525000Y-44691000D02*
X69525000Y-41891000D01*
X69525000Y-41891000D02*
X71325000Y-41891000D01*
X70425000Y-42541000D02*
X70425000Y-42941000D01*
X70425000Y-42941000D02*
X70975000Y-42941000D01*
X70425000Y-42941000D02*
X69875000Y-42941000D01*
X70425000Y-42941000D02*
X70825000Y-43541000D01*
X70825000Y-43541000D02*
X70025000Y-43541000D01*
X70025000Y-43541000D02*
X70425000Y-42941000D01*
X70425000Y-43541000D02*
X70425000Y-44041000D01*
%TO.C,D8*%
X52325000Y-57441000D02*
X52325000Y-60241000D01*
X52325000Y-60241000D02*
X50525000Y-60241000D01*
X50525000Y-60241000D02*
X50525000Y-57441000D01*
X50525000Y-57441000D02*
X52325000Y-57441000D01*
X51425000Y-58091000D02*
X51425000Y-58491000D01*
X51425000Y-58491000D02*
X51975000Y-58491000D01*
X51425000Y-58491000D02*
X50875000Y-58491000D01*
X51425000Y-58491000D02*
X51825000Y-59091000D01*
X51825000Y-59091000D02*
X51025000Y-59091000D01*
X51025000Y-59091000D02*
X51425000Y-58491000D01*
X51425000Y-59091000D02*
X51425000Y-59591000D01*
%TO.C,D7*%
X33320000Y-58790000D02*
X33320000Y-61590000D01*
X33320000Y-61590000D02*
X31520000Y-61590000D01*
X31520000Y-61590000D02*
X31520000Y-58790000D01*
X31520000Y-58790000D02*
X33320000Y-58790000D01*
X32420000Y-59440000D02*
X32420000Y-59840000D01*
X32420000Y-59840000D02*
X32970000Y-59840000D01*
X32420000Y-59840000D02*
X31870000Y-59840000D01*
X32420000Y-59840000D02*
X32820000Y-60440000D01*
X32820000Y-60440000D02*
X32020000Y-60440000D01*
X32020000Y-60440000D02*
X32420000Y-59840000D01*
X32420000Y-60440000D02*
X32420000Y-60940000D01*
%TO.C,D6*%
X128325000Y-31891000D02*
X128325000Y-34691000D01*
X128325000Y-34691000D02*
X126525000Y-34691000D01*
X126525000Y-34691000D02*
X126525000Y-31891000D01*
X126525000Y-31891000D02*
X128325000Y-31891000D01*
X127425000Y-32541000D02*
X127425000Y-32941000D01*
X127425000Y-32941000D02*
X127975000Y-32941000D01*
X127425000Y-32941000D02*
X126875000Y-32941000D01*
X127425000Y-32941000D02*
X127825000Y-33541000D01*
X127825000Y-33541000D02*
X127025000Y-33541000D01*
X127025000Y-33541000D02*
X127425000Y-32941000D01*
X127425000Y-33541000D02*
X127425000Y-34041000D01*
%TO.C,D5*%
X109325000Y-29891000D02*
X109325000Y-32691000D01*
X109325000Y-32691000D02*
X107525000Y-32691000D01*
X107525000Y-32691000D02*
X107525000Y-29891000D01*
X107525000Y-29891000D02*
X109325000Y-29891000D01*
X108425000Y-30541000D02*
X108425000Y-30941000D01*
X108425000Y-30941000D02*
X108975000Y-30941000D01*
X108425000Y-30941000D02*
X107875000Y-30941000D01*
X108425000Y-30941000D02*
X108825000Y-31541000D01*
X108825000Y-31541000D02*
X108025000Y-31541000D01*
X108025000Y-31541000D02*
X108425000Y-30941000D01*
X108425000Y-31541000D02*
X108425000Y-32041000D01*
%TO.C,D4*%
X90325000Y-19891000D02*
X90325000Y-22691000D01*
X90325000Y-22691000D02*
X88525000Y-22691000D01*
X88525000Y-22691000D02*
X88525000Y-19891000D01*
X88525000Y-19891000D02*
X90325000Y-19891000D01*
X89425000Y-20541000D02*
X89425000Y-20941000D01*
X89425000Y-20941000D02*
X89975000Y-20941000D01*
X89425000Y-20941000D02*
X88875000Y-20941000D01*
X89425000Y-20941000D02*
X89825000Y-21541000D01*
X89825000Y-21541000D02*
X89025000Y-21541000D01*
X89025000Y-21541000D02*
X89425000Y-20941000D01*
X89425000Y-21541000D02*
X89425000Y-22041000D01*
%TO.C,D3*%
X71325000Y-22891000D02*
X71325000Y-25691000D01*
X71325000Y-25691000D02*
X69525000Y-25691000D01*
X69525000Y-25691000D02*
X69525000Y-22891000D01*
X69525000Y-22891000D02*
X71325000Y-22891000D01*
X70425000Y-23541000D02*
X70425000Y-23941000D01*
X70425000Y-23941000D02*
X70975000Y-23941000D01*
X70425000Y-23941000D02*
X69875000Y-23941000D01*
X70425000Y-23941000D02*
X70825000Y-24541000D01*
X70825000Y-24541000D02*
X70025000Y-24541000D01*
X70025000Y-24541000D02*
X70425000Y-23941000D01*
X70425000Y-24541000D02*
X70425000Y-25041000D01*
%TO.C,D2*%
X52330000Y-38500000D02*
X52330000Y-41300000D01*
X52330000Y-41300000D02*
X50530000Y-41300000D01*
X50530000Y-41300000D02*
X50530000Y-38500000D01*
X50530000Y-38500000D02*
X52330000Y-38500000D01*
X51430000Y-39150000D02*
X51430000Y-39550000D01*
X51430000Y-39550000D02*
X51980000Y-39550000D01*
X51430000Y-39550000D02*
X50880000Y-39550000D01*
X51430000Y-39550000D02*
X51830000Y-40150000D01*
X51830000Y-40150000D02*
X51030000Y-40150000D01*
X51030000Y-40150000D02*
X51430000Y-39550000D01*
X51430000Y-40150000D02*
X51430000Y-40650000D01*
%TO.C,D1*%
X33325000Y-39741000D02*
X33325000Y-42541000D01*
X33325000Y-42541000D02*
X31525000Y-42541000D01*
X31525000Y-42541000D02*
X31525000Y-39741000D01*
X31525000Y-39741000D02*
X33325000Y-39741000D01*
X32425000Y-40391000D02*
X32425000Y-40791000D01*
X32425000Y-40791000D02*
X32975000Y-40791000D01*
X32425000Y-40791000D02*
X31875000Y-40791000D01*
X32425000Y-40791000D02*
X32825000Y-41391000D01*
X32825000Y-41391000D02*
X32025000Y-41391000D01*
X32025000Y-41391000D02*
X32425000Y-40791000D01*
X32425000Y-41391000D02*
X32425000Y-41891000D01*
D11*
%TO.C,J3*%
X130160000Y-49100000D02*
X157460000Y-49100000D01*
X130160000Y-30100000D02*
X157460000Y-30100000D01*
D10*
%TO.C,16mhz1*%
X147638576Y-76363378D02*
X152164059Y-71837894D01*
X150926622Y-79651424D02*
X155452106Y-75125941D01*
X148009807Y-76451766D02*
X152252447Y-72209126D01*
X150838234Y-79280193D02*
X155080874Y-75037553D01*
X155080875Y-75037552D02*
G75*
G03*
X152252447Y-72209126I-1414214J1414213D01*
G01*
X150838233Y-79280194D02*
G75*
G02*
X148009807Y-76451766I-1414213J1414214D01*
G01*
X155452105Y-75125942D02*
G75*
G03*
X152164059Y-71837894I-1644023J1644024D01*
G01*
X150926622Y-79651424D02*
G75*
G02*
X147638576Y-76363378I-1644023J1644023D01*
G01*
%TO.C,Boot1*%
X136950714Y-57000000D02*
G75*
G03*
X136950714Y-57000000I-1750714J0D01*
G01*
X138200000Y-54000000D02*
X132200000Y-54000000D01*
X138200000Y-60000000D02*
X138200000Y-54000000D01*
X132200000Y-60000000D02*
X138200000Y-60000000D01*
X132200000Y-54000000D02*
X132200000Y-60000000D01*
%TO.C,C5*%
X130500000Y-70875000D02*
X132500000Y-70875000D01*
X130500000Y-72125000D02*
X130500000Y-70875000D01*
X132500000Y-72125000D02*
X130500000Y-72125000D01*
X132500000Y-70875000D02*
X132500000Y-72125000D01*
%TO.C,D27*%
X142320000Y-22263810D02*
X142320000Y-24596190D01*
X145320000Y-23430000D02*
G75*
G03*
X145320000Y-23430000I-1500000J0D01*
G01*
X142319445Y-24595476D02*
G75*
G03*
X142320000Y-22263810I1500555J1165476D01*
G01*
%TO.C,R6*%
X150745000Y-27337500D02*
X150745000Y-29337500D01*
X149495000Y-27337500D02*
X150745000Y-27337500D01*
X149495000Y-29337500D02*
X149495000Y-27337500D01*
X150745000Y-29337500D02*
X149495000Y-29337500D01*
%TO.C,RESET_SW1*%
X154250714Y-57000000D02*
G75*
G03*
X154250714Y-57000000I-1750714J0D01*
G01*
X155500000Y-54000000D02*
X149500000Y-54000000D01*
X155500000Y-60000000D02*
X155500000Y-54000000D01*
X149500000Y-60000000D02*
X155500000Y-60000000D01*
X149500000Y-54000000D02*
X149500000Y-60000000D01*
%TO.C,RED1*%
X152320000Y-23430000D02*
G75*
G03*
X152320000Y-23430000I-1500000J0D01*
G01*
X149320000Y-22263810D02*
X149320000Y-24596190D01*
X149319445Y-24595476D02*
G75*
G03*
X149320000Y-22263810I1500555J1165476D01*
G01*
%TO.C,D26*%
X137320000Y-23430000D02*
G75*
G03*
X137320000Y-23430000I-1500000J0D01*
G01*
X134320000Y-22263810D02*
X134320000Y-24596190D01*
X134319445Y-24595476D02*
G75*
G03*
X134320000Y-22263810I1500555J1165476D01*
G01*
%TO.C,R8*%
X157662500Y-63915000D02*
X157662500Y-65165000D01*
X157662500Y-65165000D02*
X155662500Y-65165000D01*
X155662500Y-65165000D02*
X155662500Y-63915000D01*
X155662500Y-63915000D02*
X157662500Y-63915000D01*
D12*
%TO.C,SW19*%
X64790000Y-94970000D02*
G75*
G03*
X64790000Y-94970000I-3000000J0D01*
G01*
X56790000Y-89170000D02*
X67790000Y-89170000D01*
X67790000Y-89170000D02*
X67790000Y-100770000D01*
X67790000Y-100770000D02*
X55790000Y-100770000D01*
X55790000Y-100770000D02*
X55790000Y-90270000D01*
X55790000Y-90270000D02*
X56790000Y-89170000D01*
X61790000Y-91970000D02*
X61790000Y-97970000D01*
X58790000Y-94970000D02*
X64790000Y-94970000D01*
D10*
%TO.C,R4*%
X38968341Y-16306077D02*
X37718341Y-16306077D01*
X37718341Y-16306077D02*
X37718341Y-14306077D01*
X37718341Y-14306077D02*
X38968341Y-14306077D01*
X38968341Y-14306077D02*
X38968341Y-16306077D01*
%TO.C,R3*%
X28655951Y-20687290D02*
X27405951Y-20687290D01*
X27405951Y-20687290D02*
X27405951Y-18687290D01*
X27405951Y-18687290D02*
X28655951Y-18687290D01*
X28655951Y-18687290D02*
X28655951Y-20687290D01*
%TO.C,U2*%
X37500000Y-24250000D02*
X38250000Y-23500000D01*
X37500000Y-26500000D02*
X37500000Y-24250000D01*
X40500000Y-26500000D02*
X37500000Y-26500000D01*
X40500000Y-23500000D02*
X40500000Y-26500000D01*
X38250000Y-23500000D02*
X40500000Y-23500000D01*
%TO.C,R7*%
X130500000Y-67275000D02*
X132500000Y-67275000D01*
X130500000Y-68525000D02*
X130500000Y-67275000D01*
X132500000Y-68525000D02*
X130500000Y-68525000D01*
X132500000Y-67275000D02*
X132500000Y-68525000D01*
%TO.C,R5*%
X130500000Y-64775000D02*
X132500000Y-64775000D01*
X130500000Y-66025000D02*
X130500000Y-64775000D01*
X132500000Y-66025000D02*
X130500000Y-66025000D01*
X132500000Y-64775000D02*
X132500000Y-66025000D01*
%TO.C,R2*%
X157662500Y-62965000D02*
X155662500Y-62965000D01*
X157662500Y-61715000D02*
X157662500Y-62965000D01*
X155662500Y-61715000D02*
X157662500Y-61715000D01*
X155662500Y-62965000D02*
X155662500Y-61715000D01*
%TO.C,R1*%
X153795000Y-26872500D02*
X153795000Y-28872500D01*
X152545000Y-26872500D02*
X153795000Y-26872500D01*
X152545000Y-28872500D02*
X152545000Y-26872500D01*
X153795000Y-28872500D02*
X152545000Y-28872500D01*
%TO.C,F1*%
X22600000Y-26800000D02*
X19400000Y-26800000D01*
X22600000Y-25200000D02*
X22600000Y-26800000D01*
X19400000Y-25200000D02*
X22600000Y-25200000D01*
X19400000Y-26800000D02*
X19400000Y-25200000D01*
%TO.C,C19*%
X31600000Y-30800000D02*
X31600000Y-29200000D01*
X28400000Y-30800000D02*
X31600000Y-30800000D01*
X28400000Y-29600000D02*
X28400000Y-30800000D01*
X28800000Y-29200000D02*
X28400000Y-29600000D01*
X31600000Y-29200000D02*
X28800000Y-29200000D01*
%TO.C,C8*%
X49000000Y-25625000D02*
X47000000Y-25625000D01*
X49000000Y-24375000D02*
X49000000Y-25625000D01*
X47000000Y-24375000D02*
X49000000Y-24375000D01*
X47000000Y-25625000D02*
X47000000Y-24375000D01*
%TO.C,C7*%
X49000000Y-30625000D02*
X47000000Y-30625000D01*
X49000000Y-29375000D02*
X49000000Y-30625000D01*
X47000000Y-29375000D02*
X49000000Y-29375000D01*
X47000000Y-30625000D02*
X47000000Y-29375000D01*
%TO.C,C6*%
X40600000Y-30800000D02*
X40600000Y-29200000D01*
X37400000Y-30800000D02*
X40600000Y-30800000D01*
X37400000Y-29600000D02*
X37400000Y-30800000D01*
X37800000Y-29200000D02*
X37400000Y-29600000D01*
X40600000Y-29200000D02*
X37800000Y-29200000D01*
%TO.C,C3*%
X22000000Y-30625000D02*
X20000000Y-30625000D01*
X22000000Y-29375000D02*
X22000000Y-30625000D01*
X20000000Y-29375000D02*
X22000000Y-29375000D01*
X20000000Y-30625000D02*
X20000000Y-29375000D01*
%TO.C,C1*%
X132500000Y-63525000D02*
X130500000Y-63525000D01*
X132500000Y-62275000D02*
X132500000Y-63525000D01*
X130500000Y-62275000D02*
X132500000Y-62275000D01*
X130500000Y-63525000D02*
X130500000Y-62275000D01*
%TD*%
%TO.C,H9*%
D11*
X172621428Y-99502380D02*
X172621428Y-98502380D01*
X172621428Y-98978571D02*
X173192857Y-98978571D01*
X173192857Y-99502380D02*
X173192857Y-98502380D01*
X173811904Y-99502380D02*
X173716666Y-99454761D01*
X173669047Y-99407142D01*
X173621428Y-99311904D01*
X173621428Y-99026190D01*
X173669047Y-98930952D01*
X173716666Y-98883333D01*
X173811904Y-98835714D01*
X173954761Y-98835714D01*
X174050000Y-98883333D01*
X174097619Y-98930952D01*
X174145238Y-99026190D01*
X174145238Y-99311904D01*
X174097619Y-99407142D01*
X174050000Y-99454761D01*
X173954761Y-99502380D01*
X173811904Y-99502380D01*
X174716666Y-99502380D02*
X174621428Y-99454761D01*
X174573809Y-99359523D01*
X174573809Y-98502380D01*
X175478571Y-99454761D02*
X175383333Y-99502380D01*
X175192857Y-99502380D01*
X175097619Y-99454761D01*
X175050000Y-99359523D01*
X175050000Y-98978571D01*
X175097619Y-98883333D01*
X175192857Y-98835714D01*
X175383333Y-98835714D01*
X175478571Y-98883333D01*
X175526190Y-98978571D01*
X175526190Y-99073809D01*
X175050000Y-99169047D01*
X173005595Y-96554880D02*
X173005595Y-95554880D01*
X173005595Y-96031071D02*
X173577023Y-96031071D01*
X173577023Y-96554880D02*
X173577023Y-95554880D01*
X174100833Y-96554880D02*
X174291309Y-96554880D01*
X174386547Y-96507261D01*
X174434166Y-96459642D01*
X174529404Y-96316785D01*
X174577023Y-96126309D01*
X174577023Y-95745357D01*
X174529404Y-95650119D01*
X174481785Y-95602500D01*
X174386547Y-95554880D01*
X174196071Y-95554880D01*
X174100833Y-95602500D01*
X174053214Y-95650119D01*
X174005595Y-95745357D01*
X174005595Y-95983452D01*
X174053214Y-96078690D01*
X174100833Y-96126309D01*
X174196071Y-96173928D01*
X174386547Y-96173928D01*
X174481785Y-96126309D01*
X174529404Y-96078690D01*
X174577023Y-95983452D01*
%TO.C,D23*%
X130581932Y-103001819D02*
X129597125Y-102828171D01*
X129638470Y-102593693D01*
X129710172Y-102461275D01*
X129820501Y-102384022D01*
X129922561Y-102353664D01*
X130118413Y-102339845D01*
X130259100Y-102364652D01*
X130438413Y-102444623D01*
X130523935Y-102508057D01*
X130601189Y-102618386D01*
X130623277Y-102767341D01*
X130581932Y-103001819D01*
X134454265Y-104651689D02*
X133469458Y-104478040D01*
X133510802Y-104243562D01*
X133582505Y-104111145D01*
X133692834Y-104033891D01*
X133794894Y-104003534D01*
X133990746Y-103989714D01*
X134131432Y-104014521D01*
X134310746Y-104094492D01*
X134396268Y-104157926D01*
X134473521Y-104268255D01*
X134495610Y-104417211D01*
X134454265Y-104651689D01*
X133728628Y-103556666D02*
X133690001Y-103501502D01*
X133659644Y-103399441D01*
X133700988Y-103164963D01*
X133764422Y-103079441D01*
X133819587Y-103040815D01*
X133921647Y-103010457D01*
X134015438Y-103026995D01*
X134147856Y-103098697D01*
X134611376Y-103760672D01*
X134718872Y-103151029D01*
X133791947Y-102649112D02*
X133899443Y-102039469D01*
X134216726Y-102433890D01*
X134241532Y-102293203D01*
X134304966Y-102207681D01*
X134360131Y-102169054D01*
X134462191Y-102138696D01*
X134696669Y-102180041D01*
X134782191Y-102243475D01*
X134820818Y-102298639D01*
X134851175Y-102400699D01*
X134801562Y-102682073D01*
X134738128Y-102767595D01*
X134682964Y-102806222D01*
%TO.C,D18*%
X125777380Y-71552904D02*
X124777380Y-71552904D01*
X124777380Y-71314809D01*
X124825000Y-71171952D01*
X124920238Y-71076714D01*
X125015476Y-71029095D01*
X125205952Y-70981476D01*
X125348809Y-70981476D01*
X125539285Y-71029095D01*
X125634523Y-71076714D01*
X125729761Y-71171952D01*
X125777380Y-71314809D01*
X125777380Y-71552904D01*
X129877380Y-72505285D02*
X128877380Y-72505285D01*
X128877380Y-72267190D01*
X128925000Y-72124333D01*
X129020238Y-72029095D01*
X129115476Y-71981476D01*
X129305952Y-71933857D01*
X129448809Y-71933857D01*
X129639285Y-71981476D01*
X129734523Y-72029095D01*
X129829761Y-72124333D01*
X129877380Y-72267190D01*
X129877380Y-72505285D01*
X129877380Y-70981476D02*
X129877380Y-71552904D01*
X129877380Y-71267190D02*
X128877380Y-71267190D01*
X129020238Y-71362428D01*
X129115476Y-71457666D01*
X129163095Y-71552904D01*
X129305952Y-70410047D02*
X129258333Y-70505285D01*
X129210714Y-70552904D01*
X129115476Y-70600523D01*
X129067857Y-70600523D01*
X128972619Y-70552904D01*
X128925000Y-70505285D01*
X128877380Y-70410047D01*
X128877380Y-70219571D01*
X128925000Y-70124333D01*
X128972619Y-70076714D01*
X129067857Y-70029095D01*
X129115476Y-70029095D01*
X129210714Y-70076714D01*
X129258333Y-70124333D01*
X129305952Y-70219571D01*
X129305952Y-70410047D01*
X129353571Y-70505285D01*
X129401190Y-70552904D01*
X129496428Y-70600523D01*
X129686904Y-70600523D01*
X129782142Y-70552904D01*
X129829761Y-70505285D01*
X129877380Y-70410047D01*
X129877380Y-70219571D01*
X129829761Y-70124333D01*
X129782142Y-70076714D01*
X129686904Y-70029095D01*
X129496428Y-70029095D01*
X129401190Y-70076714D01*
X129353571Y-70124333D01*
X129305952Y-70219571D01*
%TO.C,D25*%
X29738095Y-23352380D02*
X29738095Y-22352380D01*
X29976190Y-22352380D01*
X30119047Y-22400000D01*
X30214285Y-22495238D01*
X30261904Y-22590476D01*
X30309523Y-22780952D01*
X30309523Y-22923809D01*
X30261904Y-23114285D01*
X30214285Y-23209523D01*
X30119047Y-23304761D01*
X29976190Y-23352380D01*
X29738095Y-23352380D01*
X28785714Y-27452380D02*
X28785714Y-26452380D01*
X29023809Y-26452380D01*
X29166666Y-26500000D01*
X29261904Y-26595238D01*
X29309523Y-26690476D01*
X29357142Y-26880952D01*
X29357142Y-27023809D01*
X29309523Y-27214285D01*
X29261904Y-27309523D01*
X29166666Y-27404761D01*
X29023809Y-27452380D01*
X28785714Y-27452380D01*
X29738095Y-26547619D02*
X29785714Y-26500000D01*
X29880952Y-26452380D01*
X30119047Y-26452380D01*
X30214285Y-26500000D01*
X30261904Y-26547619D01*
X30309523Y-26642857D01*
X30309523Y-26738095D01*
X30261904Y-26880952D01*
X29690476Y-27452380D01*
X30309523Y-27452380D01*
X31214285Y-26452380D02*
X30738095Y-26452380D01*
X30690476Y-26928571D01*
X30738095Y-26880952D01*
X30833333Y-26833333D01*
X31071428Y-26833333D01*
X31166666Y-26880952D01*
X31214285Y-26928571D01*
X31261904Y-27023809D01*
X31261904Y-27261904D01*
X31214285Y-27357142D01*
X31166666Y-27404761D01*
X31071428Y-27452380D01*
X30833333Y-27452380D01*
X30738095Y-27404761D01*
X30690476Y-27357142D01*
%TO.C,D24*%
X149355413Y-106236752D02*
X148370606Y-106063104D01*
X148411951Y-105828626D01*
X148483653Y-105696208D01*
X148593982Y-105618955D01*
X148696042Y-105588597D01*
X148891894Y-105574778D01*
X149032581Y-105599585D01*
X149211894Y-105679556D01*
X149297416Y-105742990D01*
X149374670Y-105853319D01*
X149396758Y-106002274D01*
X149355413Y-106236752D01*
X153227746Y-107886622D02*
X152242939Y-107712973D01*
X152284283Y-107478495D01*
X152355986Y-107346078D01*
X152466315Y-107268824D01*
X152568375Y-107238467D01*
X152764227Y-107224647D01*
X152904913Y-107249454D01*
X153084227Y-107329425D01*
X153169749Y-107392859D01*
X153247002Y-107503188D01*
X153269091Y-107652144D01*
X153227746Y-107886622D01*
X152502109Y-106791599D02*
X152463482Y-106736435D01*
X152433125Y-106634374D01*
X152474469Y-106399896D01*
X152537903Y-106314374D01*
X152593068Y-106275748D01*
X152695128Y-106245390D01*
X152788919Y-106261928D01*
X152921337Y-106333630D01*
X153384857Y-106995605D01*
X153492353Y-106385962D01*
X152984656Y-105426076D02*
X153641194Y-105541841D01*
X152568146Y-105594402D02*
X153230235Y-105952915D01*
X153337732Y-105343272D01*
%TO.C,D22*%
X158708858Y-108908124D02*
X158882506Y-107923317D01*
X159116984Y-107964662D01*
X159249402Y-108036364D01*
X159326655Y-108146693D01*
X159357013Y-108248753D01*
X159370832Y-108444605D01*
X159346025Y-108585292D01*
X159266054Y-108764605D01*
X159202620Y-108850127D01*
X159092291Y-108927381D01*
X158943336Y-108949469D01*
X158708858Y-108908124D01*
X158482902Y-104705033D02*
X158656551Y-103720226D01*
X158891029Y-103761570D01*
X159023446Y-103833273D01*
X159100700Y-103943602D01*
X159131057Y-104045662D01*
X159144877Y-104241514D01*
X159120070Y-104382200D01*
X159040099Y-104561514D01*
X158976665Y-104647036D01*
X158866336Y-104724289D01*
X158717380Y-104746378D01*
X158482902Y-104705033D01*
X159577925Y-103979396D02*
X159633089Y-103940769D01*
X159735150Y-103910412D01*
X159969628Y-103951756D01*
X160055150Y-104015190D01*
X160093776Y-104070355D01*
X160124134Y-104172415D01*
X160107596Y-104266206D01*
X160035894Y-104398624D01*
X159373919Y-104862144D01*
X159983562Y-104969640D01*
X160515837Y-104144775D02*
X160571002Y-104106149D01*
X160673062Y-104075791D01*
X160907540Y-104117136D01*
X160993062Y-104180569D01*
X161031689Y-104235734D01*
X161062046Y-104337794D01*
X161045508Y-104431585D01*
X160973806Y-104564003D01*
X160311831Y-105027523D01*
X160921474Y-105135019D01*
%TO.C,D21*%
X111389880Y-90561904D02*
X110389880Y-90561904D01*
X110389880Y-90323809D01*
X110437500Y-90180952D01*
X110532738Y-90085714D01*
X110627976Y-90038095D01*
X110818452Y-89990476D01*
X110961309Y-89990476D01*
X111151785Y-90038095D01*
X111247023Y-90085714D01*
X111342261Y-90180952D01*
X111389880Y-90323809D01*
X111389880Y-90561904D01*
X115489880Y-91514285D02*
X114489880Y-91514285D01*
X114489880Y-91276190D01*
X114537500Y-91133333D01*
X114632738Y-91038095D01*
X114727976Y-90990476D01*
X114918452Y-90942857D01*
X115061309Y-90942857D01*
X115251785Y-90990476D01*
X115347023Y-91038095D01*
X115442261Y-91133333D01*
X115489880Y-91276190D01*
X115489880Y-91514285D01*
X114585119Y-90561904D02*
X114537500Y-90514285D01*
X114489880Y-90419047D01*
X114489880Y-90180952D01*
X114537500Y-90085714D01*
X114585119Y-90038095D01*
X114680357Y-89990476D01*
X114775595Y-89990476D01*
X114918452Y-90038095D01*
X115489880Y-90609523D01*
X115489880Y-89990476D01*
X115489880Y-89038095D02*
X115489880Y-89609523D01*
X115489880Y-89323809D02*
X114489880Y-89323809D01*
X114632738Y-89419047D01*
X114727976Y-89514285D01*
X114775595Y-89609523D01*
%TO.C,D20*%
X92389880Y-88561904D02*
X91389880Y-88561904D01*
X91389880Y-88323809D01*
X91437500Y-88180952D01*
X91532738Y-88085714D01*
X91627976Y-88038095D01*
X91818452Y-87990476D01*
X91961309Y-87990476D01*
X92151785Y-88038095D01*
X92247023Y-88085714D01*
X92342261Y-88180952D01*
X92389880Y-88323809D01*
X92389880Y-88561904D01*
X96489880Y-89514285D02*
X95489880Y-89514285D01*
X95489880Y-89276190D01*
X95537500Y-89133333D01*
X95632738Y-89038095D01*
X95727976Y-88990476D01*
X95918452Y-88942857D01*
X96061309Y-88942857D01*
X96251785Y-88990476D01*
X96347023Y-89038095D01*
X96442261Y-89133333D01*
X96489880Y-89276190D01*
X96489880Y-89514285D01*
X95585119Y-88561904D02*
X95537500Y-88514285D01*
X95489880Y-88419047D01*
X95489880Y-88180952D01*
X95537500Y-88085714D01*
X95585119Y-88038095D01*
X95680357Y-87990476D01*
X95775595Y-87990476D01*
X95918452Y-88038095D01*
X96489880Y-88609523D01*
X96489880Y-87990476D01*
X95489880Y-87371428D02*
X95489880Y-87276190D01*
X95537500Y-87180952D01*
X95585119Y-87133333D01*
X95680357Y-87085714D01*
X95870833Y-87038095D01*
X96108928Y-87038095D01*
X96299404Y-87085714D01*
X96394642Y-87133333D01*
X96442261Y-87180952D01*
X96489880Y-87276190D01*
X96489880Y-87371428D01*
X96442261Y-87466666D01*
X96394642Y-87514285D01*
X96299404Y-87561904D01*
X96108928Y-87609523D01*
X95870833Y-87609523D01*
X95680357Y-87561904D01*
X95585119Y-87514285D01*
X95537500Y-87466666D01*
X95489880Y-87371428D01*
%TO.C,D19*%
X72648095Y-92602380D02*
X72648095Y-91602380D01*
X72886190Y-91602380D01*
X73029047Y-91650000D01*
X73124285Y-91745238D01*
X73171904Y-91840476D01*
X73219523Y-92030952D01*
X73219523Y-92173809D01*
X73171904Y-92364285D01*
X73124285Y-92459523D01*
X73029047Y-92554761D01*
X72886190Y-92602380D01*
X72648095Y-92602380D01*
X71695714Y-96702380D02*
X71695714Y-95702380D01*
X71933809Y-95702380D01*
X72076666Y-95750000D01*
X72171904Y-95845238D01*
X72219523Y-95940476D01*
X72267142Y-96130952D01*
X72267142Y-96273809D01*
X72219523Y-96464285D01*
X72171904Y-96559523D01*
X72076666Y-96654761D01*
X71933809Y-96702380D01*
X71695714Y-96702380D01*
X73219523Y-96702380D02*
X72648095Y-96702380D01*
X72933809Y-96702380D02*
X72933809Y-95702380D01*
X72838571Y-95845238D01*
X72743333Y-95940476D01*
X72648095Y-95988095D01*
X73695714Y-96702380D02*
X73886190Y-96702380D01*
X73981428Y-96654761D01*
X74029047Y-96607142D01*
X74124285Y-96464285D01*
X74171904Y-96273809D01*
X74171904Y-95892857D01*
X74124285Y-95797619D01*
X74076666Y-95750000D01*
X73981428Y-95702380D01*
X73790952Y-95702380D01*
X73695714Y-95750000D01*
X73648095Y-95797619D01*
X73600476Y-95892857D01*
X73600476Y-96130952D01*
X73648095Y-96226190D01*
X73695714Y-96273809D01*
X73790952Y-96321428D01*
X73981428Y-96321428D01*
X74076666Y-96273809D01*
X74124285Y-96226190D01*
X74171904Y-96130952D01*
%TO.C,D17*%
X106777380Y-69552904D02*
X105777380Y-69552904D01*
X105777380Y-69314809D01*
X105825000Y-69171952D01*
X105920238Y-69076714D01*
X106015476Y-69029095D01*
X106205952Y-68981476D01*
X106348809Y-68981476D01*
X106539285Y-69029095D01*
X106634523Y-69076714D01*
X106729761Y-69171952D01*
X106777380Y-69314809D01*
X106777380Y-69552904D01*
X110877380Y-70505285D02*
X109877380Y-70505285D01*
X109877380Y-70267190D01*
X109925000Y-70124333D01*
X110020238Y-70029095D01*
X110115476Y-69981476D01*
X110305952Y-69933857D01*
X110448809Y-69933857D01*
X110639285Y-69981476D01*
X110734523Y-70029095D01*
X110829761Y-70124333D01*
X110877380Y-70267190D01*
X110877380Y-70505285D01*
X110877380Y-68981476D02*
X110877380Y-69552904D01*
X110877380Y-69267190D02*
X109877380Y-69267190D01*
X110020238Y-69362428D01*
X110115476Y-69457666D01*
X110163095Y-69552904D01*
X109877380Y-68648142D02*
X109877380Y-67981476D01*
X110877380Y-68410047D01*
%TO.C,D16*%
X87777380Y-59552904D02*
X86777380Y-59552904D01*
X86777380Y-59314809D01*
X86825000Y-59171952D01*
X86920238Y-59076714D01*
X87015476Y-59029095D01*
X87205952Y-58981476D01*
X87348809Y-58981476D01*
X87539285Y-59029095D01*
X87634523Y-59076714D01*
X87729761Y-59171952D01*
X87777380Y-59314809D01*
X87777380Y-59552904D01*
X91877380Y-60505285D02*
X90877380Y-60505285D01*
X90877380Y-60267190D01*
X90925000Y-60124333D01*
X91020238Y-60029095D01*
X91115476Y-59981476D01*
X91305952Y-59933857D01*
X91448809Y-59933857D01*
X91639285Y-59981476D01*
X91734523Y-60029095D01*
X91829761Y-60124333D01*
X91877380Y-60267190D01*
X91877380Y-60505285D01*
X91877380Y-58981476D02*
X91877380Y-59552904D01*
X91877380Y-59267190D02*
X90877380Y-59267190D01*
X91020238Y-59362428D01*
X91115476Y-59457666D01*
X91163095Y-59552904D01*
X90877380Y-58124333D02*
X90877380Y-58314809D01*
X90925000Y-58410047D01*
X90972619Y-58457666D01*
X91115476Y-58552904D01*
X91305952Y-58600523D01*
X91686904Y-58600523D01*
X91782142Y-58552904D01*
X91829761Y-58505285D01*
X91877380Y-58410047D01*
X91877380Y-58219571D01*
X91829761Y-58124333D01*
X91782142Y-58076714D01*
X91686904Y-58029095D01*
X91448809Y-58029095D01*
X91353571Y-58076714D01*
X91305952Y-58124333D01*
X91258333Y-58219571D01*
X91258333Y-58410047D01*
X91305952Y-58505285D01*
X91353571Y-58552904D01*
X91448809Y-58600523D01*
%TO.C,D15*%
X68777380Y-62552904D02*
X67777380Y-62552904D01*
X67777380Y-62314809D01*
X67825000Y-62171952D01*
X67920238Y-62076714D01*
X68015476Y-62029095D01*
X68205952Y-61981476D01*
X68348809Y-61981476D01*
X68539285Y-62029095D01*
X68634523Y-62076714D01*
X68729761Y-62171952D01*
X68777380Y-62314809D01*
X68777380Y-62552904D01*
X72877380Y-63505285D02*
X71877380Y-63505285D01*
X71877380Y-63267190D01*
X71925000Y-63124333D01*
X72020238Y-63029095D01*
X72115476Y-62981476D01*
X72305952Y-62933857D01*
X72448809Y-62933857D01*
X72639285Y-62981476D01*
X72734523Y-63029095D01*
X72829761Y-63124333D01*
X72877380Y-63267190D01*
X72877380Y-63505285D01*
X72877380Y-61981476D02*
X72877380Y-62552904D01*
X72877380Y-62267190D02*
X71877380Y-62267190D01*
X72020238Y-62362428D01*
X72115476Y-62457666D01*
X72163095Y-62552904D01*
X71877380Y-61076714D02*
X71877380Y-61552904D01*
X72353571Y-61600523D01*
X72305952Y-61552904D01*
X72258333Y-61457666D01*
X72258333Y-61219571D01*
X72305952Y-61124333D01*
X72353571Y-61076714D01*
X72448809Y-61029095D01*
X72686904Y-61029095D01*
X72782142Y-61076714D01*
X72829761Y-61124333D01*
X72877380Y-61219571D01*
X72877380Y-61457666D01*
X72829761Y-61552904D01*
X72782142Y-61600523D01*
%TO.C,D14*%
X49777380Y-78102904D02*
X48777380Y-78102904D01*
X48777380Y-77864809D01*
X48825000Y-77721952D01*
X48920238Y-77626714D01*
X49015476Y-77579095D01*
X49205952Y-77531476D01*
X49348809Y-77531476D01*
X49539285Y-77579095D01*
X49634523Y-77626714D01*
X49729761Y-77721952D01*
X49777380Y-77864809D01*
X49777380Y-78102904D01*
X53877380Y-79055285D02*
X52877380Y-79055285D01*
X52877380Y-78817190D01*
X52925000Y-78674333D01*
X53020238Y-78579095D01*
X53115476Y-78531476D01*
X53305952Y-78483857D01*
X53448809Y-78483857D01*
X53639285Y-78531476D01*
X53734523Y-78579095D01*
X53829761Y-78674333D01*
X53877380Y-78817190D01*
X53877380Y-79055285D01*
X53877380Y-77531476D02*
X53877380Y-78102904D01*
X53877380Y-77817190D02*
X52877380Y-77817190D01*
X53020238Y-77912428D01*
X53115476Y-78007666D01*
X53163095Y-78102904D01*
X53210714Y-76674333D02*
X53877380Y-76674333D01*
X52829761Y-76912428D02*
X53544047Y-77150523D01*
X53544047Y-76531476D01*
%TO.C,D13*%
X30777380Y-79402904D02*
X29777380Y-79402904D01*
X29777380Y-79164809D01*
X29825000Y-79021952D01*
X29920238Y-78926714D01*
X30015476Y-78879095D01*
X30205952Y-78831476D01*
X30348809Y-78831476D01*
X30539285Y-78879095D01*
X30634523Y-78926714D01*
X30729761Y-79021952D01*
X30777380Y-79164809D01*
X30777380Y-79402904D01*
X34877380Y-80355285D02*
X33877380Y-80355285D01*
X33877380Y-80117190D01*
X33925000Y-79974333D01*
X34020238Y-79879095D01*
X34115476Y-79831476D01*
X34305952Y-79783857D01*
X34448809Y-79783857D01*
X34639285Y-79831476D01*
X34734523Y-79879095D01*
X34829761Y-79974333D01*
X34877380Y-80117190D01*
X34877380Y-80355285D01*
X34877380Y-78831476D02*
X34877380Y-79402904D01*
X34877380Y-79117190D02*
X33877380Y-79117190D01*
X34020238Y-79212428D01*
X34115476Y-79307666D01*
X34163095Y-79402904D01*
X33877380Y-78498142D02*
X33877380Y-77879095D01*
X34258333Y-78212428D01*
X34258333Y-78069571D01*
X34305952Y-77974333D01*
X34353571Y-77926714D01*
X34448809Y-77879095D01*
X34686904Y-77879095D01*
X34782142Y-77926714D01*
X34829761Y-77974333D01*
X34877380Y-78069571D01*
X34877380Y-78355285D01*
X34829761Y-78450523D01*
X34782142Y-78498142D01*
%TO.C,D12*%
X125777380Y-52552904D02*
X124777380Y-52552904D01*
X124777380Y-52314809D01*
X124825000Y-52171952D01*
X124920238Y-52076714D01*
X125015476Y-52029095D01*
X125205952Y-51981476D01*
X125348809Y-51981476D01*
X125539285Y-52029095D01*
X125634523Y-52076714D01*
X125729761Y-52171952D01*
X125777380Y-52314809D01*
X125777380Y-52552904D01*
X129877380Y-53505285D02*
X128877380Y-53505285D01*
X128877380Y-53267190D01*
X128925000Y-53124333D01*
X129020238Y-53029095D01*
X129115476Y-52981476D01*
X129305952Y-52933857D01*
X129448809Y-52933857D01*
X129639285Y-52981476D01*
X129734523Y-53029095D01*
X129829761Y-53124333D01*
X129877380Y-53267190D01*
X129877380Y-53505285D01*
X129877380Y-51981476D02*
X129877380Y-52552904D01*
X129877380Y-52267190D02*
X128877380Y-52267190D01*
X129020238Y-52362428D01*
X129115476Y-52457666D01*
X129163095Y-52552904D01*
X128972619Y-51600523D02*
X128925000Y-51552904D01*
X128877380Y-51457666D01*
X128877380Y-51219571D01*
X128925000Y-51124333D01*
X128972619Y-51076714D01*
X129067857Y-51029095D01*
X129163095Y-51029095D01*
X129305952Y-51076714D01*
X129877380Y-51648142D01*
X129877380Y-51029095D01*
%TO.C,D11*%
X106777380Y-50552904D02*
X105777380Y-50552904D01*
X105777380Y-50314809D01*
X105825000Y-50171952D01*
X105920238Y-50076714D01*
X106015476Y-50029095D01*
X106205952Y-49981476D01*
X106348809Y-49981476D01*
X106539285Y-50029095D01*
X106634523Y-50076714D01*
X106729761Y-50171952D01*
X106777380Y-50314809D01*
X106777380Y-50552904D01*
X110877380Y-51505285D02*
X109877380Y-51505285D01*
X109877380Y-51267190D01*
X109925000Y-51124333D01*
X110020238Y-51029095D01*
X110115476Y-50981476D01*
X110305952Y-50933857D01*
X110448809Y-50933857D01*
X110639285Y-50981476D01*
X110734523Y-51029095D01*
X110829761Y-51124333D01*
X110877380Y-51267190D01*
X110877380Y-51505285D01*
X110877380Y-49981476D02*
X110877380Y-50552904D01*
X110877380Y-50267190D02*
X109877380Y-50267190D01*
X110020238Y-50362428D01*
X110115476Y-50457666D01*
X110163095Y-50552904D01*
X110877380Y-49029095D02*
X110877380Y-49600523D01*
X110877380Y-49314809D02*
X109877380Y-49314809D01*
X110020238Y-49410047D01*
X110115476Y-49505285D01*
X110163095Y-49600523D01*
%TO.C,D10*%
X87777380Y-40552904D02*
X86777380Y-40552904D01*
X86777380Y-40314809D01*
X86825000Y-40171952D01*
X86920238Y-40076714D01*
X87015476Y-40029095D01*
X87205952Y-39981476D01*
X87348809Y-39981476D01*
X87539285Y-40029095D01*
X87634523Y-40076714D01*
X87729761Y-40171952D01*
X87777380Y-40314809D01*
X87777380Y-40552904D01*
X91877380Y-41505285D02*
X90877380Y-41505285D01*
X90877380Y-41267190D01*
X90925000Y-41124333D01*
X91020238Y-41029095D01*
X91115476Y-40981476D01*
X91305952Y-40933857D01*
X91448809Y-40933857D01*
X91639285Y-40981476D01*
X91734523Y-41029095D01*
X91829761Y-41124333D01*
X91877380Y-41267190D01*
X91877380Y-41505285D01*
X91877380Y-39981476D02*
X91877380Y-40552904D01*
X91877380Y-40267190D02*
X90877380Y-40267190D01*
X91020238Y-40362428D01*
X91115476Y-40457666D01*
X91163095Y-40552904D01*
X90877380Y-39362428D02*
X90877380Y-39267190D01*
X90925000Y-39171952D01*
X90972619Y-39124333D01*
X91067857Y-39076714D01*
X91258333Y-39029095D01*
X91496428Y-39029095D01*
X91686904Y-39076714D01*
X91782142Y-39124333D01*
X91829761Y-39171952D01*
X91877380Y-39267190D01*
X91877380Y-39362428D01*
X91829761Y-39457666D01*
X91782142Y-39505285D01*
X91686904Y-39552904D01*
X91496428Y-39600523D01*
X91258333Y-39600523D01*
X91067857Y-39552904D01*
X90972619Y-39505285D01*
X90925000Y-39457666D01*
X90877380Y-39362428D01*
%TO.C,D9*%
X68777380Y-43552904D02*
X67777380Y-43552904D01*
X67777380Y-43314809D01*
X67825000Y-43171952D01*
X67920238Y-43076714D01*
X68015476Y-43029095D01*
X68205952Y-42981476D01*
X68348809Y-42981476D01*
X68539285Y-43029095D01*
X68634523Y-43076714D01*
X68729761Y-43171952D01*
X68777380Y-43314809D01*
X68777380Y-43552904D01*
X72877380Y-44029095D02*
X71877380Y-44029095D01*
X71877380Y-43791000D01*
X71925000Y-43648142D01*
X72020238Y-43552904D01*
X72115476Y-43505285D01*
X72305952Y-43457666D01*
X72448809Y-43457666D01*
X72639285Y-43505285D01*
X72734523Y-43552904D01*
X72829761Y-43648142D01*
X72877380Y-43791000D01*
X72877380Y-44029095D01*
X72877380Y-42981476D02*
X72877380Y-42791000D01*
X72829761Y-42695761D01*
X72782142Y-42648142D01*
X72639285Y-42552904D01*
X72448809Y-42505285D01*
X72067857Y-42505285D01*
X71972619Y-42552904D01*
X71925000Y-42600523D01*
X71877380Y-42695761D01*
X71877380Y-42886238D01*
X71925000Y-42981476D01*
X71972619Y-43029095D01*
X72067857Y-43076714D01*
X72305952Y-43076714D01*
X72401190Y-43029095D01*
X72448809Y-42981476D01*
X72496428Y-42886238D01*
X72496428Y-42695761D01*
X72448809Y-42600523D01*
X72401190Y-42552904D01*
X72305952Y-42505285D01*
%TO.C,D8*%
X49777380Y-59102904D02*
X48777380Y-59102904D01*
X48777380Y-58864809D01*
X48825000Y-58721952D01*
X48920238Y-58626714D01*
X49015476Y-58579095D01*
X49205952Y-58531476D01*
X49348809Y-58531476D01*
X49539285Y-58579095D01*
X49634523Y-58626714D01*
X49729761Y-58721952D01*
X49777380Y-58864809D01*
X49777380Y-59102904D01*
X53877380Y-59579095D02*
X52877380Y-59579095D01*
X52877380Y-59341000D01*
X52925000Y-59198142D01*
X53020238Y-59102904D01*
X53115476Y-59055285D01*
X53305952Y-59007666D01*
X53448809Y-59007666D01*
X53639285Y-59055285D01*
X53734523Y-59102904D01*
X53829761Y-59198142D01*
X53877380Y-59341000D01*
X53877380Y-59579095D01*
X53305952Y-58436238D02*
X53258333Y-58531476D01*
X53210714Y-58579095D01*
X53115476Y-58626714D01*
X53067857Y-58626714D01*
X52972619Y-58579095D01*
X52925000Y-58531476D01*
X52877380Y-58436238D01*
X52877380Y-58245761D01*
X52925000Y-58150523D01*
X52972619Y-58102904D01*
X53067857Y-58055285D01*
X53115476Y-58055285D01*
X53210714Y-58102904D01*
X53258333Y-58150523D01*
X53305952Y-58245761D01*
X53305952Y-58436238D01*
X53353571Y-58531476D01*
X53401190Y-58579095D01*
X53496428Y-58626714D01*
X53686904Y-58626714D01*
X53782142Y-58579095D01*
X53829761Y-58531476D01*
X53877380Y-58436238D01*
X53877380Y-58245761D01*
X53829761Y-58150523D01*
X53782142Y-58102904D01*
X53686904Y-58055285D01*
X53496428Y-58055285D01*
X53401190Y-58102904D01*
X53353571Y-58150523D01*
X53305952Y-58245761D01*
%TO.C,D7*%
X30772380Y-60451904D02*
X29772380Y-60451904D01*
X29772380Y-60213809D01*
X29820000Y-60070952D01*
X29915238Y-59975714D01*
X30010476Y-59928095D01*
X30200952Y-59880476D01*
X30343809Y-59880476D01*
X30534285Y-59928095D01*
X30629523Y-59975714D01*
X30724761Y-60070952D01*
X30772380Y-60213809D01*
X30772380Y-60451904D01*
X34872380Y-60928095D02*
X33872380Y-60928095D01*
X33872380Y-60690000D01*
X33920000Y-60547142D01*
X34015238Y-60451904D01*
X34110476Y-60404285D01*
X34300952Y-60356666D01*
X34443809Y-60356666D01*
X34634285Y-60404285D01*
X34729523Y-60451904D01*
X34824761Y-60547142D01*
X34872380Y-60690000D01*
X34872380Y-60928095D01*
X33872380Y-60023333D02*
X33872380Y-59356666D01*
X34872380Y-59785238D01*
%TO.C,D6*%
X125777380Y-33552904D02*
X124777380Y-33552904D01*
X124777380Y-33314809D01*
X124825000Y-33171952D01*
X124920238Y-33076714D01*
X125015476Y-33029095D01*
X125205952Y-32981476D01*
X125348809Y-32981476D01*
X125539285Y-33029095D01*
X125634523Y-33076714D01*
X125729761Y-33171952D01*
X125777380Y-33314809D01*
X125777380Y-33552904D01*
X129877380Y-34029095D02*
X128877380Y-34029095D01*
X128877380Y-33791000D01*
X128925000Y-33648142D01*
X129020238Y-33552904D01*
X129115476Y-33505285D01*
X129305952Y-33457666D01*
X129448809Y-33457666D01*
X129639285Y-33505285D01*
X129734523Y-33552904D01*
X129829761Y-33648142D01*
X129877380Y-33791000D01*
X129877380Y-34029095D01*
X128877380Y-32600523D02*
X128877380Y-32791000D01*
X128925000Y-32886238D01*
X128972619Y-32933857D01*
X129115476Y-33029095D01*
X129305952Y-33076714D01*
X129686904Y-33076714D01*
X129782142Y-33029095D01*
X129829761Y-32981476D01*
X129877380Y-32886238D01*
X129877380Y-32695761D01*
X129829761Y-32600523D01*
X129782142Y-32552904D01*
X129686904Y-32505285D01*
X129448809Y-32505285D01*
X129353571Y-32552904D01*
X129305952Y-32600523D01*
X129258333Y-32695761D01*
X129258333Y-32886238D01*
X129305952Y-32981476D01*
X129353571Y-33029095D01*
X129448809Y-33076714D01*
%TO.C,D5*%
X106777380Y-31552904D02*
X105777380Y-31552904D01*
X105777380Y-31314809D01*
X105825000Y-31171952D01*
X105920238Y-31076714D01*
X106015476Y-31029095D01*
X106205952Y-30981476D01*
X106348809Y-30981476D01*
X106539285Y-31029095D01*
X106634523Y-31076714D01*
X106729761Y-31171952D01*
X106777380Y-31314809D01*
X106777380Y-31552904D01*
X110877380Y-32029095D02*
X109877380Y-32029095D01*
X109877380Y-31791000D01*
X109925000Y-31648142D01*
X110020238Y-31552904D01*
X110115476Y-31505285D01*
X110305952Y-31457666D01*
X110448809Y-31457666D01*
X110639285Y-31505285D01*
X110734523Y-31552904D01*
X110829761Y-31648142D01*
X110877380Y-31791000D01*
X110877380Y-32029095D01*
X109877380Y-30552904D02*
X109877380Y-31029095D01*
X110353571Y-31076714D01*
X110305952Y-31029095D01*
X110258333Y-30933857D01*
X110258333Y-30695761D01*
X110305952Y-30600523D01*
X110353571Y-30552904D01*
X110448809Y-30505285D01*
X110686904Y-30505285D01*
X110782142Y-30552904D01*
X110829761Y-30600523D01*
X110877380Y-30695761D01*
X110877380Y-30933857D01*
X110829761Y-31029095D01*
X110782142Y-31076714D01*
%TO.C,D4*%
X87777380Y-21552904D02*
X86777380Y-21552904D01*
X86777380Y-21314809D01*
X86825000Y-21171952D01*
X86920238Y-21076714D01*
X87015476Y-21029095D01*
X87205952Y-20981476D01*
X87348809Y-20981476D01*
X87539285Y-21029095D01*
X87634523Y-21076714D01*
X87729761Y-21171952D01*
X87777380Y-21314809D01*
X87777380Y-21552904D01*
X91877380Y-22029095D02*
X90877380Y-22029095D01*
X90877380Y-21791000D01*
X90925000Y-21648142D01*
X91020238Y-21552904D01*
X91115476Y-21505285D01*
X91305952Y-21457666D01*
X91448809Y-21457666D01*
X91639285Y-21505285D01*
X91734523Y-21552904D01*
X91829761Y-21648142D01*
X91877380Y-21791000D01*
X91877380Y-22029095D01*
X91210714Y-20600523D02*
X91877380Y-20600523D01*
X90829761Y-20838619D02*
X91544047Y-21076714D01*
X91544047Y-20457666D01*
%TO.C,D3*%
X68777380Y-24552904D02*
X67777380Y-24552904D01*
X67777380Y-24314809D01*
X67825000Y-24171952D01*
X67920238Y-24076714D01*
X68015476Y-24029095D01*
X68205952Y-23981476D01*
X68348809Y-23981476D01*
X68539285Y-24029095D01*
X68634523Y-24076714D01*
X68729761Y-24171952D01*
X68777380Y-24314809D01*
X68777380Y-24552904D01*
X72877380Y-25029095D02*
X71877380Y-25029095D01*
X71877380Y-24791000D01*
X71925000Y-24648142D01*
X72020238Y-24552904D01*
X72115476Y-24505285D01*
X72305952Y-24457666D01*
X72448809Y-24457666D01*
X72639285Y-24505285D01*
X72734523Y-24552904D01*
X72829761Y-24648142D01*
X72877380Y-24791000D01*
X72877380Y-25029095D01*
X71877380Y-24124333D02*
X71877380Y-23505285D01*
X72258333Y-23838619D01*
X72258333Y-23695761D01*
X72305952Y-23600523D01*
X72353571Y-23552904D01*
X72448809Y-23505285D01*
X72686904Y-23505285D01*
X72782142Y-23552904D01*
X72829761Y-23600523D01*
X72877380Y-23695761D01*
X72877380Y-23981476D01*
X72829761Y-24076714D01*
X72782142Y-24124333D01*
%TO.C,D2*%
X49782380Y-40161904D02*
X48782380Y-40161904D01*
X48782380Y-39923809D01*
X48830000Y-39780952D01*
X48925238Y-39685714D01*
X49020476Y-39638095D01*
X49210952Y-39590476D01*
X49353809Y-39590476D01*
X49544285Y-39638095D01*
X49639523Y-39685714D01*
X49734761Y-39780952D01*
X49782380Y-39923809D01*
X49782380Y-40161904D01*
X53882380Y-40638095D02*
X52882380Y-40638095D01*
X52882380Y-40400000D01*
X52930000Y-40257142D01*
X53025238Y-40161904D01*
X53120476Y-40114285D01*
X53310952Y-40066666D01*
X53453809Y-40066666D01*
X53644285Y-40114285D01*
X53739523Y-40161904D01*
X53834761Y-40257142D01*
X53882380Y-40400000D01*
X53882380Y-40638095D01*
X52977619Y-39685714D02*
X52930000Y-39638095D01*
X52882380Y-39542857D01*
X52882380Y-39304761D01*
X52930000Y-39209523D01*
X52977619Y-39161904D01*
X53072857Y-39114285D01*
X53168095Y-39114285D01*
X53310952Y-39161904D01*
X53882380Y-39733333D01*
X53882380Y-39114285D01*
%TO.C,D1*%
X30777380Y-41402904D02*
X29777380Y-41402904D01*
X29777380Y-41164809D01*
X29825000Y-41021952D01*
X29920238Y-40926714D01*
X30015476Y-40879095D01*
X30205952Y-40831476D01*
X30348809Y-40831476D01*
X30539285Y-40879095D01*
X30634523Y-40926714D01*
X30729761Y-41021952D01*
X30777380Y-41164809D01*
X30777380Y-41402904D01*
X34877380Y-41879095D02*
X33877380Y-41879095D01*
X33877380Y-41641000D01*
X33925000Y-41498142D01*
X34020238Y-41402904D01*
X34115476Y-41355285D01*
X34305952Y-41307666D01*
X34448809Y-41307666D01*
X34639285Y-41355285D01*
X34734523Y-41402904D01*
X34829761Y-41498142D01*
X34877380Y-41641000D01*
X34877380Y-41879095D01*
X34877380Y-40355285D02*
X34877380Y-40926714D01*
X34877380Y-40641000D02*
X33877380Y-40641000D01*
X34020238Y-40736238D01*
X34115476Y-40831476D01*
X34163095Y-40926714D01*
%TO.C,H1*%
X124601428Y-16052380D02*
X124601428Y-15052380D01*
X124601428Y-15528571D02*
X125172857Y-15528571D01*
X125172857Y-16052380D02*
X125172857Y-15052380D01*
X125791904Y-16052380D02*
X125696666Y-16004761D01*
X125649047Y-15957142D01*
X125601428Y-15861904D01*
X125601428Y-15576190D01*
X125649047Y-15480952D01*
X125696666Y-15433333D01*
X125791904Y-15385714D01*
X125934761Y-15385714D01*
X126030000Y-15433333D01*
X126077619Y-15480952D01*
X126125238Y-15576190D01*
X126125238Y-15861904D01*
X126077619Y-15957142D01*
X126030000Y-16004761D01*
X125934761Y-16052380D01*
X125791904Y-16052380D01*
X126696666Y-16052380D02*
X126601428Y-16004761D01*
X126553809Y-15909523D01*
X126553809Y-15052380D01*
X127458571Y-16004761D02*
X127363333Y-16052380D01*
X127172857Y-16052380D01*
X127077619Y-16004761D01*
X127030000Y-15909523D01*
X127030000Y-15528571D01*
X127077619Y-15433333D01*
X127172857Y-15385714D01*
X127363333Y-15385714D01*
X127458571Y-15433333D01*
X127506190Y-15528571D01*
X127506190Y-15623809D01*
X127030000Y-15719047D01*
X125568095Y-12852380D02*
X125568095Y-11852380D01*
X125568095Y-12328571D02*
X126139523Y-12328571D01*
X126139523Y-12852380D02*
X126139523Y-11852380D01*
X127139523Y-12852380D02*
X126568095Y-12852380D01*
X126853809Y-12852380D02*
X126853809Y-11852380D01*
X126758571Y-11995238D01*
X126663333Y-12090476D01*
X126568095Y-12138095D01*
%TO.C,J3*%
D13*
X140905238Y-38504761D02*
X141286190Y-38504761D01*
X141476666Y-38600000D01*
X141667142Y-38790476D01*
X141762380Y-39171428D01*
X141762380Y-39838095D01*
X141667142Y-40219047D01*
X141476666Y-40409523D01*
X141286190Y-40504761D01*
X140905238Y-40504761D01*
X140714761Y-40409523D01*
X140524285Y-40219047D01*
X140429047Y-39838095D01*
X140429047Y-39171428D01*
X140524285Y-38790476D01*
X140714761Y-38600000D01*
X140905238Y-38504761D01*
X143571904Y-40504761D02*
X142619523Y-40504761D01*
X142619523Y-38504761D01*
X144238571Y-39457142D02*
X144905238Y-39457142D01*
X145190952Y-40504761D02*
X144238571Y-40504761D01*
X144238571Y-38504761D01*
X145190952Y-38504761D01*
X146048095Y-40504761D02*
X146048095Y-38504761D01*
X146524285Y-38504761D01*
X146810000Y-38600000D01*
X147000476Y-38790476D01*
X147095714Y-38980952D01*
X147190952Y-39361904D01*
X147190952Y-39647619D01*
X147095714Y-40028571D01*
X147000476Y-40219047D01*
X146810000Y-40409523D01*
X146524285Y-40504761D01*
X146048095Y-40504761D01*
%TO.C,16mhz1*%
D11*
X153027739Y-79752439D02*
X153027739Y-79819783D01*
X152960395Y-79954470D01*
X152893052Y-80021813D01*
X152758365Y-80089157D01*
X152623678Y-80089157D01*
X152522663Y-80055485D01*
X152354304Y-79954470D01*
X152253289Y-79853455D01*
X152152273Y-79685096D01*
X152118602Y-79584081D01*
X152118602Y-79449394D01*
X152185945Y-79314707D01*
X152253289Y-79247363D01*
X152387976Y-79180020D01*
X152455319Y-79180020D01*
X153398128Y-79516737D02*
X152926724Y-79045333D01*
X153061411Y-79180020D02*
X153027739Y-79079004D01*
X153027739Y-79011661D01*
X153061411Y-78910646D01*
X153128754Y-78843302D01*
X153297113Y-78674943D02*
X153936876Y-78977989D01*
X153633830Y-78338226D02*
X153936876Y-78977989D01*
X154037892Y-79213691D01*
X154037892Y-79281035D01*
X154004220Y-79382050D01*
X154307266Y-78540256D02*
X154408281Y-78506585D01*
X154542968Y-78371898D01*
X154576640Y-78270882D01*
X154542968Y-78169867D01*
X154509296Y-78136195D01*
X154408281Y-78102523D01*
X154307266Y-78136195D01*
X154206250Y-78237211D01*
X154105235Y-78270882D01*
X154004220Y-78237211D01*
X153970548Y-78203539D01*
X153936876Y-78102523D01*
X153970548Y-78001508D01*
X154071563Y-77900493D01*
X154172579Y-77866821D01*
X154374609Y-77597447D02*
X154643983Y-77328073D01*
X154239922Y-77260730D02*
X154846014Y-77866821D01*
X154947029Y-77900493D01*
X155048044Y-77866821D01*
X155115388Y-77799478D01*
X155654136Y-77260730D02*
X155283746Y-76890340D01*
X155182731Y-76856669D01*
X155081716Y-76890340D01*
X154947029Y-77025027D01*
X154913357Y-77126043D01*
X155620464Y-77227058D02*
X155586792Y-77328073D01*
X155418433Y-77496432D01*
X155317418Y-77530104D01*
X155216403Y-77496432D01*
X155149059Y-77429088D01*
X155115388Y-77328073D01*
X155149059Y-77227058D01*
X155317418Y-77058699D01*
X155351090Y-76957684D01*
X156091868Y-76822997D02*
X155990853Y-76856669D01*
X155889838Y-76822997D01*
X155283746Y-76216905D01*
X150316322Y-77613441D02*
X149912261Y-78017502D01*
X150114291Y-77815471D02*
X149407184Y-77108364D01*
X149440856Y-77276723D01*
X149440856Y-77411410D01*
X149407184Y-77512425D01*
X150215306Y-76300242D02*
X150080619Y-76434929D01*
X150046948Y-76535945D01*
X150046948Y-76603288D01*
X150080619Y-76771647D01*
X150181635Y-76940006D01*
X150451009Y-77209380D01*
X150552024Y-77243051D01*
X150619367Y-77243051D01*
X150720383Y-77209380D01*
X150855070Y-77074693D01*
X150888741Y-76973677D01*
X150888741Y-76906334D01*
X150855070Y-76805319D01*
X150686711Y-76636960D01*
X150585696Y-76603288D01*
X150518352Y-76603288D01*
X150417337Y-76636960D01*
X150282650Y-76771647D01*
X150248978Y-76872662D01*
X150248978Y-76940006D01*
X150282650Y-77041021D01*
X151292802Y-76636960D02*
X150821398Y-76165555D01*
X150888741Y-76232899D02*
X150888741Y-76165555D01*
X150922413Y-76064540D01*
X151023428Y-75963525D01*
X151124444Y-75929853D01*
X151225459Y-75963525D01*
X151595848Y-76333914D01*
X151225459Y-75963525D02*
X151191787Y-75862510D01*
X151225459Y-75761494D01*
X151326474Y-75660479D01*
X151427489Y-75626807D01*
X151528505Y-75660479D01*
X151898894Y-76030868D01*
X152235611Y-75694151D02*
X151528505Y-74987044D01*
X152538657Y-75391105D02*
X152168268Y-75020716D01*
X152067253Y-74987044D01*
X151966237Y-75020716D01*
X151865222Y-75121731D01*
X151831550Y-75222746D01*
X151831550Y-75290090D01*
X152336627Y-74650327D02*
X152707016Y-74279937D01*
X152808031Y-75121731D01*
X153178420Y-74751342D01*
X153818184Y-74111579D02*
X153414123Y-74515640D01*
X153616153Y-74313609D02*
X152909046Y-73606502D01*
X152942718Y-73774861D01*
X152942718Y-73909548D01*
X152909046Y-74010563D01*
%TO.C,SW18*%
X115963095Y-65640761D02*
X116105952Y-65688380D01*
X116344047Y-65688380D01*
X116439285Y-65640761D01*
X116486904Y-65593142D01*
X116534523Y-65497904D01*
X116534523Y-65402666D01*
X116486904Y-65307428D01*
X116439285Y-65259809D01*
X116344047Y-65212190D01*
X116153571Y-65164571D01*
X116058333Y-65116952D01*
X116010714Y-65069333D01*
X115963095Y-64974095D01*
X115963095Y-64878857D01*
X116010714Y-64783619D01*
X116058333Y-64736000D01*
X116153571Y-64688380D01*
X116391666Y-64688380D01*
X116534523Y-64736000D01*
X116867857Y-64688380D02*
X117105952Y-65688380D01*
X117296428Y-64974095D01*
X117486904Y-65688380D01*
X117725000Y-64688380D01*
X117867857Y-65783619D02*
X118629761Y-65783619D01*
X118867857Y-65688380D02*
X118867857Y-64688380D01*
X119248809Y-64688380D01*
X119344047Y-64736000D01*
X119391666Y-64783619D01*
X119439285Y-64878857D01*
X119439285Y-65021714D01*
X119391666Y-65116952D01*
X119344047Y-65164571D01*
X119248809Y-65212190D01*
X118867857Y-65212190D01*
X119867857Y-64688380D02*
X119867857Y-65497904D01*
X119915476Y-65593142D01*
X119963095Y-65640761D01*
X120058333Y-65688380D01*
X120248809Y-65688380D01*
X120344047Y-65640761D01*
X120391666Y-65593142D01*
X120439285Y-65497904D01*
X120439285Y-64688380D01*
X120867857Y-65640761D02*
X121010714Y-65688380D01*
X121248809Y-65688380D01*
X121344047Y-65640761D01*
X121391666Y-65593142D01*
X121439285Y-65497904D01*
X121439285Y-65402666D01*
X121391666Y-65307428D01*
X121344047Y-65259809D01*
X121248809Y-65212190D01*
X121058333Y-65164571D01*
X120963095Y-65116952D01*
X120915476Y-65069333D01*
X120867857Y-64974095D01*
X120867857Y-64878857D01*
X120915476Y-64783619D01*
X120963095Y-64736000D01*
X121058333Y-64688380D01*
X121296428Y-64688380D01*
X121439285Y-64736000D01*
X121867857Y-65688380D02*
X121867857Y-64688380D01*
X121867857Y-65164571D02*
X122439285Y-65164571D01*
X122439285Y-65688380D02*
X122439285Y-64688380D01*
%TO.C,Boot1*%
X131938095Y-61554761D02*
X132080952Y-61602380D01*
X132319047Y-61602380D01*
X132414285Y-61554761D01*
X132461904Y-61507142D01*
X132509523Y-61411904D01*
X132509523Y-61316666D01*
X132461904Y-61221428D01*
X132414285Y-61173809D01*
X132319047Y-61126190D01*
X132128571Y-61078571D01*
X132033333Y-61030952D01*
X131985714Y-60983333D01*
X131938095Y-60888095D01*
X131938095Y-60792857D01*
X131985714Y-60697619D01*
X132033333Y-60650000D01*
X132128571Y-60602380D01*
X132366666Y-60602380D01*
X132509523Y-60650000D01*
X132842857Y-60602380D02*
X133080952Y-61602380D01*
X133271428Y-60888095D01*
X133461904Y-61602380D01*
X133700000Y-60602380D01*
X133842857Y-61697619D02*
X134604761Y-61697619D01*
X134842857Y-61602380D02*
X134842857Y-60602380D01*
X135223809Y-60602380D01*
X135319047Y-60650000D01*
X135366666Y-60697619D01*
X135414285Y-60792857D01*
X135414285Y-60935714D01*
X135366666Y-61030952D01*
X135319047Y-61078571D01*
X135223809Y-61126190D01*
X134842857Y-61126190D01*
X135842857Y-60602380D02*
X135842857Y-61411904D01*
X135890476Y-61507142D01*
X135938095Y-61554761D01*
X136033333Y-61602380D01*
X136223809Y-61602380D01*
X136319047Y-61554761D01*
X136366666Y-61507142D01*
X136414285Y-61411904D01*
X136414285Y-60602380D01*
X136842857Y-61554761D02*
X136985714Y-61602380D01*
X137223809Y-61602380D01*
X137319047Y-61554761D01*
X137366666Y-61507142D01*
X137414285Y-61411904D01*
X137414285Y-61316666D01*
X137366666Y-61221428D01*
X137319047Y-61173809D01*
X137223809Y-61126190D01*
X137033333Y-61078571D01*
X136938095Y-61030952D01*
X136890476Y-60983333D01*
X136842857Y-60888095D01*
X136842857Y-60792857D01*
X136890476Y-60697619D01*
X136938095Y-60650000D01*
X137033333Y-60602380D01*
X137271428Y-60602380D01*
X137414285Y-60650000D01*
X137842857Y-61602380D02*
X137842857Y-60602380D01*
X137842857Y-61078571D02*
X138414285Y-61078571D01*
X138414285Y-61602380D02*
X138414285Y-60602380D01*
X133604761Y-52878571D02*
X133747619Y-52926190D01*
X133795238Y-52973809D01*
X133842857Y-53069047D01*
X133842857Y-53211904D01*
X133795238Y-53307142D01*
X133747619Y-53354761D01*
X133652380Y-53402380D01*
X133271428Y-53402380D01*
X133271428Y-52402380D01*
X133604761Y-52402380D01*
X133700000Y-52450000D01*
X133747619Y-52497619D01*
X133795238Y-52592857D01*
X133795238Y-52688095D01*
X133747619Y-52783333D01*
X133700000Y-52830952D01*
X133604761Y-52878571D01*
X133271428Y-52878571D01*
X134414285Y-53402380D02*
X134319047Y-53354761D01*
X134271428Y-53307142D01*
X134223809Y-53211904D01*
X134223809Y-52926190D01*
X134271428Y-52830952D01*
X134319047Y-52783333D01*
X134414285Y-52735714D01*
X134557142Y-52735714D01*
X134652380Y-52783333D01*
X134700000Y-52830952D01*
X134747619Y-52926190D01*
X134747619Y-53211904D01*
X134700000Y-53307142D01*
X134652380Y-53354761D01*
X134557142Y-53402380D01*
X134414285Y-53402380D01*
X135319047Y-53402380D02*
X135223809Y-53354761D01*
X135176190Y-53307142D01*
X135128571Y-53211904D01*
X135128571Y-52926190D01*
X135176190Y-52830952D01*
X135223809Y-52783333D01*
X135319047Y-52735714D01*
X135461904Y-52735714D01*
X135557142Y-52783333D01*
X135604761Y-52830952D01*
X135652380Y-52926190D01*
X135652380Y-53211904D01*
X135604761Y-53307142D01*
X135557142Y-53354761D01*
X135461904Y-53402380D01*
X135319047Y-53402380D01*
X135938095Y-52735714D02*
X136319047Y-52735714D01*
X136080952Y-52402380D02*
X136080952Y-53259523D01*
X136128571Y-53354761D01*
X136223809Y-53402380D01*
X136319047Y-53402380D01*
X137176190Y-53402380D02*
X136604761Y-53402380D01*
X136890476Y-53402380D02*
X136890476Y-52402380D01*
X136795238Y-52545238D01*
X136700000Y-52640476D01*
X136604761Y-52688095D01*
%TO.C,C5*%
X130904761Y-70272380D02*
X130333333Y-70272380D01*
X130619047Y-70272380D02*
X130619047Y-69272380D01*
X130523809Y-69415238D01*
X130428571Y-69510476D01*
X130333333Y-69558095D01*
X131761904Y-69605714D02*
X131761904Y-70272380D01*
X131333333Y-69605714D02*
X131333333Y-70129523D01*
X131380952Y-70224761D01*
X131476190Y-70272380D01*
X131619047Y-70272380D01*
X131714285Y-70224761D01*
X131761904Y-70177142D01*
X132571428Y-69748571D02*
X132238095Y-69748571D01*
X132238095Y-70272380D02*
X132238095Y-69272380D01*
X132714285Y-69272380D01*
D14*
X131416666Y-71678571D02*
X131392857Y-71702380D01*
X131321428Y-71726190D01*
X131273809Y-71726190D01*
X131202380Y-71702380D01*
X131154761Y-71654761D01*
X131130952Y-71607142D01*
X131107142Y-71511904D01*
X131107142Y-71440476D01*
X131130952Y-71345238D01*
X131154761Y-71297619D01*
X131202380Y-71250000D01*
X131273809Y-71226190D01*
X131321428Y-71226190D01*
X131392857Y-71250000D01*
X131416666Y-71273809D01*
X131869047Y-71226190D02*
X131630952Y-71226190D01*
X131607142Y-71464285D01*
X131630952Y-71440476D01*
X131678571Y-71416666D01*
X131797619Y-71416666D01*
X131845238Y-71440476D01*
X131869047Y-71464285D01*
X131892857Y-71511904D01*
X131892857Y-71630952D01*
X131869047Y-71678571D01*
X131845238Y-71702380D01*
X131797619Y-71726190D01*
X131678571Y-71726190D01*
X131630952Y-71702380D01*
X131607142Y-71678571D01*
%TO.C,H1*%
D11*
X130571428Y-17202380D02*
X130571428Y-16202380D01*
X130571428Y-16678571D02*
X131142857Y-16678571D01*
X131142857Y-17202380D02*
X131142857Y-16202380D01*
X131761904Y-17202380D02*
X131666666Y-17154761D01*
X131619047Y-17107142D01*
X131571428Y-17011904D01*
X131571428Y-16726190D01*
X131619047Y-16630952D01*
X131666666Y-16583333D01*
X131761904Y-16535714D01*
X131904761Y-16535714D01*
X132000000Y-16583333D01*
X132047619Y-16630952D01*
X132095238Y-16726190D01*
X132095238Y-17011904D01*
X132047619Y-17107142D01*
X132000000Y-17154761D01*
X131904761Y-17202380D01*
X131761904Y-17202380D01*
X132666666Y-17202380D02*
X132571428Y-17154761D01*
X132523809Y-17059523D01*
X132523809Y-16202380D01*
X133428571Y-17154761D02*
X133333333Y-17202380D01*
X133142857Y-17202380D01*
X133047619Y-17154761D01*
X133000000Y-17059523D01*
X133000000Y-16678571D01*
X133047619Y-16583333D01*
X133142857Y-16535714D01*
X133333333Y-16535714D01*
X133428571Y-16583333D01*
X133476190Y-16678571D01*
X133476190Y-16773809D01*
X133000000Y-16869047D01*
X131538095Y-14002380D02*
X131538095Y-13002380D01*
X131538095Y-13478571D02*
X132109523Y-13478571D01*
X132109523Y-14002380D02*
X132109523Y-13002380D01*
X133109523Y-14002380D02*
X132538095Y-14002380D01*
X132823809Y-14002380D02*
X132823809Y-13002380D01*
X132728571Y-13145238D01*
X132633333Y-13240476D01*
X132538095Y-13288095D01*
X154571428Y-23622380D02*
X154571428Y-22622380D01*
X154571428Y-23098571D02*
X155142857Y-23098571D01*
X155142857Y-23622380D02*
X155142857Y-22622380D01*
X155761904Y-23622380D02*
X155666666Y-23574761D01*
X155619047Y-23527142D01*
X155571428Y-23431904D01*
X155571428Y-23146190D01*
X155619047Y-23050952D01*
X155666666Y-23003333D01*
X155761904Y-22955714D01*
X155904761Y-22955714D01*
X156000000Y-23003333D01*
X156047619Y-23050952D01*
X156095238Y-23146190D01*
X156095238Y-23431904D01*
X156047619Y-23527142D01*
X156000000Y-23574761D01*
X155904761Y-23622380D01*
X155761904Y-23622380D01*
X156666666Y-23622380D02*
X156571428Y-23574761D01*
X156523809Y-23479523D01*
X156523809Y-22622380D01*
X157428571Y-23574761D02*
X157333333Y-23622380D01*
X157142857Y-23622380D01*
X157047619Y-23574761D01*
X157000000Y-23479523D01*
X157000000Y-23098571D01*
X157047619Y-23003333D01*
X157142857Y-22955714D01*
X157333333Y-22955714D01*
X157428571Y-23003333D01*
X157476190Y-23098571D01*
X157476190Y-23193809D01*
X157000000Y-23289047D01*
X155538095Y-20422380D02*
X155538095Y-19422380D01*
X155538095Y-19898571D02*
X156109523Y-19898571D01*
X156109523Y-20422380D02*
X156109523Y-19422380D01*
X157109523Y-20422380D02*
X156538095Y-20422380D01*
X156823809Y-20422380D02*
X156823809Y-19422380D01*
X156728571Y-19565238D01*
X156633333Y-19660476D01*
X156538095Y-19708095D01*
X32521428Y-75102380D02*
X32521428Y-74102380D01*
X32521428Y-74578571D02*
X33092857Y-74578571D01*
X33092857Y-75102380D02*
X33092857Y-74102380D01*
X33711904Y-75102380D02*
X33616666Y-75054761D01*
X33569047Y-75007142D01*
X33521428Y-74911904D01*
X33521428Y-74626190D01*
X33569047Y-74530952D01*
X33616666Y-74483333D01*
X33711904Y-74435714D01*
X33854761Y-74435714D01*
X33950000Y-74483333D01*
X33997619Y-74530952D01*
X34045238Y-74626190D01*
X34045238Y-74911904D01*
X33997619Y-75007142D01*
X33950000Y-75054761D01*
X33854761Y-75102380D01*
X33711904Y-75102380D01*
X34616666Y-75102380D02*
X34521428Y-75054761D01*
X34473809Y-74959523D01*
X34473809Y-74102380D01*
X35378571Y-75054761D02*
X35283333Y-75102380D01*
X35092857Y-75102380D01*
X34997619Y-75054761D01*
X34950000Y-74959523D01*
X34950000Y-74578571D01*
X34997619Y-74483333D01*
X35092857Y-74435714D01*
X35283333Y-74435714D01*
X35378571Y-74483333D01*
X35426190Y-74578571D01*
X35426190Y-74673809D01*
X34950000Y-74769047D01*
X33488095Y-71902380D02*
X33488095Y-70902380D01*
X33488095Y-71378571D02*
X34059523Y-71378571D01*
X34059523Y-71902380D02*
X34059523Y-70902380D01*
X35059523Y-71902380D02*
X34488095Y-71902380D01*
X34773809Y-71902380D02*
X34773809Y-70902380D01*
X34678571Y-71045238D01*
X34583333Y-71140476D01*
X34488095Y-71188095D01*
%TO.C,H6*%
X70831428Y-36892380D02*
X70831428Y-35892380D01*
X70831428Y-36368571D02*
X71402857Y-36368571D01*
X71402857Y-36892380D02*
X71402857Y-35892380D01*
X72021904Y-36892380D02*
X71926666Y-36844761D01*
X71879047Y-36797142D01*
X71831428Y-36701904D01*
X71831428Y-36416190D01*
X71879047Y-36320952D01*
X71926666Y-36273333D01*
X72021904Y-36225714D01*
X72164761Y-36225714D01*
X72260000Y-36273333D01*
X72307619Y-36320952D01*
X72355238Y-36416190D01*
X72355238Y-36701904D01*
X72307619Y-36797142D01*
X72260000Y-36844761D01*
X72164761Y-36892380D01*
X72021904Y-36892380D01*
X72926666Y-36892380D02*
X72831428Y-36844761D01*
X72783809Y-36749523D01*
X72783809Y-35892380D01*
X73688571Y-36844761D02*
X73593333Y-36892380D01*
X73402857Y-36892380D01*
X73307619Y-36844761D01*
X73260000Y-36749523D01*
X73260000Y-36368571D01*
X73307619Y-36273333D01*
X73402857Y-36225714D01*
X73593333Y-36225714D01*
X73688571Y-36273333D01*
X73736190Y-36368571D01*
X73736190Y-36463809D01*
X73260000Y-36559047D01*
X71798095Y-33692380D02*
X71798095Y-32692380D01*
X71798095Y-33168571D02*
X72369523Y-33168571D01*
X72369523Y-33692380D02*
X72369523Y-32692380D01*
X73274285Y-32692380D02*
X73083809Y-32692380D01*
X72988571Y-32740000D01*
X72940952Y-32787619D01*
X72845714Y-32930476D01*
X72798095Y-33120952D01*
X72798095Y-33501904D01*
X72845714Y-33597142D01*
X72893333Y-33644761D01*
X72988571Y-33692380D01*
X73179047Y-33692380D01*
X73274285Y-33644761D01*
X73321904Y-33597142D01*
X73369523Y-33501904D01*
X73369523Y-33263809D01*
X73321904Y-33168571D01*
X73274285Y-33120952D01*
X73179047Y-33073333D01*
X72988571Y-33073333D01*
X72893333Y-33120952D01*
X72845714Y-33168571D01*
X72798095Y-33263809D01*
%TO.C,H1*%
X109601428Y-124362380D02*
X109601428Y-123362380D01*
X109601428Y-123838571D02*
X110172857Y-123838571D01*
X110172857Y-124362380D02*
X110172857Y-123362380D01*
X110791904Y-124362380D02*
X110696666Y-124314761D01*
X110649047Y-124267142D01*
X110601428Y-124171904D01*
X110601428Y-123886190D01*
X110649047Y-123790952D01*
X110696666Y-123743333D01*
X110791904Y-123695714D01*
X110934761Y-123695714D01*
X111030000Y-123743333D01*
X111077619Y-123790952D01*
X111125238Y-123886190D01*
X111125238Y-124171904D01*
X111077619Y-124267142D01*
X111030000Y-124314761D01*
X110934761Y-124362380D01*
X110791904Y-124362380D01*
X111696666Y-124362380D02*
X111601428Y-124314761D01*
X111553809Y-124219523D01*
X111553809Y-123362380D01*
X112458571Y-124314761D02*
X112363333Y-124362380D01*
X112172857Y-124362380D01*
X112077619Y-124314761D01*
X112030000Y-124219523D01*
X112030000Y-123838571D01*
X112077619Y-123743333D01*
X112172857Y-123695714D01*
X112363333Y-123695714D01*
X112458571Y-123743333D01*
X112506190Y-123838571D01*
X112506190Y-123933809D01*
X112030000Y-124029047D01*
X110538095Y-121162380D02*
X110538095Y-120162380D01*
X110538095Y-120638571D02*
X111109523Y-120638571D01*
X111109523Y-121162380D02*
X111109523Y-120162380D01*
X112109523Y-121162380D02*
X111538095Y-121162380D01*
X111823809Y-121162380D02*
X111823809Y-120162380D01*
X111728571Y-120305238D01*
X111633333Y-120400476D01*
X111538095Y-120448095D01*
X13446256Y-94568910D02*
X13446256Y-93568910D01*
X13446256Y-94045101D02*
X14017685Y-94045101D01*
X14017685Y-94568910D02*
X14017685Y-93568910D01*
X14636732Y-94568910D02*
X14541494Y-94521291D01*
X14493875Y-94473672D01*
X14446256Y-94378434D01*
X14446256Y-94092720D01*
X14493875Y-93997482D01*
X14541494Y-93949863D01*
X14636732Y-93902244D01*
X14779589Y-93902244D01*
X14874828Y-93949863D01*
X14922447Y-93997482D01*
X14970066Y-94092720D01*
X14970066Y-94378434D01*
X14922447Y-94473672D01*
X14874828Y-94521291D01*
X14779589Y-94568910D01*
X14636732Y-94568910D01*
X15541494Y-94568910D02*
X15446256Y-94521291D01*
X15398637Y-94426053D01*
X15398637Y-93568910D01*
X16303399Y-94521291D02*
X16208161Y-94568910D01*
X16017685Y-94568910D01*
X15922447Y-94521291D01*
X15874828Y-94426053D01*
X15874828Y-94045101D01*
X15922447Y-93949863D01*
X16017685Y-93902244D01*
X16208161Y-93902244D01*
X16303399Y-93949863D01*
X16351018Y-94045101D01*
X16351018Y-94140339D01*
X15874828Y-94235577D01*
X14412923Y-91368910D02*
X14412923Y-90368910D01*
X14412923Y-90845101D02*
X14984351Y-90845101D01*
X14984351Y-91368910D02*
X14984351Y-90368910D01*
X15984351Y-91368910D02*
X15412923Y-91368910D01*
X15698637Y-91368910D02*
X15698637Y-90368910D01*
X15603399Y-90511768D01*
X15508161Y-90607006D01*
X15412923Y-90654625D01*
X12991428Y-17712380D02*
X12991428Y-16712380D01*
X12991428Y-17188571D02*
X13562857Y-17188571D01*
X13562857Y-17712380D02*
X13562857Y-16712380D01*
X14181904Y-17712380D02*
X14086666Y-17664761D01*
X14039047Y-17617142D01*
X13991428Y-17521904D01*
X13991428Y-17236190D01*
X14039047Y-17140952D01*
X14086666Y-17093333D01*
X14181904Y-17045714D01*
X14324761Y-17045714D01*
X14420000Y-17093333D01*
X14467619Y-17140952D01*
X14515238Y-17236190D01*
X14515238Y-17521904D01*
X14467619Y-17617142D01*
X14420000Y-17664761D01*
X14324761Y-17712380D01*
X14181904Y-17712380D01*
X15086666Y-17712380D02*
X14991428Y-17664761D01*
X14943809Y-17569523D01*
X14943809Y-16712380D01*
X15848571Y-17664761D02*
X15753333Y-17712380D01*
X15562857Y-17712380D01*
X15467619Y-17664761D01*
X15420000Y-17569523D01*
X15420000Y-17188571D01*
X15467619Y-17093333D01*
X15562857Y-17045714D01*
X15753333Y-17045714D01*
X15848571Y-17093333D01*
X15896190Y-17188571D01*
X15896190Y-17283809D01*
X15420000Y-17379047D01*
X13958095Y-14512380D02*
X13958095Y-13512380D01*
X13958095Y-13988571D02*
X14529523Y-13988571D01*
X14529523Y-14512380D02*
X14529523Y-13512380D01*
X15529523Y-14512380D02*
X14958095Y-14512380D01*
X15243809Y-14512380D02*
X15243809Y-13512380D01*
X15148571Y-13655238D01*
X15053333Y-13750476D01*
X14958095Y-13798095D01*
X76141428Y-11042380D02*
X76141428Y-10042380D01*
X76141428Y-10518571D02*
X76712857Y-10518571D01*
X76712857Y-11042380D02*
X76712857Y-10042380D01*
X77331904Y-11042380D02*
X77236666Y-10994761D01*
X77189047Y-10947142D01*
X77141428Y-10851904D01*
X77141428Y-10566190D01*
X77189047Y-10470952D01*
X77236666Y-10423333D01*
X77331904Y-10375714D01*
X77474761Y-10375714D01*
X77570000Y-10423333D01*
X77617619Y-10470952D01*
X77665238Y-10566190D01*
X77665238Y-10851904D01*
X77617619Y-10947142D01*
X77570000Y-10994761D01*
X77474761Y-11042380D01*
X77331904Y-11042380D01*
X78236666Y-11042380D02*
X78141428Y-10994761D01*
X78093809Y-10899523D01*
X78093809Y-10042380D01*
X78998571Y-10994761D02*
X78903333Y-11042380D01*
X78712857Y-11042380D01*
X78617619Y-10994761D01*
X78570000Y-10899523D01*
X78570000Y-10518571D01*
X78617619Y-10423333D01*
X78712857Y-10375714D01*
X78903333Y-10375714D01*
X78998571Y-10423333D01*
X79046190Y-10518571D01*
X79046190Y-10613809D01*
X78570000Y-10709047D01*
X77108095Y-7832380D02*
X77108095Y-6832380D01*
X77108095Y-7308571D02*
X77679523Y-7308571D01*
X77679523Y-7832380D02*
X77679523Y-6832380D01*
X78679523Y-7832380D02*
X78108095Y-7832380D01*
X78393809Y-7832380D02*
X78393809Y-6832380D01*
X78298571Y-6975238D01*
X78203333Y-7070476D01*
X78108095Y-7118095D01*
%TO.C,H10*%
X79758062Y-105838790D02*
X79758062Y-104838790D01*
X79758062Y-105314981D02*
X80329491Y-105314981D01*
X80329491Y-105838790D02*
X80329491Y-104838790D01*
X80948538Y-105838790D02*
X80853300Y-105791171D01*
X80805681Y-105743552D01*
X80758062Y-105648314D01*
X80758062Y-105362600D01*
X80805681Y-105267362D01*
X80853300Y-105219743D01*
X80948538Y-105172124D01*
X81091395Y-105172124D01*
X81186634Y-105219743D01*
X81234253Y-105267362D01*
X81281872Y-105362600D01*
X81281872Y-105648314D01*
X81234253Y-105743552D01*
X81186634Y-105791171D01*
X81091395Y-105838790D01*
X80948538Y-105838790D01*
X81853300Y-105838790D02*
X81758062Y-105791171D01*
X81710443Y-105695933D01*
X81710443Y-104838790D01*
X82615205Y-105791171D02*
X82519967Y-105838790D01*
X82329491Y-105838790D01*
X82234253Y-105791171D01*
X82186634Y-105695933D01*
X82186634Y-105314981D01*
X82234253Y-105219743D01*
X82329491Y-105172124D01*
X82519967Y-105172124D01*
X82615205Y-105219743D01*
X82662824Y-105314981D01*
X82662824Y-105410219D01*
X82186634Y-105505457D01*
X79667291Y-102920037D02*
X79667291Y-101920037D01*
X79667291Y-102396228D02*
X80238720Y-102396228D01*
X80238720Y-102920037D02*
X80238720Y-101920037D01*
X81238720Y-102920037D02*
X80667291Y-102920037D01*
X80953006Y-102920037D02*
X80953006Y-101920037D01*
X80857767Y-102062895D01*
X80762529Y-102158133D01*
X80667291Y-102205752D01*
X81857767Y-101920037D02*
X81953006Y-101920037D01*
X82048244Y-101967657D01*
X82095863Y-102015276D01*
X82143482Y-102110514D01*
X82191101Y-102300990D01*
X82191101Y-102539085D01*
X82143482Y-102729561D01*
X82095863Y-102824799D01*
X82048244Y-102872418D01*
X81953006Y-102920037D01*
X81857767Y-102920037D01*
X81762529Y-102872418D01*
X81714910Y-102824799D01*
X81667291Y-102729561D01*
X81619672Y-102539085D01*
X81619672Y-102300990D01*
X81667291Y-102110514D01*
X81714910Y-102015276D01*
X81762529Y-101967657D01*
X81857767Y-101920037D01*
%TO.C,H9*%
X165951428Y-134342380D02*
X165951428Y-133342380D01*
X165951428Y-133818571D02*
X166522857Y-133818571D01*
X166522857Y-134342380D02*
X166522857Y-133342380D01*
X167141904Y-134342380D02*
X167046666Y-134294761D01*
X166999047Y-134247142D01*
X166951428Y-134151904D01*
X166951428Y-133866190D01*
X166999047Y-133770952D01*
X167046666Y-133723333D01*
X167141904Y-133675714D01*
X167284761Y-133675714D01*
X167380000Y-133723333D01*
X167427619Y-133770952D01*
X167475238Y-133866190D01*
X167475238Y-134151904D01*
X167427619Y-134247142D01*
X167380000Y-134294761D01*
X167284761Y-134342380D01*
X167141904Y-134342380D01*
X168046666Y-134342380D02*
X167951428Y-134294761D01*
X167903809Y-134199523D01*
X167903809Y-133342380D01*
X168808571Y-134294761D02*
X168713333Y-134342380D01*
X168522857Y-134342380D01*
X168427619Y-134294761D01*
X168380000Y-134199523D01*
X168380000Y-133818571D01*
X168427619Y-133723333D01*
X168522857Y-133675714D01*
X168713333Y-133675714D01*
X168808571Y-133723333D01*
X168856190Y-133818571D01*
X168856190Y-133913809D01*
X168380000Y-134009047D01*
X166335595Y-131394880D02*
X166335595Y-130394880D01*
X166335595Y-130871071D02*
X166907023Y-130871071D01*
X166907023Y-131394880D02*
X166907023Y-130394880D01*
X167430833Y-131394880D02*
X167621309Y-131394880D01*
X167716547Y-131347261D01*
X167764166Y-131299642D01*
X167859404Y-131156785D01*
X167907023Y-130966309D01*
X167907023Y-130585357D01*
X167859404Y-130490119D01*
X167811785Y-130442500D01*
X167716547Y-130394880D01*
X167526071Y-130394880D01*
X167430833Y-130442500D01*
X167383214Y-130490119D01*
X167335595Y-130585357D01*
X167335595Y-130823452D01*
X167383214Y-130918690D01*
X167430833Y-130966309D01*
X167526071Y-131013928D01*
X167716547Y-131013928D01*
X167811785Y-130966309D01*
X167859404Y-130918690D01*
X167907023Y-130823452D01*
%TO.C,H8*%
X107491428Y-85682380D02*
X107491428Y-84682380D01*
X107491428Y-85158571D02*
X108062857Y-85158571D01*
X108062857Y-85682380D02*
X108062857Y-84682380D01*
X108681904Y-85682380D02*
X108586666Y-85634761D01*
X108539047Y-85587142D01*
X108491428Y-85491904D01*
X108491428Y-85206190D01*
X108539047Y-85110952D01*
X108586666Y-85063333D01*
X108681904Y-85015714D01*
X108824761Y-85015714D01*
X108920000Y-85063333D01*
X108967619Y-85110952D01*
X109015238Y-85206190D01*
X109015238Y-85491904D01*
X108967619Y-85587142D01*
X108920000Y-85634761D01*
X108824761Y-85682380D01*
X108681904Y-85682380D01*
X109586666Y-85682380D02*
X109491428Y-85634761D01*
X109443809Y-85539523D01*
X109443809Y-84682380D01*
X110348571Y-85634761D02*
X110253333Y-85682380D01*
X110062857Y-85682380D01*
X109967619Y-85634761D01*
X109920000Y-85539523D01*
X109920000Y-85158571D01*
X109967619Y-85063333D01*
X110062857Y-85015714D01*
X110253333Y-85015714D01*
X110348571Y-85063333D01*
X110396190Y-85158571D01*
X110396190Y-85253809D01*
X109920000Y-85349047D01*
X107875595Y-82734880D02*
X107875595Y-81734880D01*
X107875595Y-82211071D02*
X108447023Y-82211071D01*
X108447023Y-82734880D02*
X108447023Y-81734880D01*
X109066071Y-82163452D02*
X108970833Y-82115833D01*
X108923214Y-82068214D01*
X108875595Y-81972976D01*
X108875595Y-81925357D01*
X108923214Y-81830119D01*
X108970833Y-81782500D01*
X109066071Y-81734880D01*
X109256547Y-81734880D01*
X109351785Y-81782500D01*
X109399404Y-81830119D01*
X109447023Y-81925357D01*
X109447023Y-81972976D01*
X109399404Y-82068214D01*
X109351785Y-82115833D01*
X109256547Y-82163452D01*
X109066071Y-82163452D01*
X108970833Y-82211071D01*
X108923214Y-82258690D01*
X108875595Y-82353928D01*
X108875595Y-82544404D01*
X108923214Y-82639642D01*
X108970833Y-82687261D01*
X109066071Y-82734880D01*
X109256547Y-82734880D01*
X109351785Y-82687261D01*
X109399404Y-82639642D01*
X109447023Y-82544404D01*
X109447023Y-82353928D01*
X109399404Y-82258690D01*
X109351785Y-82211071D01*
X109256547Y-82163452D01*
%TO.C,H7*%
X108111428Y-46882380D02*
X108111428Y-45882380D01*
X108111428Y-46358571D02*
X108682857Y-46358571D01*
X108682857Y-46882380D02*
X108682857Y-45882380D01*
X109301904Y-46882380D02*
X109206666Y-46834761D01*
X109159047Y-46787142D01*
X109111428Y-46691904D01*
X109111428Y-46406190D01*
X109159047Y-46310952D01*
X109206666Y-46263333D01*
X109301904Y-46215714D01*
X109444761Y-46215714D01*
X109540000Y-46263333D01*
X109587619Y-46310952D01*
X109635238Y-46406190D01*
X109635238Y-46691904D01*
X109587619Y-46787142D01*
X109540000Y-46834761D01*
X109444761Y-46882380D01*
X109301904Y-46882380D01*
X110206666Y-46882380D02*
X110111428Y-46834761D01*
X110063809Y-46739523D01*
X110063809Y-45882380D01*
X110968571Y-46834761D02*
X110873333Y-46882380D01*
X110682857Y-46882380D01*
X110587619Y-46834761D01*
X110540000Y-46739523D01*
X110540000Y-46358571D01*
X110587619Y-46263333D01*
X110682857Y-46215714D01*
X110873333Y-46215714D01*
X110968571Y-46263333D01*
X111016190Y-46358571D01*
X111016190Y-46453809D01*
X110540000Y-46549047D01*
X108495595Y-43934880D02*
X108495595Y-42934880D01*
X108495595Y-43411071D02*
X109067023Y-43411071D01*
X109067023Y-43934880D02*
X109067023Y-42934880D01*
X109447976Y-42934880D02*
X110114642Y-42934880D01*
X109686071Y-43934880D01*
%TO.C,H2*%
X154571428Y-90242380D02*
X154571428Y-89242380D01*
X154571428Y-89718571D02*
X155142857Y-89718571D01*
X155142857Y-90242380D02*
X155142857Y-89242380D01*
X155761904Y-90242380D02*
X155666666Y-90194761D01*
X155619047Y-90147142D01*
X155571428Y-90051904D01*
X155571428Y-89766190D01*
X155619047Y-89670952D01*
X155666666Y-89623333D01*
X155761904Y-89575714D01*
X155904761Y-89575714D01*
X156000000Y-89623333D01*
X156047619Y-89670952D01*
X156095238Y-89766190D01*
X156095238Y-90051904D01*
X156047619Y-90147142D01*
X156000000Y-90194761D01*
X155904761Y-90242380D01*
X155761904Y-90242380D01*
X156666666Y-90242380D02*
X156571428Y-90194761D01*
X156523809Y-90099523D01*
X156523809Y-89242380D01*
X157428571Y-90194761D02*
X157333333Y-90242380D01*
X157142857Y-90242380D01*
X157047619Y-90194761D01*
X157000000Y-90099523D01*
X157000000Y-89718571D01*
X157047619Y-89623333D01*
X157142857Y-89575714D01*
X157333333Y-89575714D01*
X157428571Y-89623333D01*
X157476190Y-89718571D01*
X157476190Y-89813809D01*
X157000000Y-89909047D01*
X155538095Y-87042380D02*
X155538095Y-86042380D01*
X155538095Y-86518571D02*
X156109523Y-86518571D01*
X156109523Y-87042380D02*
X156109523Y-86042380D01*
X156538095Y-86137619D02*
X156585714Y-86090000D01*
X156680952Y-86042380D01*
X156919047Y-86042380D01*
X157014285Y-86090000D01*
X157061904Y-86137619D01*
X157109523Y-86232857D01*
X157109523Y-86328095D01*
X157061904Y-86470952D01*
X156490476Y-87042380D01*
X157109523Y-87042380D01*
%TO.C,H5*%
X69821428Y-58732380D02*
X69821428Y-57732380D01*
X69821428Y-58208571D02*
X70392857Y-58208571D01*
X70392857Y-58732380D02*
X70392857Y-57732380D01*
X71011904Y-58732380D02*
X70916666Y-58684761D01*
X70869047Y-58637142D01*
X70821428Y-58541904D01*
X70821428Y-58256190D01*
X70869047Y-58160952D01*
X70916666Y-58113333D01*
X71011904Y-58065714D01*
X71154761Y-58065714D01*
X71250000Y-58113333D01*
X71297619Y-58160952D01*
X71345238Y-58256190D01*
X71345238Y-58541904D01*
X71297619Y-58637142D01*
X71250000Y-58684761D01*
X71154761Y-58732380D01*
X71011904Y-58732380D01*
X71916666Y-58732380D02*
X71821428Y-58684761D01*
X71773809Y-58589523D01*
X71773809Y-57732380D01*
X72678571Y-58684761D02*
X72583333Y-58732380D01*
X72392857Y-58732380D01*
X72297619Y-58684761D01*
X72250000Y-58589523D01*
X72250000Y-58208571D01*
X72297619Y-58113333D01*
X72392857Y-58065714D01*
X72583333Y-58065714D01*
X72678571Y-58113333D01*
X72726190Y-58208571D01*
X72726190Y-58303809D01*
X72250000Y-58399047D01*
X70838095Y-55862380D02*
X70838095Y-54862380D01*
X70838095Y-55338571D02*
X71409523Y-55338571D01*
X71409523Y-55862380D02*
X71409523Y-54862380D01*
X72361904Y-54862380D02*
X71885714Y-54862380D01*
X71838095Y-55338571D01*
X71885714Y-55290952D01*
X71980952Y-55243333D01*
X72219047Y-55243333D01*
X72314285Y-55290952D01*
X72361904Y-55338571D01*
X72409523Y-55433809D01*
X72409523Y-55671904D01*
X72361904Y-55767142D01*
X72314285Y-55814761D01*
X72219047Y-55862380D01*
X71980952Y-55862380D01*
X71885714Y-55814761D01*
X71838095Y-55767142D01*
%TO.C,H4*%
X130571428Y-85902380D02*
X130571428Y-84902380D01*
X130571428Y-85378571D02*
X131142857Y-85378571D01*
X131142857Y-85902380D02*
X131142857Y-84902380D01*
X131761904Y-85902380D02*
X131666666Y-85854761D01*
X131619047Y-85807142D01*
X131571428Y-85711904D01*
X131571428Y-85426190D01*
X131619047Y-85330952D01*
X131666666Y-85283333D01*
X131761904Y-85235714D01*
X131904761Y-85235714D01*
X132000000Y-85283333D01*
X132047619Y-85330952D01*
X132095238Y-85426190D01*
X132095238Y-85711904D01*
X132047619Y-85807142D01*
X132000000Y-85854761D01*
X131904761Y-85902380D01*
X131761904Y-85902380D01*
X132666666Y-85902380D02*
X132571428Y-85854761D01*
X132523809Y-85759523D01*
X132523809Y-84902380D01*
X133428571Y-85854761D02*
X133333333Y-85902380D01*
X133142857Y-85902380D01*
X133047619Y-85854761D01*
X133000000Y-85759523D01*
X133000000Y-85378571D01*
X133047619Y-85283333D01*
X133142857Y-85235714D01*
X133333333Y-85235714D01*
X133428571Y-85283333D01*
X133476190Y-85378571D01*
X133476190Y-85473809D01*
X133000000Y-85569047D01*
X130955595Y-82954880D02*
X130955595Y-81954880D01*
X130955595Y-82431071D02*
X131527023Y-82431071D01*
X131527023Y-82954880D02*
X131527023Y-81954880D01*
X132431785Y-82288214D02*
X132431785Y-82954880D01*
X132193690Y-81907261D02*
X131955595Y-82621547D01*
X132574642Y-82621547D01*
%TO.C,H3*%
X32541428Y-55492380D02*
X32541428Y-54492380D01*
X32541428Y-54968571D02*
X33112857Y-54968571D01*
X33112857Y-55492380D02*
X33112857Y-54492380D01*
X33731904Y-55492380D02*
X33636666Y-55444761D01*
X33589047Y-55397142D01*
X33541428Y-55301904D01*
X33541428Y-55016190D01*
X33589047Y-54920952D01*
X33636666Y-54873333D01*
X33731904Y-54825714D01*
X33874761Y-54825714D01*
X33970000Y-54873333D01*
X34017619Y-54920952D01*
X34065238Y-55016190D01*
X34065238Y-55301904D01*
X34017619Y-55397142D01*
X33970000Y-55444761D01*
X33874761Y-55492380D01*
X33731904Y-55492380D01*
X34636666Y-55492380D02*
X34541428Y-55444761D01*
X34493809Y-55349523D01*
X34493809Y-54492380D01*
X35398571Y-55444761D02*
X35303333Y-55492380D01*
X35112857Y-55492380D01*
X35017619Y-55444761D01*
X34970000Y-55349523D01*
X34970000Y-54968571D01*
X35017619Y-54873333D01*
X35112857Y-54825714D01*
X35303333Y-54825714D01*
X35398571Y-54873333D01*
X35446190Y-54968571D01*
X35446190Y-55063809D01*
X34970000Y-55159047D01*
X33998095Y-52422380D02*
X33998095Y-51422380D01*
X33998095Y-51898571D02*
X34569523Y-51898571D01*
X34569523Y-52422380D02*
X34569523Y-51422380D01*
X34950476Y-51422380D02*
X35569523Y-51422380D01*
X35236190Y-51803333D01*
X35379047Y-51803333D01*
X35474285Y-51850952D01*
X35521904Y-51898571D01*
X35569523Y-51993809D01*
X35569523Y-52231904D01*
X35521904Y-52327142D01*
X35474285Y-52374761D01*
X35379047Y-52422380D01*
X35093333Y-52422380D01*
X34998095Y-52374761D01*
X34950476Y-52327142D01*
%TO.C,SW15*%
X58963095Y-56640761D02*
X59105952Y-56688380D01*
X59344047Y-56688380D01*
X59439285Y-56640761D01*
X59486904Y-56593142D01*
X59534523Y-56497904D01*
X59534523Y-56402666D01*
X59486904Y-56307428D01*
X59439285Y-56259809D01*
X59344047Y-56212190D01*
X59153571Y-56164571D01*
X59058333Y-56116952D01*
X59010714Y-56069333D01*
X58963095Y-55974095D01*
X58963095Y-55878857D01*
X59010714Y-55783619D01*
X59058333Y-55736000D01*
X59153571Y-55688380D01*
X59391666Y-55688380D01*
X59534523Y-55736000D01*
X59867857Y-55688380D02*
X60105952Y-56688380D01*
X60296428Y-55974095D01*
X60486904Y-56688380D01*
X60725000Y-55688380D01*
X60867857Y-56783619D02*
X61629761Y-56783619D01*
X61867857Y-56688380D02*
X61867857Y-55688380D01*
X62248809Y-55688380D01*
X62344047Y-55736000D01*
X62391666Y-55783619D01*
X62439285Y-55878857D01*
X62439285Y-56021714D01*
X62391666Y-56116952D01*
X62344047Y-56164571D01*
X62248809Y-56212190D01*
X61867857Y-56212190D01*
X62867857Y-55688380D02*
X62867857Y-56497904D01*
X62915476Y-56593142D01*
X62963095Y-56640761D01*
X63058333Y-56688380D01*
X63248809Y-56688380D01*
X63344047Y-56640761D01*
X63391666Y-56593142D01*
X63439285Y-56497904D01*
X63439285Y-55688380D01*
X63867857Y-56640761D02*
X64010714Y-56688380D01*
X64248809Y-56688380D01*
X64344047Y-56640761D01*
X64391666Y-56593142D01*
X64439285Y-56497904D01*
X64439285Y-56402666D01*
X64391666Y-56307428D01*
X64344047Y-56259809D01*
X64248809Y-56212190D01*
X64058333Y-56164571D01*
X63963095Y-56116952D01*
X63915476Y-56069333D01*
X63867857Y-55974095D01*
X63867857Y-55878857D01*
X63915476Y-55783619D01*
X63963095Y-55736000D01*
X64058333Y-55688380D01*
X64296428Y-55688380D01*
X64439285Y-55736000D01*
X64867857Y-56688380D02*
X64867857Y-55688380D01*
X64867857Y-56164571D02*
X65439285Y-56164571D01*
X65439285Y-56688380D02*
X65439285Y-55688380D01*
%TO.C,BZ1*%
X64400348Y-80464611D02*
X64543205Y-80512230D01*
X64590824Y-80559849D01*
X64638443Y-80655087D01*
X64638443Y-80797944D01*
X64590824Y-80893182D01*
X64543205Y-80940801D01*
X64447967Y-80988420D01*
X64067015Y-80988420D01*
X64067015Y-79988420D01*
X64400348Y-79988420D01*
X64495586Y-80036040D01*
X64543205Y-80083659D01*
X64590824Y-80178897D01*
X64590824Y-80274135D01*
X64543205Y-80369373D01*
X64495586Y-80416992D01*
X64400348Y-80464611D01*
X64067015Y-80464611D01*
X65495586Y-80321754D02*
X65495586Y-80988420D01*
X65067015Y-80321754D02*
X65067015Y-80845563D01*
X65114634Y-80940801D01*
X65209872Y-80988420D01*
X65352729Y-80988420D01*
X65447967Y-80940801D01*
X65495586Y-80893182D01*
X65876539Y-80321754D02*
X66400348Y-80321754D01*
X65876539Y-80988420D01*
X66400348Y-80988420D01*
X66686062Y-80321754D02*
X67209872Y-80321754D01*
X66686062Y-80988420D01*
X67209872Y-80988420D01*
X67971777Y-80940801D02*
X67876539Y-80988420D01*
X67686062Y-80988420D01*
X67590824Y-80940801D01*
X67543205Y-80845563D01*
X67543205Y-80464611D01*
X67590824Y-80369373D01*
X67686062Y-80321754D01*
X67876539Y-80321754D01*
X67971777Y-80369373D01*
X68019396Y-80464611D01*
X68019396Y-80559849D01*
X67543205Y-80655087D01*
X68447967Y-80988420D02*
X68447967Y-80321754D01*
X68447967Y-80512230D02*
X68495586Y-80416992D01*
X68543205Y-80369373D01*
X68638443Y-80321754D01*
X68733681Y-80321754D01*
%TO.C,D27*%
X141801428Y-21556190D02*
X141801428Y-22032380D01*
X141468095Y-21032380D02*
X141801428Y-21556190D01*
X142134761Y-21032380D01*
X142849047Y-21984761D02*
X142753809Y-22032380D01*
X142563333Y-22032380D01*
X142468095Y-21984761D01*
X142420476Y-21889523D01*
X142420476Y-21508571D01*
X142468095Y-21413333D01*
X142563333Y-21365714D01*
X142753809Y-21365714D01*
X142849047Y-21413333D01*
X142896666Y-21508571D01*
X142896666Y-21603809D01*
X142420476Y-21699047D01*
X143468095Y-22032380D02*
X143372857Y-21984761D01*
X143325238Y-21889523D01*
X143325238Y-21032380D01*
X143991904Y-22032380D02*
X143896666Y-21984761D01*
X143849047Y-21889523D01*
X143849047Y-21032380D01*
X144515714Y-22032380D02*
X144420476Y-21984761D01*
X144372857Y-21937142D01*
X144325238Y-21841904D01*
X144325238Y-21556190D01*
X144372857Y-21460952D01*
X144420476Y-21413333D01*
X144515714Y-21365714D01*
X144658571Y-21365714D01*
X144753809Y-21413333D01*
X144801428Y-21460952D01*
X144849047Y-21556190D01*
X144849047Y-21841904D01*
X144801428Y-21937142D01*
X144753809Y-21984761D01*
X144658571Y-22032380D01*
X144515714Y-22032380D01*
X145182380Y-21365714D02*
X145372857Y-22032380D01*
X145563333Y-21556190D01*
X145753809Y-22032380D01*
X145944285Y-21365714D01*
%TO.C,R6*%
X151222380Y-29623214D02*
X151222380Y-29004166D01*
X151603333Y-29337500D01*
X151603333Y-29194642D01*
X151650952Y-29099404D01*
X151698571Y-29051785D01*
X151793809Y-29004166D01*
X152031904Y-29004166D01*
X152127142Y-29051785D01*
X152174761Y-29099404D01*
X152222380Y-29194642D01*
X152222380Y-29480357D01*
X152174761Y-29575595D01*
X152127142Y-29623214D01*
X151222380Y-28670833D02*
X151222380Y-28051785D01*
X151603333Y-28385119D01*
X151603333Y-28242261D01*
X151650952Y-28147023D01*
X151698571Y-28099404D01*
X151793809Y-28051785D01*
X152031904Y-28051785D01*
X152127142Y-28099404D01*
X152174761Y-28147023D01*
X152222380Y-28242261D01*
X152222380Y-28527976D01*
X152174761Y-28623214D01*
X152127142Y-28670833D01*
X151222380Y-27432738D02*
X151222380Y-27337500D01*
X151270000Y-27242261D01*
X151317619Y-27194642D01*
X151412857Y-27147023D01*
X151603333Y-27099404D01*
X151841428Y-27099404D01*
X152031904Y-27147023D01*
X152127142Y-27194642D01*
X152174761Y-27242261D01*
X152222380Y-27337500D01*
X152222380Y-27432738D01*
X152174761Y-27527976D01*
X152127142Y-27575595D01*
X152031904Y-27623214D01*
X151841428Y-27670833D01*
X151603333Y-27670833D01*
X151412857Y-27623214D01*
X151317619Y-27575595D01*
X151270000Y-27527976D01*
X151222380Y-27432738D01*
D14*
X150346190Y-28420833D02*
X150108095Y-28587500D01*
X150346190Y-28706547D02*
X149846190Y-28706547D01*
X149846190Y-28516071D01*
X149870000Y-28468452D01*
X149893809Y-28444642D01*
X149941428Y-28420833D01*
X150012857Y-28420833D01*
X150060476Y-28444642D01*
X150084285Y-28468452D01*
X150108095Y-28516071D01*
X150108095Y-28706547D01*
X149846190Y-27992261D02*
X149846190Y-28087500D01*
X149870000Y-28135119D01*
X149893809Y-28158928D01*
X149965238Y-28206547D01*
X150060476Y-28230357D01*
X150250952Y-28230357D01*
X150298571Y-28206547D01*
X150322380Y-28182738D01*
X150346190Y-28135119D01*
X150346190Y-28039880D01*
X150322380Y-27992261D01*
X150298571Y-27968452D01*
X150250952Y-27944642D01*
X150131904Y-27944642D01*
X150084285Y-27968452D01*
X150060476Y-27992261D01*
X150036666Y-28039880D01*
X150036666Y-28135119D01*
X150060476Y-28182738D01*
X150084285Y-28206547D01*
X150131904Y-28230357D01*
%TO.C,RESET_SW1*%
D11*
X149142857Y-53402380D02*
X148809523Y-52926190D01*
X148571428Y-53402380D02*
X148571428Y-52402380D01*
X148952380Y-52402380D01*
X149047619Y-52450000D01*
X149095238Y-52497619D01*
X149142857Y-52592857D01*
X149142857Y-52735714D01*
X149095238Y-52830952D01*
X149047619Y-52878571D01*
X148952380Y-52926190D01*
X148571428Y-52926190D01*
X149571428Y-52878571D02*
X149904761Y-52878571D01*
X150047619Y-53402380D02*
X149571428Y-53402380D01*
X149571428Y-52402380D01*
X150047619Y-52402380D01*
X150428571Y-53354761D02*
X150571428Y-53402380D01*
X150809523Y-53402380D01*
X150904761Y-53354761D01*
X150952380Y-53307142D01*
X151000000Y-53211904D01*
X151000000Y-53116666D01*
X150952380Y-53021428D01*
X150904761Y-52973809D01*
X150809523Y-52926190D01*
X150619047Y-52878571D01*
X150523809Y-52830952D01*
X150476190Y-52783333D01*
X150428571Y-52688095D01*
X150428571Y-52592857D01*
X150476190Y-52497619D01*
X150523809Y-52450000D01*
X150619047Y-52402380D01*
X150857142Y-52402380D01*
X151000000Y-52450000D01*
X151428571Y-52878571D02*
X151761904Y-52878571D01*
X151904761Y-53402380D02*
X151428571Y-53402380D01*
X151428571Y-52402380D01*
X151904761Y-52402380D01*
X152190476Y-52402380D02*
X152761904Y-52402380D01*
X152476190Y-53402380D02*
X152476190Y-52402380D01*
X152857142Y-53497619D02*
X153619047Y-53497619D01*
X153809523Y-53354761D02*
X153952380Y-53402380D01*
X154190476Y-53402380D01*
X154285714Y-53354761D01*
X154333333Y-53307142D01*
X154380952Y-53211904D01*
X154380952Y-53116666D01*
X154333333Y-53021428D01*
X154285714Y-52973809D01*
X154190476Y-52926190D01*
X154000000Y-52878571D01*
X153904761Y-52830952D01*
X153857142Y-52783333D01*
X153809523Y-52688095D01*
X153809523Y-52592857D01*
X153857142Y-52497619D01*
X153904761Y-52450000D01*
X154000000Y-52402380D01*
X154238095Y-52402380D01*
X154380952Y-52450000D01*
X154714285Y-52402380D02*
X154952380Y-53402380D01*
X155142857Y-52688095D01*
X155333333Y-53402380D01*
X155571428Y-52402380D01*
X156476190Y-53402380D02*
X155904761Y-53402380D01*
X156190476Y-53402380D02*
X156190476Y-52402380D01*
X156095238Y-52545238D01*
X156000000Y-52640476D01*
X155904761Y-52688095D01*
%TO.C,RED1*%
X149905952Y-22294880D02*
X149429761Y-22294880D01*
X149429761Y-21294880D01*
X150239285Y-21771071D02*
X150572619Y-21771071D01*
X150715476Y-22294880D02*
X150239285Y-22294880D01*
X150239285Y-21294880D01*
X150715476Y-21294880D01*
X151144047Y-22294880D02*
X151144047Y-21294880D01*
X151382142Y-21294880D01*
X151525000Y-21342500D01*
X151620238Y-21437738D01*
X151667857Y-21532976D01*
X151715476Y-21723452D01*
X151715476Y-21866309D01*
X151667857Y-22056785D01*
X151620238Y-22152023D01*
X151525000Y-22247261D01*
X151382142Y-22294880D01*
X151144047Y-22294880D01*
X152667857Y-22294880D02*
X152096428Y-22294880D01*
X152382142Y-22294880D02*
X152382142Y-21294880D01*
X152286904Y-21437738D01*
X152191666Y-21532976D01*
X152096428Y-21580595D01*
%TO.C,D26*%
X134549107Y-21248750D02*
X134453869Y-21201130D01*
X134311011Y-21201130D01*
X134168154Y-21248750D01*
X134072916Y-21343988D01*
X134025297Y-21439226D01*
X133977678Y-21629702D01*
X133977678Y-21772559D01*
X134025297Y-21963035D01*
X134072916Y-22058273D01*
X134168154Y-22153511D01*
X134311011Y-22201130D01*
X134406250Y-22201130D01*
X134549107Y-22153511D01*
X134596726Y-22105892D01*
X134596726Y-21772559D01*
X134406250Y-21772559D01*
X135025297Y-22201130D02*
X135025297Y-21534464D01*
X135025297Y-21724940D02*
X135072916Y-21629702D01*
X135120535Y-21582083D01*
X135215773Y-21534464D01*
X135311011Y-21534464D01*
X136025297Y-22153511D02*
X135930059Y-22201130D01*
X135739583Y-22201130D01*
X135644345Y-22153511D01*
X135596726Y-22058273D01*
X135596726Y-21677321D01*
X135644345Y-21582083D01*
X135739583Y-21534464D01*
X135930059Y-21534464D01*
X136025297Y-21582083D01*
X136072916Y-21677321D01*
X136072916Y-21772559D01*
X135596726Y-21867797D01*
X136882440Y-22153511D02*
X136787202Y-22201130D01*
X136596726Y-22201130D01*
X136501488Y-22153511D01*
X136453869Y-22058273D01*
X136453869Y-21677321D01*
X136501488Y-21582083D01*
X136596726Y-21534464D01*
X136787202Y-21534464D01*
X136882440Y-21582083D01*
X136930059Y-21677321D01*
X136930059Y-21772559D01*
X136453869Y-21867797D01*
X137358630Y-21534464D02*
X137358630Y-22201130D01*
X137358630Y-21629702D02*
X137406250Y-21582083D01*
X137501488Y-21534464D01*
X137644345Y-21534464D01*
X137739583Y-21582083D01*
X137787202Y-21677321D01*
X137787202Y-22201130D01*
%TO.C,SW22*%
X152222600Y-116849169D02*
X152294303Y-116716751D01*
X152335648Y-116482273D01*
X152305290Y-116380213D01*
X152266663Y-116325048D01*
X152181141Y-116261615D01*
X152087350Y-116245077D01*
X151985290Y-116275434D01*
X151930125Y-116314061D01*
X151866692Y-116399583D01*
X151786720Y-116578897D01*
X151723287Y-116664419D01*
X151668122Y-116703046D01*
X151566062Y-116733403D01*
X151472271Y-116716865D01*
X151386748Y-116653432D01*
X151348122Y-116598267D01*
X151317764Y-116496207D01*
X151359109Y-116261729D01*
X151430811Y-116129311D01*
X151441798Y-115792773D02*
X152467951Y-115731943D01*
X151797593Y-115420326D01*
X152534103Y-115356778D01*
X151590640Y-114948652D01*
X152694046Y-114998151D02*
X152826349Y-114247822D01*
X152773903Y-113996806D02*
X151789095Y-113823158D01*
X151855246Y-113447993D01*
X151918680Y-113362470D01*
X151973845Y-113323844D01*
X152075905Y-113293486D01*
X152216592Y-113318293D01*
X152302114Y-113381726D01*
X152340740Y-113436891D01*
X152371098Y-113538951D01*
X152304946Y-113914116D01*
X151962743Y-112838350D02*
X152759968Y-112978922D01*
X152862028Y-112948564D01*
X152917193Y-112909938D01*
X152980627Y-112824416D01*
X153013702Y-112636833D01*
X152983345Y-112534773D01*
X152944718Y-112479608D01*
X152859196Y-112416175D01*
X152061971Y-112275602D01*
X153074303Y-112018921D02*
X153146006Y-111886503D01*
X153187351Y-111652025D01*
X153156993Y-111549965D01*
X153118366Y-111494801D01*
X153032844Y-111431367D01*
X152939053Y-111414829D01*
X152836993Y-111445187D01*
X152781828Y-111483813D01*
X152718395Y-111569336D01*
X152638423Y-111748649D01*
X152574990Y-111834171D01*
X152519825Y-111872798D01*
X152417765Y-111903156D01*
X152323974Y-111886618D01*
X152238451Y-111823184D01*
X152199825Y-111768020D01*
X152169467Y-111665960D01*
X152210812Y-111431482D01*
X152282514Y-111299064D01*
X153294847Y-111042382D02*
X152310039Y-110868734D01*
X152778995Y-110951424D02*
X152878223Y-110388677D01*
X153394075Y-110479635D02*
X152409267Y-110305987D01*
%TO.C,SW24*%
X140700830Y-98702600D02*
X140833248Y-98774303D01*
X141067726Y-98815648D01*
X141169786Y-98785290D01*
X141224951Y-98746663D01*
X141288384Y-98661141D01*
X141304922Y-98567350D01*
X141274565Y-98465290D01*
X141235938Y-98410125D01*
X141150416Y-98346692D01*
X140971102Y-98266720D01*
X140885580Y-98203287D01*
X140846953Y-98148122D01*
X140816596Y-98046062D01*
X140833134Y-97952271D01*
X140896567Y-97866748D01*
X140951732Y-97828122D01*
X141053792Y-97797764D01*
X141288270Y-97839109D01*
X141420688Y-97910811D01*
X141757226Y-97921798D02*
X141818056Y-98947951D01*
X142129673Y-98277593D01*
X142193221Y-99014103D01*
X142601347Y-98070640D01*
X142551848Y-99174046D02*
X143302177Y-99306349D01*
X143553193Y-99253903D02*
X143726841Y-98269095D01*
X144102006Y-98335246D01*
X144187529Y-98398680D01*
X144226155Y-98453845D01*
X144256513Y-98555905D01*
X144231706Y-98696592D01*
X144168273Y-98782114D01*
X144113108Y-98820740D01*
X144011048Y-98851098D01*
X143635883Y-98784946D01*
X144711649Y-98442743D02*
X144571077Y-99239968D01*
X144601435Y-99342028D01*
X144640061Y-99397193D01*
X144725583Y-99460627D01*
X144913166Y-99493702D01*
X145015226Y-99463345D01*
X145070391Y-99424718D01*
X145133824Y-99339196D01*
X145274397Y-98541971D01*
X145531078Y-99554303D02*
X145663496Y-99626006D01*
X145897974Y-99667351D01*
X146000034Y-99636993D01*
X146055198Y-99598366D01*
X146118632Y-99512844D01*
X146135170Y-99419053D01*
X146104812Y-99316993D01*
X146066186Y-99261828D01*
X145980663Y-99198395D01*
X145801350Y-99118423D01*
X145715828Y-99054990D01*
X145677201Y-98999825D01*
X145646843Y-98897765D01*
X145663381Y-98803974D01*
X145726815Y-98718451D01*
X145781979Y-98679825D01*
X145884039Y-98649467D01*
X146118517Y-98690812D01*
X146250935Y-98762514D01*
X146507617Y-99774847D02*
X146681265Y-98790039D01*
X146598575Y-99258995D02*
X147161322Y-99358223D01*
X147070364Y-99874075D02*
X147244012Y-98889267D01*
%TO.C,SW23*%
X121900830Y-95352600D02*
X122033248Y-95424303D01*
X122267726Y-95465648D01*
X122369786Y-95435290D01*
X122424951Y-95396663D01*
X122488384Y-95311141D01*
X122504922Y-95217350D01*
X122474565Y-95115290D01*
X122435938Y-95060125D01*
X122350416Y-94996692D01*
X122171102Y-94916720D01*
X122085580Y-94853287D01*
X122046953Y-94798122D01*
X122016596Y-94696062D01*
X122033134Y-94602271D01*
X122096567Y-94516748D01*
X122151732Y-94478122D01*
X122253792Y-94447764D01*
X122488270Y-94489109D01*
X122620688Y-94560811D01*
X122957226Y-94571798D02*
X123018056Y-95597951D01*
X123329673Y-94927593D01*
X123393221Y-95664103D01*
X123801347Y-94720640D01*
X123751848Y-95824046D02*
X124502177Y-95956349D01*
X124753193Y-95903903D02*
X124926841Y-94919095D01*
X125302006Y-94985246D01*
X125387529Y-95048680D01*
X125426155Y-95103845D01*
X125456513Y-95205905D01*
X125431706Y-95346592D01*
X125368273Y-95432114D01*
X125313108Y-95470740D01*
X125211048Y-95501098D01*
X124835883Y-95434946D01*
X125911649Y-95092743D02*
X125771077Y-95889968D01*
X125801435Y-95992028D01*
X125840061Y-96047193D01*
X125925583Y-96110627D01*
X126113166Y-96143702D01*
X126215226Y-96113345D01*
X126270391Y-96074718D01*
X126333824Y-95989196D01*
X126474397Y-95191971D01*
X126731078Y-96204303D02*
X126863496Y-96276006D01*
X127097974Y-96317351D01*
X127200034Y-96286993D01*
X127255198Y-96248366D01*
X127318632Y-96162844D01*
X127335170Y-96069053D01*
X127304812Y-95966993D01*
X127266186Y-95911828D01*
X127180663Y-95848395D01*
X127001350Y-95768423D01*
X126915828Y-95704990D01*
X126877201Y-95649825D01*
X126846843Y-95547765D01*
X126863381Y-95453974D01*
X126926815Y-95368451D01*
X126981979Y-95329825D01*
X127084039Y-95299467D01*
X127318517Y-95340812D01*
X127450935Y-95412514D01*
X127707617Y-96424847D02*
X127881265Y-95440039D01*
X127798575Y-95908995D02*
X128361322Y-96008223D01*
X128270364Y-96524075D02*
X128444012Y-95539267D01*
%TO.C,SW1*%
X20963095Y-35490761D02*
X21105952Y-35538380D01*
X21344047Y-35538380D01*
X21439285Y-35490761D01*
X21486904Y-35443142D01*
X21534523Y-35347904D01*
X21534523Y-35252666D01*
X21486904Y-35157428D01*
X21439285Y-35109809D01*
X21344047Y-35062190D01*
X21153571Y-35014571D01*
X21058333Y-34966952D01*
X21010714Y-34919333D01*
X20963095Y-34824095D01*
X20963095Y-34728857D01*
X21010714Y-34633619D01*
X21058333Y-34586000D01*
X21153571Y-34538380D01*
X21391666Y-34538380D01*
X21534523Y-34586000D01*
X21867857Y-34538380D02*
X22105952Y-35538380D01*
X22296428Y-34824095D01*
X22486904Y-35538380D01*
X22725000Y-34538380D01*
X22867857Y-35633619D02*
X23629761Y-35633619D01*
X23867857Y-35538380D02*
X23867857Y-34538380D01*
X24248809Y-34538380D01*
X24344047Y-34586000D01*
X24391666Y-34633619D01*
X24439285Y-34728857D01*
X24439285Y-34871714D01*
X24391666Y-34966952D01*
X24344047Y-35014571D01*
X24248809Y-35062190D01*
X23867857Y-35062190D01*
X24867857Y-34538380D02*
X24867857Y-35347904D01*
X24915476Y-35443142D01*
X24963095Y-35490761D01*
X25058333Y-35538380D01*
X25248809Y-35538380D01*
X25344047Y-35490761D01*
X25391666Y-35443142D01*
X25439285Y-35347904D01*
X25439285Y-34538380D01*
X25867857Y-35490761D02*
X26010714Y-35538380D01*
X26248809Y-35538380D01*
X26344047Y-35490761D01*
X26391666Y-35443142D01*
X26439285Y-35347904D01*
X26439285Y-35252666D01*
X26391666Y-35157428D01*
X26344047Y-35109809D01*
X26248809Y-35062190D01*
X26058333Y-35014571D01*
X25963095Y-34966952D01*
X25915476Y-34919333D01*
X25867857Y-34824095D01*
X25867857Y-34728857D01*
X25915476Y-34633619D01*
X25963095Y-34586000D01*
X26058333Y-34538380D01*
X26296428Y-34538380D01*
X26439285Y-34586000D01*
X26867857Y-35538380D02*
X26867857Y-34538380D01*
X26867857Y-35014571D02*
X27439285Y-35014571D01*
X27439285Y-35538380D02*
X27439285Y-34538380D01*
%TO.C,SW2*%
X39963095Y-34190761D02*
X40105952Y-34238380D01*
X40344047Y-34238380D01*
X40439285Y-34190761D01*
X40486904Y-34143142D01*
X40534523Y-34047904D01*
X40534523Y-33952666D01*
X40486904Y-33857428D01*
X40439285Y-33809809D01*
X40344047Y-33762190D01*
X40153571Y-33714571D01*
X40058333Y-33666952D01*
X40010714Y-33619333D01*
X39963095Y-33524095D01*
X39963095Y-33428857D01*
X40010714Y-33333619D01*
X40058333Y-33286000D01*
X40153571Y-33238380D01*
X40391666Y-33238380D01*
X40534523Y-33286000D01*
X40867857Y-33238380D02*
X41105952Y-34238380D01*
X41296428Y-33524095D01*
X41486904Y-34238380D01*
X41725000Y-33238380D01*
X41867857Y-34333619D02*
X42629761Y-34333619D01*
X42867857Y-34238380D02*
X42867857Y-33238380D01*
X43248809Y-33238380D01*
X43344047Y-33286000D01*
X43391666Y-33333619D01*
X43439285Y-33428857D01*
X43439285Y-33571714D01*
X43391666Y-33666952D01*
X43344047Y-33714571D01*
X43248809Y-33762190D01*
X42867857Y-33762190D01*
X43867857Y-33238380D02*
X43867857Y-34047904D01*
X43915476Y-34143142D01*
X43963095Y-34190761D01*
X44058333Y-34238380D01*
X44248809Y-34238380D01*
X44344047Y-34190761D01*
X44391666Y-34143142D01*
X44439285Y-34047904D01*
X44439285Y-33238380D01*
X44867857Y-34190761D02*
X45010714Y-34238380D01*
X45248809Y-34238380D01*
X45344047Y-34190761D01*
X45391666Y-34143142D01*
X45439285Y-34047904D01*
X45439285Y-33952666D01*
X45391666Y-33857428D01*
X45344047Y-33809809D01*
X45248809Y-33762190D01*
X45058333Y-33714571D01*
X44963095Y-33666952D01*
X44915476Y-33619333D01*
X44867857Y-33524095D01*
X44867857Y-33428857D01*
X44915476Y-33333619D01*
X44963095Y-33286000D01*
X45058333Y-33238380D01*
X45296428Y-33238380D01*
X45439285Y-33286000D01*
X45867857Y-34238380D02*
X45867857Y-33238380D01*
X45867857Y-33714571D02*
X46439285Y-33714571D01*
X46439285Y-34238380D02*
X46439285Y-33238380D01*
%TO.C,SW3*%
X58963095Y-18640761D02*
X59105952Y-18688380D01*
X59344047Y-18688380D01*
X59439285Y-18640761D01*
X59486904Y-18593142D01*
X59534523Y-18497904D01*
X59534523Y-18402666D01*
X59486904Y-18307428D01*
X59439285Y-18259809D01*
X59344047Y-18212190D01*
X59153571Y-18164571D01*
X59058333Y-18116952D01*
X59010714Y-18069333D01*
X58963095Y-17974095D01*
X58963095Y-17878857D01*
X59010714Y-17783619D01*
X59058333Y-17736000D01*
X59153571Y-17688380D01*
X59391666Y-17688380D01*
X59534523Y-17736000D01*
X59867857Y-17688380D02*
X60105952Y-18688380D01*
X60296428Y-17974095D01*
X60486904Y-18688380D01*
X60725000Y-17688380D01*
X60867857Y-18783619D02*
X61629761Y-18783619D01*
X61867857Y-18688380D02*
X61867857Y-17688380D01*
X62248809Y-17688380D01*
X62344047Y-17736000D01*
X62391666Y-17783619D01*
X62439285Y-17878857D01*
X62439285Y-18021714D01*
X62391666Y-18116952D01*
X62344047Y-18164571D01*
X62248809Y-18212190D01*
X61867857Y-18212190D01*
X62867857Y-17688380D02*
X62867857Y-18497904D01*
X62915476Y-18593142D01*
X62963095Y-18640761D01*
X63058333Y-18688380D01*
X63248809Y-18688380D01*
X63344047Y-18640761D01*
X63391666Y-18593142D01*
X63439285Y-18497904D01*
X63439285Y-17688380D01*
X63867857Y-18640761D02*
X64010714Y-18688380D01*
X64248809Y-18688380D01*
X64344047Y-18640761D01*
X64391666Y-18593142D01*
X64439285Y-18497904D01*
X64439285Y-18402666D01*
X64391666Y-18307428D01*
X64344047Y-18259809D01*
X64248809Y-18212190D01*
X64058333Y-18164571D01*
X63963095Y-18116952D01*
X63915476Y-18069333D01*
X63867857Y-17974095D01*
X63867857Y-17878857D01*
X63915476Y-17783619D01*
X63963095Y-17736000D01*
X64058333Y-17688380D01*
X64296428Y-17688380D01*
X64439285Y-17736000D01*
X64867857Y-18688380D02*
X64867857Y-17688380D01*
X64867857Y-18164571D02*
X65439285Y-18164571D01*
X65439285Y-18688380D02*
X65439285Y-17688380D01*
%TO.C,SW4*%
X77963095Y-15640761D02*
X78105952Y-15688380D01*
X78344047Y-15688380D01*
X78439285Y-15640761D01*
X78486904Y-15593142D01*
X78534523Y-15497904D01*
X78534523Y-15402666D01*
X78486904Y-15307428D01*
X78439285Y-15259809D01*
X78344047Y-15212190D01*
X78153571Y-15164571D01*
X78058333Y-15116952D01*
X78010714Y-15069333D01*
X77963095Y-14974095D01*
X77963095Y-14878857D01*
X78010714Y-14783619D01*
X78058333Y-14736000D01*
X78153571Y-14688380D01*
X78391666Y-14688380D01*
X78534523Y-14736000D01*
X78867857Y-14688380D02*
X79105952Y-15688380D01*
X79296428Y-14974095D01*
X79486904Y-15688380D01*
X79725000Y-14688380D01*
X79867857Y-15783619D02*
X80629761Y-15783619D01*
X80867857Y-15688380D02*
X80867857Y-14688380D01*
X81248809Y-14688380D01*
X81344047Y-14736000D01*
X81391666Y-14783619D01*
X81439285Y-14878857D01*
X81439285Y-15021714D01*
X81391666Y-15116952D01*
X81344047Y-15164571D01*
X81248809Y-15212190D01*
X80867857Y-15212190D01*
X81867857Y-14688380D02*
X81867857Y-15497904D01*
X81915476Y-15593142D01*
X81963095Y-15640761D01*
X82058333Y-15688380D01*
X82248809Y-15688380D01*
X82344047Y-15640761D01*
X82391666Y-15593142D01*
X82439285Y-15497904D01*
X82439285Y-14688380D01*
X82867857Y-15640761D02*
X83010714Y-15688380D01*
X83248809Y-15688380D01*
X83344047Y-15640761D01*
X83391666Y-15593142D01*
X83439285Y-15497904D01*
X83439285Y-15402666D01*
X83391666Y-15307428D01*
X83344047Y-15259809D01*
X83248809Y-15212190D01*
X83058333Y-15164571D01*
X82963095Y-15116952D01*
X82915476Y-15069333D01*
X82867857Y-14974095D01*
X82867857Y-14878857D01*
X82915476Y-14783619D01*
X82963095Y-14736000D01*
X83058333Y-14688380D01*
X83296428Y-14688380D01*
X83439285Y-14736000D01*
X83867857Y-15688380D02*
X83867857Y-14688380D01*
X83867857Y-15164571D02*
X84439285Y-15164571D01*
X84439285Y-15688380D02*
X84439285Y-14688380D01*
%TO.C,SW5*%
X96963095Y-25640761D02*
X97105952Y-25688380D01*
X97344047Y-25688380D01*
X97439285Y-25640761D01*
X97486904Y-25593142D01*
X97534523Y-25497904D01*
X97534523Y-25402666D01*
X97486904Y-25307428D01*
X97439285Y-25259809D01*
X97344047Y-25212190D01*
X97153571Y-25164571D01*
X97058333Y-25116952D01*
X97010714Y-25069333D01*
X96963095Y-24974095D01*
X96963095Y-24878857D01*
X97010714Y-24783619D01*
X97058333Y-24736000D01*
X97153571Y-24688380D01*
X97391666Y-24688380D01*
X97534523Y-24736000D01*
X97867857Y-24688380D02*
X98105952Y-25688380D01*
X98296428Y-24974095D01*
X98486904Y-25688380D01*
X98725000Y-24688380D01*
X98867857Y-25783619D02*
X99629761Y-25783619D01*
X99867857Y-25688380D02*
X99867857Y-24688380D01*
X100248809Y-24688380D01*
X100344047Y-24736000D01*
X100391666Y-24783619D01*
X100439285Y-24878857D01*
X100439285Y-25021714D01*
X100391666Y-25116952D01*
X100344047Y-25164571D01*
X100248809Y-25212190D01*
X99867857Y-25212190D01*
X100867857Y-24688380D02*
X100867857Y-25497904D01*
X100915476Y-25593142D01*
X100963095Y-25640761D01*
X101058333Y-25688380D01*
X101248809Y-25688380D01*
X101344047Y-25640761D01*
X101391666Y-25593142D01*
X101439285Y-25497904D01*
X101439285Y-24688380D01*
X101867857Y-25640761D02*
X102010714Y-25688380D01*
X102248809Y-25688380D01*
X102344047Y-25640761D01*
X102391666Y-25593142D01*
X102439285Y-25497904D01*
X102439285Y-25402666D01*
X102391666Y-25307428D01*
X102344047Y-25259809D01*
X102248809Y-25212190D01*
X102058333Y-25164571D01*
X101963095Y-25116952D01*
X101915476Y-25069333D01*
X101867857Y-24974095D01*
X101867857Y-24878857D01*
X101915476Y-24783619D01*
X101963095Y-24736000D01*
X102058333Y-24688380D01*
X102296428Y-24688380D01*
X102439285Y-24736000D01*
X102867857Y-25688380D02*
X102867857Y-24688380D01*
X102867857Y-25164571D02*
X103439285Y-25164571D01*
X103439285Y-25688380D02*
X103439285Y-24688380D01*
%TO.C,SW6*%
X115963095Y-27640761D02*
X116105952Y-27688380D01*
X116344047Y-27688380D01*
X116439285Y-27640761D01*
X116486904Y-27593142D01*
X116534523Y-27497904D01*
X116534523Y-27402666D01*
X116486904Y-27307428D01*
X116439285Y-27259809D01*
X116344047Y-27212190D01*
X116153571Y-27164571D01*
X116058333Y-27116952D01*
X116010714Y-27069333D01*
X115963095Y-26974095D01*
X115963095Y-26878857D01*
X116010714Y-26783619D01*
X116058333Y-26736000D01*
X116153571Y-26688380D01*
X116391666Y-26688380D01*
X116534523Y-26736000D01*
X116867857Y-26688380D02*
X117105952Y-27688380D01*
X117296428Y-26974095D01*
X117486904Y-27688380D01*
X117725000Y-26688380D01*
X117867857Y-27783619D02*
X118629761Y-27783619D01*
X118867857Y-27688380D02*
X118867857Y-26688380D01*
X119248809Y-26688380D01*
X119344047Y-26736000D01*
X119391666Y-26783619D01*
X119439285Y-26878857D01*
X119439285Y-27021714D01*
X119391666Y-27116952D01*
X119344047Y-27164571D01*
X119248809Y-27212190D01*
X118867857Y-27212190D01*
X119867857Y-26688380D02*
X119867857Y-27497904D01*
X119915476Y-27593142D01*
X119963095Y-27640761D01*
X120058333Y-27688380D01*
X120248809Y-27688380D01*
X120344047Y-27640761D01*
X120391666Y-27593142D01*
X120439285Y-27497904D01*
X120439285Y-26688380D01*
X120867857Y-27640761D02*
X121010714Y-27688380D01*
X121248809Y-27688380D01*
X121344047Y-27640761D01*
X121391666Y-27593142D01*
X121439285Y-27497904D01*
X121439285Y-27402666D01*
X121391666Y-27307428D01*
X121344047Y-27259809D01*
X121248809Y-27212190D01*
X121058333Y-27164571D01*
X120963095Y-27116952D01*
X120915476Y-27069333D01*
X120867857Y-26974095D01*
X120867857Y-26878857D01*
X120915476Y-26783619D01*
X120963095Y-26736000D01*
X121058333Y-26688380D01*
X121296428Y-26688380D01*
X121439285Y-26736000D01*
X121867857Y-27688380D02*
X121867857Y-26688380D01*
X121867857Y-27164571D02*
X122439285Y-27164571D01*
X122439285Y-27688380D02*
X122439285Y-26688380D01*
%TO.C,SW7*%
X20963095Y-54490761D02*
X21105952Y-54538380D01*
X21344047Y-54538380D01*
X21439285Y-54490761D01*
X21486904Y-54443142D01*
X21534523Y-54347904D01*
X21534523Y-54252666D01*
X21486904Y-54157428D01*
X21439285Y-54109809D01*
X21344047Y-54062190D01*
X21153571Y-54014571D01*
X21058333Y-53966952D01*
X21010714Y-53919333D01*
X20963095Y-53824095D01*
X20963095Y-53728857D01*
X21010714Y-53633619D01*
X21058333Y-53586000D01*
X21153571Y-53538380D01*
X21391666Y-53538380D01*
X21534523Y-53586000D01*
X21867857Y-53538380D02*
X22105952Y-54538380D01*
X22296428Y-53824095D01*
X22486904Y-54538380D01*
X22725000Y-53538380D01*
X22867857Y-54633619D02*
X23629761Y-54633619D01*
X23867857Y-54538380D02*
X23867857Y-53538380D01*
X24248809Y-53538380D01*
X24344047Y-53586000D01*
X24391666Y-53633619D01*
X24439285Y-53728857D01*
X24439285Y-53871714D01*
X24391666Y-53966952D01*
X24344047Y-54014571D01*
X24248809Y-54062190D01*
X23867857Y-54062190D01*
X24867857Y-53538380D02*
X24867857Y-54347904D01*
X24915476Y-54443142D01*
X24963095Y-54490761D01*
X25058333Y-54538380D01*
X25248809Y-54538380D01*
X25344047Y-54490761D01*
X25391666Y-54443142D01*
X25439285Y-54347904D01*
X25439285Y-53538380D01*
X25867857Y-54490761D02*
X26010714Y-54538380D01*
X26248809Y-54538380D01*
X26344047Y-54490761D01*
X26391666Y-54443142D01*
X26439285Y-54347904D01*
X26439285Y-54252666D01*
X26391666Y-54157428D01*
X26344047Y-54109809D01*
X26248809Y-54062190D01*
X26058333Y-54014571D01*
X25963095Y-53966952D01*
X25915476Y-53919333D01*
X25867857Y-53824095D01*
X25867857Y-53728857D01*
X25915476Y-53633619D01*
X25963095Y-53586000D01*
X26058333Y-53538380D01*
X26296428Y-53538380D01*
X26439285Y-53586000D01*
X26867857Y-54538380D02*
X26867857Y-53538380D01*
X26867857Y-54014571D02*
X27439285Y-54014571D01*
X27439285Y-54538380D02*
X27439285Y-53538380D01*
%TO.C,SW8*%
X39963095Y-53190761D02*
X40105952Y-53238380D01*
X40344047Y-53238380D01*
X40439285Y-53190761D01*
X40486904Y-53143142D01*
X40534523Y-53047904D01*
X40534523Y-52952666D01*
X40486904Y-52857428D01*
X40439285Y-52809809D01*
X40344047Y-52762190D01*
X40153571Y-52714571D01*
X40058333Y-52666952D01*
X40010714Y-52619333D01*
X39963095Y-52524095D01*
X39963095Y-52428857D01*
X40010714Y-52333619D01*
X40058333Y-52286000D01*
X40153571Y-52238380D01*
X40391666Y-52238380D01*
X40534523Y-52286000D01*
X40867857Y-52238380D02*
X41105952Y-53238380D01*
X41296428Y-52524095D01*
X41486904Y-53238380D01*
X41725000Y-52238380D01*
X41867857Y-53333619D02*
X42629761Y-53333619D01*
X42867857Y-53238380D02*
X42867857Y-52238380D01*
X43248809Y-52238380D01*
X43344047Y-52286000D01*
X43391666Y-52333619D01*
X43439285Y-52428857D01*
X43439285Y-52571714D01*
X43391666Y-52666952D01*
X43344047Y-52714571D01*
X43248809Y-52762190D01*
X42867857Y-52762190D01*
X43867857Y-52238380D02*
X43867857Y-53047904D01*
X43915476Y-53143142D01*
X43963095Y-53190761D01*
X44058333Y-53238380D01*
X44248809Y-53238380D01*
X44344047Y-53190761D01*
X44391666Y-53143142D01*
X44439285Y-53047904D01*
X44439285Y-52238380D01*
X44867857Y-53190761D02*
X45010714Y-53238380D01*
X45248809Y-53238380D01*
X45344047Y-53190761D01*
X45391666Y-53143142D01*
X45439285Y-53047904D01*
X45439285Y-52952666D01*
X45391666Y-52857428D01*
X45344047Y-52809809D01*
X45248809Y-52762190D01*
X45058333Y-52714571D01*
X44963095Y-52666952D01*
X44915476Y-52619333D01*
X44867857Y-52524095D01*
X44867857Y-52428857D01*
X44915476Y-52333619D01*
X44963095Y-52286000D01*
X45058333Y-52238380D01*
X45296428Y-52238380D01*
X45439285Y-52286000D01*
X45867857Y-53238380D02*
X45867857Y-52238380D01*
X45867857Y-52714571D02*
X46439285Y-52714571D01*
X46439285Y-53238380D02*
X46439285Y-52238380D01*
%TO.C,SW9*%
X58963095Y-37640761D02*
X59105952Y-37688380D01*
X59344047Y-37688380D01*
X59439285Y-37640761D01*
X59486904Y-37593142D01*
X59534523Y-37497904D01*
X59534523Y-37402666D01*
X59486904Y-37307428D01*
X59439285Y-37259809D01*
X59344047Y-37212190D01*
X59153571Y-37164571D01*
X59058333Y-37116952D01*
X59010714Y-37069333D01*
X58963095Y-36974095D01*
X58963095Y-36878857D01*
X59010714Y-36783619D01*
X59058333Y-36736000D01*
X59153571Y-36688380D01*
X59391666Y-36688380D01*
X59534523Y-36736000D01*
X59867857Y-36688380D02*
X60105952Y-37688380D01*
X60296428Y-36974095D01*
X60486904Y-37688380D01*
X60725000Y-36688380D01*
X60867857Y-37783619D02*
X61629761Y-37783619D01*
X61867857Y-37688380D02*
X61867857Y-36688380D01*
X62248809Y-36688380D01*
X62344047Y-36736000D01*
X62391666Y-36783619D01*
X62439285Y-36878857D01*
X62439285Y-37021714D01*
X62391666Y-37116952D01*
X62344047Y-37164571D01*
X62248809Y-37212190D01*
X61867857Y-37212190D01*
X62867857Y-36688380D02*
X62867857Y-37497904D01*
X62915476Y-37593142D01*
X62963095Y-37640761D01*
X63058333Y-37688380D01*
X63248809Y-37688380D01*
X63344047Y-37640761D01*
X63391666Y-37593142D01*
X63439285Y-37497904D01*
X63439285Y-36688380D01*
X63867857Y-37640761D02*
X64010714Y-37688380D01*
X64248809Y-37688380D01*
X64344047Y-37640761D01*
X64391666Y-37593142D01*
X64439285Y-37497904D01*
X64439285Y-37402666D01*
X64391666Y-37307428D01*
X64344047Y-37259809D01*
X64248809Y-37212190D01*
X64058333Y-37164571D01*
X63963095Y-37116952D01*
X63915476Y-37069333D01*
X63867857Y-36974095D01*
X63867857Y-36878857D01*
X63915476Y-36783619D01*
X63963095Y-36736000D01*
X64058333Y-36688380D01*
X64296428Y-36688380D01*
X64439285Y-36736000D01*
X64867857Y-37688380D02*
X64867857Y-36688380D01*
X64867857Y-37164571D02*
X65439285Y-37164571D01*
X65439285Y-37688380D02*
X65439285Y-36688380D01*
%TO.C,SW10*%
X77963095Y-34640761D02*
X78105952Y-34688380D01*
X78344047Y-34688380D01*
X78439285Y-34640761D01*
X78486904Y-34593142D01*
X78534523Y-34497904D01*
X78534523Y-34402666D01*
X78486904Y-34307428D01*
X78439285Y-34259809D01*
X78344047Y-34212190D01*
X78153571Y-34164571D01*
X78058333Y-34116952D01*
X78010714Y-34069333D01*
X77963095Y-33974095D01*
X77963095Y-33878857D01*
X78010714Y-33783619D01*
X78058333Y-33736000D01*
X78153571Y-33688380D01*
X78391666Y-33688380D01*
X78534523Y-33736000D01*
X78867857Y-33688380D02*
X79105952Y-34688380D01*
X79296428Y-33974095D01*
X79486904Y-34688380D01*
X79725000Y-33688380D01*
X79867857Y-34783619D02*
X80629761Y-34783619D01*
X80867857Y-34688380D02*
X80867857Y-33688380D01*
X81248809Y-33688380D01*
X81344047Y-33736000D01*
X81391666Y-33783619D01*
X81439285Y-33878857D01*
X81439285Y-34021714D01*
X81391666Y-34116952D01*
X81344047Y-34164571D01*
X81248809Y-34212190D01*
X80867857Y-34212190D01*
X81867857Y-33688380D02*
X81867857Y-34497904D01*
X81915476Y-34593142D01*
X81963095Y-34640761D01*
X82058333Y-34688380D01*
X82248809Y-34688380D01*
X82344047Y-34640761D01*
X82391666Y-34593142D01*
X82439285Y-34497904D01*
X82439285Y-33688380D01*
X82867857Y-34640761D02*
X83010714Y-34688380D01*
X83248809Y-34688380D01*
X83344047Y-34640761D01*
X83391666Y-34593142D01*
X83439285Y-34497904D01*
X83439285Y-34402666D01*
X83391666Y-34307428D01*
X83344047Y-34259809D01*
X83248809Y-34212190D01*
X83058333Y-34164571D01*
X82963095Y-34116952D01*
X82915476Y-34069333D01*
X82867857Y-33974095D01*
X82867857Y-33878857D01*
X82915476Y-33783619D01*
X82963095Y-33736000D01*
X83058333Y-33688380D01*
X83296428Y-33688380D01*
X83439285Y-33736000D01*
X83867857Y-34688380D02*
X83867857Y-33688380D01*
X83867857Y-34164571D02*
X84439285Y-34164571D01*
X84439285Y-34688380D02*
X84439285Y-33688380D01*
%TO.C,SW11*%
X96963095Y-44640761D02*
X97105952Y-44688380D01*
X97344047Y-44688380D01*
X97439285Y-44640761D01*
X97486904Y-44593142D01*
X97534523Y-44497904D01*
X97534523Y-44402666D01*
X97486904Y-44307428D01*
X97439285Y-44259809D01*
X97344047Y-44212190D01*
X97153571Y-44164571D01*
X97058333Y-44116952D01*
X97010714Y-44069333D01*
X96963095Y-43974095D01*
X96963095Y-43878857D01*
X97010714Y-43783619D01*
X97058333Y-43736000D01*
X97153571Y-43688380D01*
X97391666Y-43688380D01*
X97534523Y-43736000D01*
X97867857Y-43688380D02*
X98105952Y-44688380D01*
X98296428Y-43974095D01*
X98486904Y-44688380D01*
X98725000Y-43688380D01*
X98867857Y-44783619D02*
X99629761Y-44783619D01*
X99867857Y-44688380D02*
X99867857Y-43688380D01*
X100248809Y-43688380D01*
X100344047Y-43736000D01*
X100391666Y-43783619D01*
X100439285Y-43878857D01*
X100439285Y-44021714D01*
X100391666Y-44116952D01*
X100344047Y-44164571D01*
X100248809Y-44212190D01*
X99867857Y-44212190D01*
X100867857Y-43688380D02*
X100867857Y-44497904D01*
X100915476Y-44593142D01*
X100963095Y-44640761D01*
X101058333Y-44688380D01*
X101248809Y-44688380D01*
X101344047Y-44640761D01*
X101391666Y-44593142D01*
X101439285Y-44497904D01*
X101439285Y-43688380D01*
X101867857Y-44640761D02*
X102010714Y-44688380D01*
X102248809Y-44688380D01*
X102344047Y-44640761D01*
X102391666Y-44593142D01*
X102439285Y-44497904D01*
X102439285Y-44402666D01*
X102391666Y-44307428D01*
X102344047Y-44259809D01*
X102248809Y-44212190D01*
X102058333Y-44164571D01*
X101963095Y-44116952D01*
X101915476Y-44069333D01*
X101867857Y-43974095D01*
X101867857Y-43878857D01*
X101915476Y-43783619D01*
X101963095Y-43736000D01*
X102058333Y-43688380D01*
X102296428Y-43688380D01*
X102439285Y-43736000D01*
X102867857Y-44688380D02*
X102867857Y-43688380D01*
X102867857Y-44164571D02*
X103439285Y-44164571D01*
X103439285Y-44688380D02*
X103439285Y-43688380D01*
%TO.C,SW12*%
X115963095Y-46640761D02*
X116105952Y-46688380D01*
X116344047Y-46688380D01*
X116439285Y-46640761D01*
X116486904Y-46593142D01*
X116534523Y-46497904D01*
X116534523Y-46402666D01*
X116486904Y-46307428D01*
X116439285Y-46259809D01*
X116344047Y-46212190D01*
X116153571Y-46164571D01*
X116058333Y-46116952D01*
X116010714Y-46069333D01*
X115963095Y-45974095D01*
X115963095Y-45878857D01*
X116010714Y-45783619D01*
X116058333Y-45736000D01*
X116153571Y-45688380D01*
X116391666Y-45688380D01*
X116534523Y-45736000D01*
X116867857Y-45688380D02*
X117105952Y-46688380D01*
X117296428Y-45974095D01*
X117486904Y-46688380D01*
X117725000Y-45688380D01*
X117867857Y-46783619D02*
X118629761Y-46783619D01*
X118867857Y-46688380D02*
X118867857Y-45688380D01*
X119248809Y-45688380D01*
X119344047Y-45736000D01*
X119391666Y-45783619D01*
X119439285Y-45878857D01*
X119439285Y-46021714D01*
X119391666Y-46116952D01*
X119344047Y-46164571D01*
X119248809Y-46212190D01*
X118867857Y-46212190D01*
X119867857Y-45688380D02*
X119867857Y-46497904D01*
X119915476Y-46593142D01*
X119963095Y-46640761D01*
X120058333Y-46688380D01*
X120248809Y-46688380D01*
X120344047Y-46640761D01*
X120391666Y-46593142D01*
X120439285Y-46497904D01*
X120439285Y-45688380D01*
X120867857Y-46640761D02*
X121010714Y-46688380D01*
X121248809Y-46688380D01*
X121344047Y-46640761D01*
X121391666Y-46593142D01*
X121439285Y-46497904D01*
X121439285Y-46402666D01*
X121391666Y-46307428D01*
X121344047Y-46259809D01*
X121248809Y-46212190D01*
X121058333Y-46164571D01*
X120963095Y-46116952D01*
X120915476Y-46069333D01*
X120867857Y-45974095D01*
X120867857Y-45878857D01*
X120915476Y-45783619D01*
X120963095Y-45736000D01*
X121058333Y-45688380D01*
X121296428Y-45688380D01*
X121439285Y-45736000D01*
X121867857Y-46688380D02*
X121867857Y-45688380D01*
X121867857Y-46164571D02*
X122439285Y-46164571D01*
X122439285Y-46688380D02*
X122439285Y-45688380D01*
%TO.C,SW13*%
X20963095Y-73490761D02*
X21105952Y-73538380D01*
X21344047Y-73538380D01*
X21439285Y-73490761D01*
X21486904Y-73443142D01*
X21534523Y-73347904D01*
X21534523Y-73252666D01*
X21486904Y-73157428D01*
X21439285Y-73109809D01*
X21344047Y-73062190D01*
X21153571Y-73014571D01*
X21058333Y-72966952D01*
X21010714Y-72919333D01*
X20963095Y-72824095D01*
X20963095Y-72728857D01*
X21010714Y-72633619D01*
X21058333Y-72586000D01*
X21153571Y-72538380D01*
X21391666Y-72538380D01*
X21534523Y-72586000D01*
X21867857Y-72538380D02*
X22105952Y-73538380D01*
X22296428Y-72824095D01*
X22486904Y-73538380D01*
X22725000Y-72538380D01*
X22867857Y-73633619D02*
X23629761Y-73633619D01*
X23867857Y-73538380D02*
X23867857Y-72538380D01*
X24248809Y-72538380D01*
X24344047Y-72586000D01*
X24391666Y-72633619D01*
X24439285Y-72728857D01*
X24439285Y-72871714D01*
X24391666Y-72966952D01*
X24344047Y-73014571D01*
X24248809Y-73062190D01*
X23867857Y-73062190D01*
X24867857Y-72538380D02*
X24867857Y-73347904D01*
X24915476Y-73443142D01*
X24963095Y-73490761D01*
X25058333Y-73538380D01*
X25248809Y-73538380D01*
X25344047Y-73490761D01*
X25391666Y-73443142D01*
X25439285Y-73347904D01*
X25439285Y-72538380D01*
X25867857Y-73490761D02*
X26010714Y-73538380D01*
X26248809Y-73538380D01*
X26344047Y-73490761D01*
X26391666Y-73443142D01*
X26439285Y-73347904D01*
X26439285Y-73252666D01*
X26391666Y-73157428D01*
X26344047Y-73109809D01*
X26248809Y-73062190D01*
X26058333Y-73014571D01*
X25963095Y-72966952D01*
X25915476Y-72919333D01*
X25867857Y-72824095D01*
X25867857Y-72728857D01*
X25915476Y-72633619D01*
X25963095Y-72586000D01*
X26058333Y-72538380D01*
X26296428Y-72538380D01*
X26439285Y-72586000D01*
X26867857Y-73538380D02*
X26867857Y-72538380D01*
X26867857Y-73014571D02*
X27439285Y-73014571D01*
X27439285Y-73538380D02*
X27439285Y-72538380D01*
%TO.C,SW14*%
X39963095Y-72190761D02*
X40105952Y-72238380D01*
X40344047Y-72238380D01*
X40439285Y-72190761D01*
X40486904Y-72143142D01*
X40534523Y-72047904D01*
X40534523Y-71952666D01*
X40486904Y-71857428D01*
X40439285Y-71809809D01*
X40344047Y-71762190D01*
X40153571Y-71714571D01*
X40058333Y-71666952D01*
X40010714Y-71619333D01*
X39963095Y-71524095D01*
X39963095Y-71428857D01*
X40010714Y-71333619D01*
X40058333Y-71286000D01*
X40153571Y-71238380D01*
X40391666Y-71238380D01*
X40534523Y-71286000D01*
X40867857Y-71238380D02*
X41105952Y-72238380D01*
X41296428Y-71524095D01*
X41486904Y-72238380D01*
X41725000Y-71238380D01*
X41867857Y-72333619D02*
X42629761Y-72333619D01*
X42867857Y-72238380D02*
X42867857Y-71238380D01*
X43248809Y-71238380D01*
X43344047Y-71286000D01*
X43391666Y-71333619D01*
X43439285Y-71428857D01*
X43439285Y-71571714D01*
X43391666Y-71666952D01*
X43344047Y-71714571D01*
X43248809Y-71762190D01*
X42867857Y-71762190D01*
X43867857Y-71238380D02*
X43867857Y-72047904D01*
X43915476Y-72143142D01*
X43963095Y-72190761D01*
X44058333Y-72238380D01*
X44248809Y-72238380D01*
X44344047Y-72190761D01*
X44391666Y-72143142D01*
X44439285Y-72047904D01*
X44439285Y-71238380D01*
X44867857Y-72190761D02*
X45010714Y-72238380D01*
X45248809Y-72238380D01*
X45344047Y-72190761D01*
X45391666Y-72143142D01*
X45439285Y-72047904D01*
X45439285Y-71952666D01*
X45391666Y-71857428D01*
X45344047Y-71809809D01*
X45248809Y-71762190D01*
X45058333Y-71714571D01*
X44963095Y-71666952D01*
X44915476Y-71619333D01*
X44867857Y-71524095D01*
X44867857Y-71428857D01*
X44915476Y-71333619D01*
X44963095Y-71286000D01*
X45058333Y-71238380D01*
X45296428Y-71238380D01*
X45439285Y-71286000D01*
X45867857Y-72238380D02*
X45867857Y-71238380D01*
X45867857Y-71714571D02*
X46439285Y-71714571D01*
X46439285Y-72238380D02*
X46439285Y-71238380D01*
%TO.C,SW16*%
X77963095Y-53640761D02*
X78105952Y-53688380D01*
X78344047Y-53688380D01*
X78439285Y-53640761D01*
X78486904Y-53593142D01*
X78534523Y-53497904D01*
X78534523Y-53402666D01*
X78486904Y-53307428D01*
X78439285Y-53259809D01*
X78344047Y-53212190D01*
X78153571Y-53164571D01*
X78058333Y-53116952D01*
X78010714Y-53069333D01*
X77963095Y-52974095D01*
X77963095Y-52878857D01*
X78010714Y-52783619D01*
X78058333Y-52736000D01*
X78153571Y-52688380D01*
X78391666Y-52688380D01*
X78534523Y-52736000D01*
X78867857Y-52688380D02*
X79105952Y-53688380D01*
X79296428Y-52974095D01*
X79486904Y-53688380D01*
X79725000Y-52688380D01*
X79867857Y-53783619D02*
X80629761Y-53783619D01*
X80867857Y-53688380D02*
X80867857Y-52688380D01*
X81248809Y-52688380D01*
X81344047Y-52736000D01*
X81391666Y-52783619D01*
X81439285Y-52878857D01*
X81439285Y-53021714D01*
X81391666Y-53116952D01*
X81344047Y-53164571D01*
X81248809Y-53212190D01*
X80867857Y-53212190D01*
X81867857Y-52688380D02*
X81867857Y-53497904D01*
X81915476Y-53593142D01*
X81963095Y-53640761D01*
X82058333Y-53688380D01*
X82248809Y-53688380D01*
X82344047Y-53640761D01*
X82391666Y-53593142D01*
X82439285Y-53497904D01*
X82439285Y-52688380D01*
X82867857Y-53640761D02*
X83010714Y-53688380D01*
X83248809Y-53688380D01*
X83344047Y-53640761D01*
X83391666Y-53593142D01*
X83439285Y-53497904D01*
X83439285Y-53402666D01*
X83391666Y-53307428D01*
X83344047Y-53259809D01*
X83248809Y-53212190D01*
X83058333Y-53164571D01*
X82963095Y-53116952D01*
X82915476Y-53069333D01*
X82867857Y-52974095D01*
X82867857Y-52878857D01*
X82915476Y-52783619D01*
X82963095Y-52736000D01*
X83058333Y-52688380D01*
X83296428Y-52688380D01*
X83439285Y-52736000D01*
X83867857Y-53688380D02*
X83867857Y-52688380D01*
X83867857Y-53164571D02*
X84439285Y-53164571D01*
X84439285Y-53688380D02*
X84439285Y-52688380D01*
%TO.C,SW17*%
X96963095Y-63640761D02*
X97105952Y-63688380D01*
X97344047Y-63688380D01*
X97439285Y-63640761D01*
X97486904Y-63593142D01*
X97534523Y-63497904D01*
X97534523Y-63402666D01*
X97486904Y-63307428D01*
X97439285Y-63259809D01*
X97344047Y-63212190D01*
X97153571Y-63164571D01*
X97058333Y-63116952D01*
X97010714Y-63069333D01*
X96963095Y-62974095D01*
X96963095Y-62878857D01*
X97010714Y-62783619D01*
X97058333Y-62736000D01*
X97153571Y-62688380D01*
X97391666Y-62688380D01*
X97534523Y-62736000D01*
X97867857Y-62688380D02*
X98105952Y-63688380D01*
X98296428Y-62974095D01*
X98486904Y-63688380D01*
X98725000Y-62688380D01*
X98867857Y-63783619D02*
X99629761Y-63783619D01*
X99867857Y-63688380D02*
X99867857Y-62688380D01*
X100248809Y-62688380D01*
X100344047Y-62736000D01*
X100391666Y-62783619D01*
X100439285Y-62878857D01*
X100439285Y-63021714D01*
X100391666Y-63116952D01*
X100344047Y-63164571D01*
X100248809Y-63212190D01*
X99867857Y-63212190D01*
X100867857Y-62688380D02*
X100867857Y-63497904D01*
X100915476Y-63593142D01*
X100963095Y-63640761D01*
X101058333Y-63688380D01*
X101248809Y-63688380D01*
X101344047Y-63640761D01*
X101391666Y-63593142D01*
X101439285Y-63497904D01*
X101439285Y-62688380D01*
X101867857Y-63640761D02*
X102010714Y-63688380D01*
X102248809Y-63688380D01*
X102344047Y-63640761D01*
X102391666Y-63593142D01*
X102439285Y-63497904D01*
X102439285Y-63402666D01*
X102391666Y-63307428D01*
X102344047Y-63259809D01*
X102248809Y-63212190D01*
X102058333Y-63164571D01*
X101963095Y-63116952D01*
X101915476Y-63069333D01*
X101867857Y-62974095D01*
X101867857Y-62878857D01*
X101915476Y-62783619D01*
X101963095Y-62736000D01*
X102058333Y-62688380D01*
X102296428Y-62688380D01*
X102439285Y-62736000D01*
X102867857Y-63688380D02*
X102867857Y-62688380D01*
X102867857Y-63164571D02*
X103439285Y-63164571D01*
X103439285Y-63688380D02*
X103439285Y-62688380D01*
%TO.C,SW20*%
X82575595Y-82649761D02*
X82718452Y-82697380D01*
X82956547Y-82697380D01*
X83051785Y-82649761D01*
X83099404Y-82602142D01*
X83147023Y-82506904D01*
X83147023Y-82411666D01*
X83099404Y-82316428D01*
X83051785Y-82268809D01*
X82956547Y-82221190D01*
X82766071Y-82173571D01*
X82670833Y-82125952D01*
X82623214Y-82078333D01*
X82575595Y-81983095D01*
X82575595Y-81887857D01*
X82623214Y-81792619D01*
X82670833Y-81745000D01*
X82766071Y-81697380D01*
X83004166Y-81697380D01*
X83147023Y-81745000D01*
X83480357Y-81697380D02*
X83718452Y-82697380D01*
X83908928Y-81983095D01*
X84099404Y-82697380D01*
X84337500Y-81697380D01*
X84480357Y-82792619D02*
X85242261Y-82792619D01*
X85480357Y-82697380D02*
X85480357Y-81697380D01*
X85861309Y-81697380D01*
X85956547Y-81745000D01*
X86004166Y-81792619D01*
X86051785Y-81887857D01*
X86051785Y-82030714D01*
X86004166Y-82125952D01*
X85956547Y-82173571D01*
X85861309Y-82221190D01*
X85480357Y-82221190D01*
X86480357Y-81697380D02*
X86480357Y-82506904D01*
X86527976Y-82602142D01*
X86575595Y-82649761D01*
X86670833Y-82697380D01*
X86861309Y-82697380D01*
X86956547Y-82649761D01*
X87004166Y-82602142D01*
X87051785Y-82506904D01*
X87051785Y-81697380D01*
X87480357Y-82649761D02*
X87623214Y-82697380D01*
X87861309Y-82697380D01*
X87956547Y-82649761D01*
X88004166Y-82602142D01*
X88051785Y-82506904D01*
X88051785Y-82411666D01*
X88004166Y-82316428D01*
X87956547Y-82268809D01*
X87861309Y-82221190D01*
X87670833Y-82173571D01*
X87575595Y-82125952D01*
X87527976Y-82078333D01*
X87480357Y-81983095D01*
X87480357Y-81887857D01*
X87527976Y-81792619D01*
X87575595Y-81745000D01*
X87670833Y-81697380D01*
X87908928Y-81697380D01*
X88051785Y-81745000D01*
X88480357Y-82697380D02*
X88480357Y-81697380D01*
X88480357Y-82173571D02*
X89051785Y-82173571D01*
X89051785Y-82697380D02*
X89051785Y-81697380D01*
%TO.C,SW21*%
X101575595Y-84649761D02*
X101718452Y-84697380D01*
X101956547Y-84697380D01*
X102051785Y-84649761D01*
X102099404Y-84602142D01*
X102147023Y-84506904D01*
X102147023Y-84411666D01*
X102099404Y-84316428D01*
X102051785Y-84268809D01*
X101956547Y-84221190D01*
X101766071Y-84173571D01*
X101670833Y-84125952D01*
X101623214Y-84078333D01*
X101575595Y-83983095D01*
X101575595Y-83887857D01*
X101623214Y-83792619D01*
X101670833Y-83745000D01*
X101766071Y-83697380D01*
X102004166Y-83697380D01*
X102147023Y-83745000D01*
X102480357Y-83697380D02*
X102718452Y-84697380D01*
X102908928Y-83983095D01*
X103099404Y-84697380D01*
X103337500Y-83697380D01*
X103480357Y-84792619D02*
X104242261Y-84792619D01*
X104480357Y-84697380D02*
X104480357Y-83697380D01*
X104861309Y-83697380D01*
X104956547Y-83745000D01*
X105004166Y-83792619D01*
X105051785Y-83887857D01*
X105051785Y-84030714D01*
X105004166Y-84125952D01*
X104956547Y-84173571D01*
X104861309Y-84221190D01*
X104480357Y-84221190D01*
X105480357Y-83697380D02*
X105480357Y-84506904D01*
X105527976Y-84602142D01*
X105575595Y-84649761D01*
X105670833Y-84697380D01*
X105861309Y-84697380D01*
X105956547Y-84649761D01*
X106004166Y-84602142D01*
X106051785Y-84506904D01*
X106051785Y-83697380D01*
X106480357Y-84649761D02*
X106623214Y-84697380D01*
X106861309Y-84697380D01*
X106956547Y-84649761D01*
X107004166Y-84602142D01*
X107051785Y-84506904D01*
X107051785Y-84411666D01*
X107004166Y-84316428D01*
X106956547Y-84268809D01*
X106861309Y-84221190D01*
X106670833Y-84173571D01*
X106575595Y-84125952D01*
X106527976Y-84078333D01*
X106480357Y-83983095D01*
X106480357Y-83887857D01*
X106527976Y-83792619D01*
X106575595Y-83745000D01*
X106670833Y-83697380D01*
X106908928Y-83697380D01*
X107051785Y-83745000D01*
X107480357Y-84697380D02*
X107480357Y-83697380D01*
X107480357Y-84173571D02*
X108051785Y-84173571D01*
X108051785Y-84697380D02*
X108051785Y-83697380D01*
%TO.C,R8*%
X155376785Y-62342380D02*
X155995833Y-62342380D01*
X155662500Y-62723333D01*
X155805357Y-62723333D01*
X155900595Y-62770952D01*
X155948214Y-62818571D01*
X155995833Y-62913809D01*
X155995833Y-63151904D01*
X155948214Y-63247142D01*
X155900595Y-63294761D01*
X155805357Y-63342380D01*
X155519642Y-63342380D01*
X155424404Y-63294761D01*
X155376785Y-63247142D01*
X156329166Y-62342380D02*
X156948214Y-62342380D01*
X156614880Y-62723333D01*
X156757738Y-62723333D01*
X156852976Y-62770952D01*
X156900595Y-62818571D01*
X156948214Y-62913809D01*
X156948214Y-63151904D01*
X156900595Y-63247142D01*
X156852976Y-63294761D01*
X156757738Y-63342380D01*
X156472023Y-63342380D01*
X156376785Y-63294761D01*
X156329166Y-63247142D01*
X157567261Y-62342380D02*
X157662500Y-62342380D01*
X157757738Y-62390000D01*
X157805357Y-62437619D01*
X157852976Y-62532857D01*
X157900595Y-62723333D01*
X157900595Y-62961428D01*
X157852976Y-63151904D01*
X157805357Y-63247142D01*
X157757738Y-63294761D01*
X157662500Y-63342380D01*
X157567261Y-63342380D01*
X157472023Y-63294761D01*
X157424404Y-63247142D01*
X157376785Y-63151904D01*
X157329166Y-62961428D01*
X157329166Y-62723333D01*
X157376785Y-62532857D01*
X157424404Y-62437619D01*
X157472023Y-62390000D01*
X157567261Y-62342380D01*
D14*
X156579166Y-64766190D02*
X156412500Y-64528095D01*
X156293452Y-64766190D02*
X156293452Y-64266190D01*
X156483928Y-64266190D01*
X156531547Y-64290000D01*
X156555357Y-64313809D01*
X156579166Y-64361428D01*
X156579166Y-64432857D01*
X156555357Y-64480476D01*
X156531547Y-64504285D01*
X156483928Y-64528095D01*
X156293452Y-64528095D01*
X156864880Y-64480476D02*
X156817261Y-64456666D01*
X156793452Y-64432857D01*
X156769642Y-64385238D01*
X156769642Y-64361428D01*
X156793452Y-64313809D01*
X156817261Y-64290000D01*
X156864880Y-64266190D01*
X156960119Y-64266190D01*
X157007738Y-64290000D01*
X157031547Y-64313809D01*
X157055357Y-64361428D01*
X157055357Y-64385238D01*
X157031547Y-64432857D01*
X157007738Y-64456666D01*
X156960119Y-64480476D01*
X156864880Y-64480476D01*
X156817261Y-64504285D01*
X156793452Y-64528095D01*
X156769642Y-64575714D01*
X156769642Y-64670952D01*
X156793452Y-64718571D01*
X156817261Y-64742380D01*
X156864880Y-64766190D01*
X156960119Y-64766190D01*
X157007738Y-64742380D01*
X157031547Y-64718571D01*
X157055357Y-64670952D01*
X157055357Y-64575714D01*
X157031547Y-64528095D01*
X157007738Y-64504285D01*
X156960119Y-64480476D01*
%TO.C,SW19*%
D11*
X57892380Y-99948571D02*
X57416190Y-100281904D01*
X57892380Y-100520000D02*
X56892380Y-100520000D01*
X56892380Y-100139047D01*
X56940000Y-100043809D01*
X56987619Y-99996190D01*
X57082857Y-99948571D01*
X57225714Y-99948571D01*
X57320952Y-99996190D01*
X57368571Y-100043809D01*
X57416190Y-100139047D01*
X57416190Y-100520000D01*
X57892380Y-99377142D02*
X57844761Y-99472380D01*
X57797142Y-99520000D01*
X57701904Y-99567619D01*
X57416190Y-99567619D01*
X57320952Y-99520000D01*
X57273333Y-99472380D01*
X57225714Y-99377142D01*
X57225714Y-99234285D01*
X57273333Y-99139047D01*
X57320952Y-99091428D01*
X57416190Y-99043809D01*
X57701904Y-99043809D01*
X57797142Y-99091428D01*
X57844761Y-99139047D01*
X57892380Y-99234285D01*
X57892380Y-99377142D01*
X57225714Y-98758095D02*
X57225714Y-98377142D01*
X56892380Y-98615238D02*
X57749523Y-98615238D01*
X57844761Y-98567619D01*
X57892380Y-98472380D01*
X57892380Y-98377142D01*
X57892380Y-97615238D02*
X57368571Y-97615238D01*
X57273333Y-97662857D01*
X57225714Y-97758095D01*
X57225714Y-97948571D01*
X57273333Y-98043809D01*
X57844761Y-97615238D02*
X57892380Y-97710476D01*
X57892380Y-97948571D01*
X57844761Y-98043809D01*
X57749523Y-98091428D01*
X57654285Y-98091428D01*
X57559047Y-98043809D01*
X57511428Y-97948571D01*
X57511428Y-97710476D01*
X57463809Y-97615238D01*
X57892380Y-97139047D02*
X57225714Y-97139047D01*
X57416190Y-97139047D02*
X57320952Y-97091428D01*
X57273333Y-97043809D01*
X57225714Y-96948571D01*
X57225714Y-96853333D01*
X57225714Y-96615238D02*
X57892380Y-96377142D01*
X57225714Y-96139047D02*
X57892380Y-96377142D01*
X58130476Y-96472380D01*
X58178095Y-96520000D01*
X58225714Y-96615238D01*
X57987619Y-95996190D02*
X57987619Y-95234285D01*
X57368571Y-94996190D02*
X57368571Y-94662857D01*
X57892380Y-94520000D02*
X57892380Y-94996190D01*
X56892380Y-94996190D01*
X56892380Y-94520000D01*
X57225714Y-94091428D02*
X57892380Y-94091428D01*
X57320952Y-94091428D02*
X57273333Y-94043809D01*
X57225714Y-93948571D01*
X57225714Y-93805714D01*
X57273333Y-93710476D01*
X57368571Y-93662857D01*
X57892380Y-93662857D01*
X57844761Y-92758095D02*
X57892380Y-92853333D01*
X57892380Y-93043809D01*
X57844761Y-93139047D01*
X57797142Y-93186666D01*
X57701904Y-93234285D01*
X57416190Y-93234285D01*
X57320952Y-93186666D01*
X57273333Y-93139047D01*
X57225714Y-93043809D01*
X57225714Y-92853333D01*
X57273333Y-92758095D01*
X57892380Y-92186666D02*
X57844761Y-92281904D01*
X57797142Y-92329523D01*
X57701904Y-92377142D01*
X57416190Y-92377142D01*
X57320952Y-92329523D01*
X57273333Y-92281904D01*
X57225714Y-92186666D01*
X57225714Y-92043809D01*
X57273333Y-91948571D01*
X57320952Y-91900952D01*
X57416190Y-91853333D01*
X57701904Y-91853333D01*
X57797142Y-91900952D01*
X57844761Y-91948571D01*
X57892380Y-92043809D01*
X57892380Y-92186666D01*
X57892380Y-90996190D02*
X56892380Y-90996190D01*
X57844761Y-90996190D02*
X57892380Y-91091428D01*
X57892380Y-91281904D01*
X57844761Y-91377142D01*
X57797142Y-91424761D01*
X57701904Y-91472380D01*
X57416190Y-91472380D01*
X57320952Y-91424761D01*
X57273333Y-91377142D01*
X57225714Y-91281904D01*
X57225714Y-91091428D01*
X57273333Y-90996190D01*
X57844761Y-90139047D02*
X57892380Y-90234285D01*
X57892380Y-90424761D01*
X57844761Y-90520000D01*
X57749523Y-90567619D01*
X57368571Y-90567619D01*
X57273333Y-90520000D01*
X57225714Y-90424761D01*
X57225714Y-90234285D01*
X57273333Y-90139047D01*
X57368571Y-90091428D01*
X57463809Y-90091428D01*
X57559047Y-90567619D01*
X57892380Y-89662857D02*
X57225714Y-89662857D01*
X57416190Y-89662857D02*
X57320952Y-89615238D01*
X57273333Y-89567619D01*
X57225714Y-89472380D01*
X57225714Y-89377142D01*
X63580476Y-99174761D02*
X63723333Y-99222380D01*
X63961428Y-99222380D01*
X64056666Y-99174761D01*
X64104285Y-99127142D01*
X64151904Y-99031904D01*
X64151904Y-98936666D01*
X64104285Y-98841428D01*
X64056666Y-98793809D01*
X63961428Y-98746190D01*
X63770952Y-98698571D01*
X63675714Y-98650952D01*
X63628095Y-98603333D01*
X63580476Y-98508095D01*
X63580476Y-98412857D01*
X63628095Y-98317619D01*
X63675714Y-98270000D01*
X63770952Y-98222380D01*
X64009047Y-98222380D01*
X64151904Y-98270000D01*
X64485238Y-98222380D02*
X64723333Y-99222380D01*
X64913809Y-98508095D01*
X65104285Y-99222380D01*
X65342380Y-98222380D01*
X66247142Y-99222380D02*
X65675714Y-99222380D01*
X65961428Y-99222380D02*
X65961428Y-98222380D01*
X65866190Y-98365238D01*
X65770952Y-98460476D01*
X65675714Y-98508095D01*
X66723333Y-99222380D02*
X66913809Y-99222380D01*
X67009047Y-99174761D01*
X67056666Y-99127142D01*
X67151904Y-98984285D01*
X67199523Y-98793809D01*
X67199523Y-98412857D01*
X67151904Y-98317619D01*
X67104285Y-98270000D01*
X67009047Y-98222380D01*
X66818571Y-98222380D01*
X66723333Y-98270000D01*
X66675714Y-98317619D01*
X66628095Y-98412857D01*
X66628095Y-98650952D01*
X66675714Y-98746190D01*
X66723333Y-98793809D01*
X66818571Y-98841428D01*
X67009047Y-98841428D01*
X67104285Y-98793809D01*
X67151904Y-98746190D01*
X67199523Y-98650952D01*
%TO.C,R4*%
X39445721Y-16187029D02*
X39445721Y-16663219D01*
X39921912Y-16710838D01*
X39874293Y-16663219D01*
X39826674Y-16567981D01*
X39826674Y-16329886D01*
X39874293Y-16234648D01*
X39921912Y-16187029D01*
X40017150Y-16139410D01*
X40255245Y-16139410D01*
X40350483Y-16187029D01*
X40398102Y-16234648D01*
X40445721Y-16329886D01*
X40445721Y-16567981D01*
X40398102Y-16663219D01*
X40350483Y-16710838D01*
X40350483Y-15710838D02*
X40398102Y-15663219D01*
X40445721Y-15710838D01*
X40398102Y-15758457D01*
X40350483Y-15710838D01*
X40445721Y-15710838D01*
X40445721Y-14710838D02*
X40445721Y-15282267D01*
X40445721Y-14996553D02*
X39445721Y-14996553D01*
X39588579Y-15091791D01*
X39683817Y-15187029D01*
X39731436Y-15282267D01*
X40445721Y-14282267D02*
X39445721Y-14282267D01*
X40064769Y-14187029D02*
X40445721Y-13901315D01*
X39779055Y-13901315D02*
X40160007Y-14282267D01*
D14*
X38569531Y-15389410D02*
X38331436Y-15556077D01*
X38569531Y-15675124D02*
X38069531Y-15675124D01*
X38069531Y-15484648D01*
X38093341Y-15437029D01*
X38117150Y-15413219D01*
X38164769Y-15389410D01*
X38236198Y-15389410D01*
X38283817Y-15413219D01*
X38307626Y-15437029D01*
X38331436Y-15484648D01*
X38331436Y-15675124D01*
X38236198Y-14960838D02*
X38569531Y-14960838D01*
X38045721Y-15079886D02*
X38402864Y-15198934D01*
X38402864Y-14889410D01*
%TO.C,R3*%
D11*
X29133331Y-20568242D02*
X29133331Y-21044432D01*
X29609522Y-21092051D01*
X29561903Y-21044432D01*
X29514284Y-20949194D01*
X29514284Y-20711099D01*
X29561903Y-20615861D01*
X29609522Y-20568242D01*
X29704760Y-20520623D01*
X29942855Y-20520623D01*
X30038093Y-20568242D01*
X30085712Y-20615861D01*
X30133331Y-20711099D01*
X30133331Y-20949194D01*
X30085712Y-21044432D01*
X30038093Y-21092051D01*
X30038093Y-20092051D02*
X30085712Y-20044432D01*
X30133331Y-20092051D01*
X30085712Y-20139670D01*
X30038093Y-20092051D01*
X30133331Y-20092051D01*
X30133331Y-19092051D02*
X30133331Y-19663480D01*
X30133331Y-19377766D02*
X29133331Y-19377766D01*
X29276189Y-19473004D01*
X29371427Y-19568242D01*
X29419046Y-19663480D01*
X30133331Y-18663480D02*
X29133331Y-18663480D01*
X29752379Y-18568242D02*
X30133331Y-18282528D01*
X29466665Y-18282528D02*
X29847617Y-18663480D01*
D14*
X28257141Y-19770623D02*
X28019046Y-19937290D01*
X28257141Y-20056337D02*
X27757141Y-20056337D01*
X27757141Y-19865861D01*
X27780951Y-19818242D01*
X27804760Y-19794432D01*
X27852379Y-19770623D01*
X27923808Y-19770623D01*
X27971427Y-19794432D01*
X27995236Y-19818242D01*
X28019046Y-19865861D01*
X28019046Y-20056337D01*
X27757141Y-19603956D02*
X27757141Y-19294432D01*
X27947617Y-19461099D01*
X27947617Y-19389670D01*
X27971427Y-19342051D01*
X27995236Y-19318242D01*
X28042855Y-19294432D01*
X28161903Y-19294432D01*
X28209522Y-19318242D01*
X28233331Y-19342051D01*
X28257141Y-19389670D01*
X28257141Y-19532528D01*
X28233331Y-19580147D01*
X28209522Y-19603956D01*
%TO.C,U2*%
D15*
X38428571Y-24589285D02*
X38428571Y-25196428D01*
X38464285Y-25267857D01*
X38500000Y-25303571D01*
X38571428Y-25339285D01*
X38714285Y-25339285D01*
X38785714Y-25303571D01*
X38821428Y-25267857D01*
X38857142Y-25196428D01*
X38857142Y-24589285D01*
X39178571Y-24660714D02*
X39214285Y-24625000D01*
X39285714Y-24589285D01*
X39464285Y-24589285D01*
X39535714Y-24625000D01*
X39571428Y-24660714D01*
X39607142Y-24732142D01*
X39607142Y-24803571D01*
X39571428Y-24910714D01*
X39142857Y-25339285D01*
X39607142Y-25339285D01*
%TO.C,R7*%
D11*
X130738095Y-65797619D02*
X130785714Y-65750000D01*
X130880952Y-65702380D01*
X131119047Y-65702380D01*
X131214285Y-65750000D01*
X131261904Y-65797619D01*
X131309523Y-65892857D01*
X131309523Y-65988095D01*
X131261904Y-66130952D01*
X130690476Y-66702380D01*
X131309523Y-66702380D01*
X131690476Y-65797619D02*
X131738095Y-65750000D01*
X131833333Y-65702380D01*
X132071428Y-65702380D01*
X132166666Y-65750000D01*
X132214285Y-65797619D01*
X132261904Y-65892857D01*
X132261904Y-65988095D01*
X132214285Y-66130952D01*
X131642857Y-66702380D01*
X132261904Y-66702380D01*
D14*
X131416666Y-68126190D02*
X131250000Y-67888095D01*
X131130952Y-68126190D02*
X131130952Y-67626190D01*
X131321428Y-67626190D01*
X131369047Y-67650000D01*
X131392857Y-67673809D01*
X131416666Y-67721428D01*
X131416666Y-67792857D01*
X131392857Y-67840476D01*
X131369047Y-67864285D01*
X131321428Y-67888095D01*
X131130952Y-67888095D01*
X131583333Y-67626190D02*
X131916666Y-67626190D01*
X131702380Y-68126190D01*
%TO.C,R5*%
D11*
X130738095Y-63297619D02*
X130785714Y-63250000D01*
X130880952Y-63202380D01*
X131119047Y-63202380D01*
X131214285Y-63250000D01*
X131261904Y-63297619D01*
X131309523Y-63392857D01*
X131309523Y-63488095D01*
X131261904Y-63630952D01*
X130690476Y-64202380D01*
X131309523Y-64202380D01*
X131690476Y-63297619D02*
X131738095Y-63250000D01*
X131833333Y-63202380D01*
X132071428Y-63202380D01*
X132166666Y-63250000D01*
X132214285Y-63297619D01*
X132261904Y-63392857D01*
X132261904Y-63488095D01*
X132214285Y-63630952D01*
X131642857Y-64202380D01*
X132261904Y-64202380D01*
D14*
X131416666Y-65626190D02*
X131250000Y-65388095D01*
X131130952Y-65626190D02*
X131130952Y-65126190D01*
X131321428Y-65126190D01*
X131369047Y-65150000D01*
X131392857Y-65173809D01*
X131416666Y-65221428D01*
X131416666Y-65292857D01*
X131392857Y-65340476D01*
X131369047Y-65364285D01*
X131321428Y-65388095D01*
X131130952Y-65388095D01*
X131869047Y-65126190D02*
X131630952Y-65126190D01*
X131607142Y-65364285D01*
X131630952Y-65340476D01*
X131678571Y-65316666D01*
X131797619Y-65316666D01*
X131845238Y-65340476D01*
X131869047Y-65364285D01*
X131892857Y-65411904D01*
X131892857Y-65530952D01*
X131869047Y-65578571D01*
X131845238Y-65602380D01*
X131797619Y-65626190D01*
X131678571Y-65626190D01*
X131630952Y-65602380D01*
X131607142Y-65578571D01*
%TO.C,R2*%
D11*
X156067261Y-64442380D02*
X155495833Y-64442380D01*
X155781547Y-64442380D02*
X155781547Y-63442380D01*
X155686309Y-63585238D01*
X155591071Y-63680476D01*
X155495833Y-63728095D01*
X156686309Y-63442380D02*
X156781547Y-63442380D01*
X156876785Y-63490000D01*
X156924404Y-63537619D01*
X156972023Y-63632857D01*
X157019642Y-63823333D01*
X157019642Y-64061428D01*
X156972023Y-64251904D01*
X156924404Y-64347142D01*
X156876785Y-64394761D01*
X156781547Y-64442380D01*
X156686309Y-64442380D01*
X156591071Y-64394761D01*
X156543452Y-64347142D01*
X156495833Y-64251904D01*
X156448214Y-64061428D01*
X156448214Y-63823333D01*
X156495833Y-63632857D01*
X156543452Y-63537619D01*
X156591071Y-63490000D01*
X156686309Y-63442380D01*
X157448214Y-64442380D02*
X157448214Y-63442380D01*
X157543452Y-64061428D02*
X157829166Y-64442380D01*
X157829166Y-63775714D02*
X157448214Y-64156666D01*
D14*
X156579166Y-62566190D02*
X156412500Y-62328095D01*
X156293452Y-62566190D02*
X156293452Y-62066190D01*
X156483928Y-62066190D01*
X156531547Y-62090000D01*
X156555357Y-62113809D01*
X156579166Y-62161428D01*
X156579166Y-62232857D01*
X156555357Y-62280476D01*
X156531547Y-62304285D01*
X156483928Y-62328095D01*
X156293452Y-62328095D01*
X156769642Y-62113809D02*
X156793452Y-62090000D01*
X156841071Y-62066190D01*
X156960119Y-62066190D01*
X157007738Y-62090000D01*
X157031547Y-62113809D01*
X157055357Y-62161428D01*
X157055357Y-62209047D01*
X157031547Y-62280476D01*
X156745833Y-62566190D01*
X157055357Y-62566190D01*
%TO.C,R1*%
D11*
X155272380Y-28086785D02*
X155272380Y-28658214D01*
X155272380Y-28372500D02*
X154272380Y-28372500D01*
X154415238Y-28467738D01*
X154510476Y-28562976D01*
X154558095Y-28658214D01*
X155272380Y-27658214D02*
X154272380Y-27658214D01*
X155272380Y-27086785D02*
X154700952Y-27515357D01*
X154272380Y-27086785D02*
X154843809Y-27658214D01*
D14*
X153396190Y-27955833D02*
X153158095Y-28122500D01*
X153396190Y-28241547D02*
X152896190Y-28241547D01*
X152896190Y-28051071D01*
X152920000Y-28003452D01*
X152943809Y-27979642D01*
X152991428Y-27955833D01*
X153062857Y-27955833D01*
X153110476Y-27979642D01*
X153134285Y-28003452D01*
X153158095Y-28051071D01*
X153158095Y-28241547D01*
X153396190Y-27479642D02*
X153396190Y-27765357D01*
X153396190Y-27622500D02*
X152896190Y-27622500D01*
X152967619Y-27670119D01*
X153015238Y-27717738D01*
X153039047Y-27765357D01*
%TO.C,F1*%
D11*
X19357142Y-28272380D02*
X19357142Y-27272380D01*
X19738095Y-27272380D01*
X19833333Y-27320000D01*
X19880952Y-27367619D01*
X19928571Y-27462857D01*
X19928571Y-27605714D01*
X19880952Y-27700952D01*
X19833333Y-27748571D01*
X19738095Y-27796190D01*
X19357142Y-27796190D01*
X20357142Y-28272380D02*
X20357142Y-27272380D01*
X20738095Y-27272380D01*
X20833333Y-27320000D01*
X20880952Y-27367619D01*
X20928571Y-27462857D01*
X20928571Y-27605714D01*
X20880952Y-27700952D01*
X20833333Y-27748571D01*
X20738095Y-27796190D01*
X20357142Y-27796190D01*
X21214285Y-27272380D02*
X21785714Y-27272380D01*
X21500000Y-28272380D02*
X21500000Y-27272380D01*
X22690476Y-28177142D02*
X22642857Y-28224761D01*
X22500000Y-28272380D01*
X22404761Y-28272380D01*
X22261904Y-28224761D01*
X22166666Y-28129523D01*
X22119047Y-28034285D01*
X22071428Y-27843809D01*
X22071428Y-27700952D01*
X22119047Y-27510476D01*
X22166666Y-27415238D01*
X22261904Y-27320000D01*
X22404761Y-27272380D01*
X22500000Y-27272380D01*
X22642857Y-27320000D01*
X22690476Y-27367619D01*
D12*
X20733333Y-25942857D02*
X20466666Y-25942857D01*
X20466666Y-26361904D02*
X20466666Y-25561904D01*
X20847619Y-25561904D01*
X21571428Y-26361904D02*
X21114285Y-26361904D01*
X21342857Y-26361904D02*
X21342857Y-25561904D01*
X21266666Y-25676190D01*
X21190476Y-25752380D01*
X21114285Y-25790476D01*
%TO.C,C19*%
D11*
X28928571Y-32202380D02*
X28357142Y-32202380D01*
X28642857Y-32202380D02*
X28642857Y-31202380D01*
X28547619Y-31345238D01*
X28452380Y-31440476D01*
X28357142Y-31488095D01*
X29547619Y-31202380D02*
X29642857Y-31202380D01*
X29738095Y-31250000D01*
X29785714Y-31297619D01*
X29833333Y-31392857D01*
X29880952Y-31583333D01*
X29880952Y-31821428D01*
X29833333Y-32011904D01*
X29785714Y-32107142D01*
X29738095Y-32154761D01*
X29642857Y-32202380D01*
X29547619Y-32202380D01*
X29452380Y-32154761D01*
X29404761Y-32107142D01*
X29357142Y-32011904D01*
X29309523Y-31821428D01*
X29309523Y-31583333D01*
X29357142Y-31392857D01*
X29404761Y-31297619D01*
X29452380Y-31250000D01*
X29547619Y-31202380D01*
X30738095Y-31535714D02*
X30738095Y-32202380D01*
X30309523Y-31535714D02*
X30309523Y-32059523D01*
X30357142Y-32154761D01*
X30452380Y-32202380D01*
X30595238Y-32202380D01*
X30690476Y-32154761D01*
X30738095Y-32107142D01*
X31547619Y-31678571D02*
X31214285Y-31678571D01*
X31214285Y-32202380D02*
X31214285Y-31202380D01*
X31690476Y-31202380D01*
D12*
X29485714Y-30285714D02*
X29447619Y-30323809D01*
X29333333Y-30361904D01*
X29257142Y-30361904D01*
X29142857Y-30323809D01*
X29066666Y-30247619D01*
X29028571Y-30171428D01*
X28990476Y-30019047D01*
X28990476Y-29904761D01*
X29028571Y-29752380D01*
X29066666Y-29676190D01*
X29142857Y-29600000D01*
X29257142Y-29561904D01*
X29333333Y-29561904D01*
X29447619Y-29600000D01*
X29485714Y-29638095D01*
X30247619Y-30361904D02*
X29790476Y-30361904D01*
X30019047Y-30361904D02*
X30019047Y-29561904D01*
X29942857Y-29676190D01*
X29866666Y-29752380D01*
X29790476Y-29790476D01*
X30628571Y-30361904D02*
X30780952Y-30361904D01*
X30857142Y-30323809D01*
X30895238Y-30285714D01*
X30971428Y-30171428D01*
X31009523Y-30019047D01*
X31009523Y-29714285D01*
X30971428Y-29638095D01*
X30933333Y-29600000D01*
X30857142Y-29561904D01*
X30704761Y-29561904D01*
X30628571Y-29600000D01*
X30590476Y-29638095D01*
X30552380Y-29714285D01*
X30552380Y-29904761D01*
X30590476Y-29980952D01*
X30628571Y-30019047D01*
X30704761Y-30057142D01*
X30857142Y-30057142D01*
X30933333Y-30019047D01*
X30971428Y-29980952D01*
X31009523Y-29904761D01*
%TO.C,C8*%
D11*
X47404761Y-27132380D02*
X46833333Y-27132380D01*
X47119047Y-27132380D02*
X47119047Y-26132380D01*
X47023809Y-26275238D01*
X46928571Y-26370476D01*
X46833333Y-26418095D01*
X48261904Y-26465714D02*
X48261904Y-27132380D01*
X47833333Y-26465714D02*
X47833333Y-26989523D01*
X47880952Y-27084761D01*
X47976190Y-27132380D01*
X48119047Y-27132380D01*
X48214285Y-27084761D01*
X48261904Y-27037142D01*
X49071428Y-26608571D02*
X48738095Y-26608571D01*
X48738095Y-27132380D02*
X48738095Y-26132380D01*
X49214285Y-26132380D01*
D14*
X47916666Y-25178571D02*
X47892857Y-25202380D01*
X47821428Y-25226190D01*
X47773809Y-25226190D01*
X47702380Y-25202380D01*
X47654761Y-25154761D01*
X47630952Y-25107142D01*
X47607142Y-25011904D01*
X47607142Y-24940476D01*
X47630952Y-24845238D01*
X47654761Y-24797619D01*
X47702380Y-24750000D01*
X47773809Y-24726190D01*
X47821428Y-24726190D01*
X47892857Y-24750000D01*
X47916666Y-24773809D01*
X48202380Y-24940476D02*
X48154761Y-24916666D01*
X48130952Y-24892857D01*
X48107142Y-24845238D01*
X48107142Y-24821428D01*
X48130952Y-24773809D01*
X48154761Y-24750000D01*
X48202380Y-24726190D01*
X48297619Y-24726190D01*
X48345238Y-24750000D01*
X48369047Y-24773809D01*
X48392857Y-24821428D01*
X48392857Y-24845238D01*
X48369047Y-24892857D01*
X48345238Y-24916666D01*
X48297619Y-24940476D01*
X48202380Y-24940476D01*
X48154761Y-24964285D01*
X48130952Y-24988095D01*
X48107142Y-25035714D01*
X48107142Y-25130952D01*
X48130952Y-25178571D01*
X48154761Y-25202380D01*
X48202380Y-25226190D01*
X48297619Y-25226190D01*
X48345238Y-25202380D01*
X48369047Y-25178571D01*
X48392857Y-25130952D01*
X48392857Y-25035714D01*
X48369047Y-24988095D01*
X48345238Y-24964285D01*
X48297619Y-24940476D01*
%TO.C,C7*%
D11*
X47404761Y-32132380D02*
X46833333Y-32132380D01*
X47119047Y-32132380D02*
X47119047Y-31132380D01*
X47023809Y-31275238D01*
X46928571Y-31370476D01*
X46833333Y-31418095D01*
X48261904Y-31465714D02*
X48261904Y-32132380D01*
X47833333Y-31465714D02*
X47833333Y-31989523D01*
X47880952Y-32084761D01*
X47976190Y-32132380D01*
X48119047Y-32132380D01*
X48214285Y-32084761D01*
X48261904Y-32037142D01*
X49071428Y-31608571D02*
X48738095Y-31608571D01*
X48738095Y-32132380D02*
X48738095Y-31132380D01*
X49214285Y-31132380D01*
D14*
X47916666Y-30178571D02*
X47892857Y-30202380D01*
X47821428Y-30226190D01*
X47773809Y-30226190D01*
X47702380Y-30202380D01*
X47654761Y-30154761D01*
X47630952Y-30107142D01*
X47607142Y-30011904D01*
X47607142Y-29940476D01*
X47630952Y-29845238D01*
X47654761Y-29797619D01*
X47702380Y-29750000D01*
X47773809Y-29726190D01*
X47821428Y-29726190D01*
X47892857Y-29750000D01*
X47916666Y-29773809D01*
X48083333Y-29726190D02*
X48416666Y-29726190D01*
X48202380Y-30226190D01*
%TO.C,C6*%
D11*
X37928571Y-32202380D02*
X37357142Y-32202380D01*
X37642857Y-32202380D02*
X37642857Y-31202380D01*
X37547619Y-31345238D01*
X37452380Y-31440476D01*
X37357142Y-31488095D01*
X38547619Y-31202380D02*
X38642857Y-31202380D01*
X38738095Y-31250000D01*
X38785714Y-31297619D01*
X38833333Y-31392857D01*
X38880952Y-31583333D01*
X38880952Y-31821428D01*
X38833333Y-32011904D01*
X38785714Y-32107142D01*
X38738095Y-32154761D01*
X38642857Y-32202380D01*
X38547619Y-32202380D01*
X38452380Y-32154761D01*
X38404761Y-32107142D01*
X38357142Y-32011904D01*
X38309523Y-31821428D01*
X38309523Y-31583333D01*
X38357142Y-31392857D01*
X38404761Y-31297619D01*
X38452380Y-31250000D01*
X38547619Y-31202380D01*
X39738095Y-31535714D02*
X39738095Y-32202380D01*
X39309523Y-31535714D02*
X39309523Y-32059523D01*
X39357142Y-32154761D01*
X39452380Y-32202380D01*
X39595238Y-32202380D01*
X39690476Y-32154761D01*
X39738095Y-32107142D01*
X40547619Y-31678571D02*
X40214285Y-31678571D01*
X40214285Y-32202380D02*
X40214285Y-31202380D01*
X40690476Y-31202380D01*
D12*
X38866666Y-30285714D02*
X38828571Y-30323809D01*
X38714285Y-30361904D01*
X38638095Y-30361904D01*
X38523809Y-30323809D01*
X38447619Y-30247619D01*
X38409523Y-30171428D01*
X38371428Y-30019047D01*
X38371428Y-29904761D01*
X38409523Y-29752380D01*
X38447619Y-29676190D01*
X38523809Y-29600000D01*
X38638095Y-29561904D01*
X38714285Y-29561904D01*
X38828571Y-29600000D01*
X38866666Y-29638095D01*
X39552380Y-29561904D02*
X39400000Y-29561904D01*
X39323809Y-29600000D01*
X39285714Y-29638095D01*
X39209523Y-29752380D01*
X39171428Y-29904761D01*
X39171428Y-30209523D01*
X39209523Y-30285714D01*
X39247619Y-30323809D01*
X39323809Y-30361904D01*
X39476190Y-30361904D01*
X39552380Y-30323809D01*
X39590476Y-30285714D01*
X39628571Y-30209523D01*
X39628571Y-30019047D01*
X39590476Y-29942857D01*
X39552380Y-29904761D01*
X39476190Y-29866666D01*
X39323809Y-29866666D01*
X39247619Y-29904761D01*
X39209523Y-29942857D01*
X39171428Y-30019047D01*
%TO.C,C3*%
D11*
X20404761Y-32132380D02*
X19833333Y-32132380D01*
X20119047Y-32132380D02*
X20119047Y-31132380D01*
X20023809Y-31275238D01*
X19928571Y-31370476D01*
X19833333Y-31418095D01*
X21261904Y-31465714D02*
X21261904Y-32132380D01*
X20833333Y-31465714D02*
X20833333Y-31989523D01*
X20880952Y-32084761D01*
X20976190Y-32132380D01*
X21119047Y-32132380D01*
X21214285Y-32084761D01*
X21261904Y-32037142D01*
X22071428Y-31608571D02*
X21738095Y-31608571D01*
X21738095Y-32132380D02*
X21738095Y-31132380D01*
X22214285Y-31132380D01*
D14*
X20916666Y-30178571D02*
X20892857Y-30202380D01*
X20821428Y-30226190D01*
X20773809Y-30226190D01*
X20702380Y-30202380D01*
X20654761Y-30154761D01*
X20630952Y-30107142D01*
X20607142Y-30011904D01*
X20607142Y-29940476D01*
X20630952Y-29845238D01*
X20654761Y-29797619D01*
X20702380Y-29750000D01*
X20773809Y-29726190D01*
X20821428Y-29726190D01*
X20892857Y-29750000D01*
X20916666Y-29773809D01*
X21083333Y-29726190D02*
X21392857Y-29726190D01*
X21226190Y-29916666D01*
X21297619Y-29916666D01*
X21345238Y-29940476D01*
X21369047Y-29964285D01*
X21392857Y-30011904D01*
X21392857Y-30130952D01*
X21369047Y-30178571D01*
X21345238Y-30202380D01*
X21297619Y-30226190D01*
X21154761Y-30226190D01*
X21107142Y-30202380D01*
X21083333Y-30178571D01*
%TO.C,C1*%
D11*
X129857142Y-64032380D02*
X129952380Y-64032380D01*
X130047619Y-64080000D01*
X130095238Y-64127619D01*
X130142857Y-64222857D01*
X130190476Y-64413333D01*
X130190476Y-64651428D01*
X130142857Y-64841904D01*
X130095238Y-64937142D01*
X130047619Y-64984761D01*
X129952380Y-65032380D01*
X129857142Y-65032380D01*
X129761904Y-64984761D01*
X129714285Y-64937142D01*
X129666666Y-64841904D01*
X129619047Y-64651428D01*
X129619047Y-64413333D01*
X129666666Y-64222857D01*
X129714285Y-64127619D01*
X129761904Y-64080000D01*
X129857142Y-64032380D01*
X130619047Y-64937142D02*
X130666666Y-64984761D01*
X130619047Y-65032380D01*
X130571428Y-64984761D01*
X130619047Y-64937142D01*
X130619047Y-65032380D01*
X131619047Y-65032380D02*
X131047619Y-65032380D01*
X131333333Y-65032380D02*
X131333333Y-64032380D01*
X131238095Y-64175238D01*
X131142857Y-64270476D01*
X131047619Y-64318095D01*
X132476190Y-64365714D02*
X132476190Y-65032380D01*
X132047619Y-64365714D02*
X132047619Y-64889523D01*
X132095238Y-64984761D01*
X132190476Y-65032380D01*
X132333333Y-65032380D01*
X132428571Y-64984761D01*
X132476190Y-64937142D01*
X133285714Y-64508571D02*
X132952380Y-64508571D01*
X132952380Y-65032380D02*
X132952380Y-64032380D01*
X133428571Y-64032380D01*
D14*
X131416666Y-63078571D02*
X131392857Y-63102380D01*
X131321428Y-63126190D01*
X131273809Y-63126190D01*
X131202380Y-63102380D01*
X131154761Y-63054761D01*
X131130952Y-63007142D01*
X131107142Y-62911904D01*
X131107142Y-62840476D01*
X131130952Y-62745238D01*
X131154761Y-62697619D01*
X131202380Y-62650000D01*
X131273809Y-62626190D01*
X131321428Y-62626190D01*
X131392857Y-62650000D01*
X131416666Y-62673809D01*
X131892857Y-63126190D02*
X131607142Y-63126190D01*
X131750000Y-63126190D02*
X131750000Y-62626190D01*
X131702380Y-62697619D01*
X131654761Y-62745238D01*
X131607142Y-62769047D01*
%TD*%
M02*
