%TF.GenerationSoftware,KiCad,Pcbnew,5.1.9*%
%TF.CreationDate,2021-05-05T06:58:16-05:00*%
%TF.ProjectId,monarch,6d6f6e61-7263-4682-9e6b-696361645f70,rev?*%
%TF.SameCoordinates,Original*%
%TF.FileFunction,Paste,Top*%
%TF.FilePolarity,Positive*%
%FSLAX46Y46*%
G04 Gerber Fmt 4.6, Leading zero omitted, Abs format (unit mm)*
G04 Created by KiCad (PCBNEW 5.1.9) date 2021-05-05 06:58:16*
%MOMM*%
%LPD*%
G01*
G04 APERTURE LIST*
%ADD10C,0.100000*%
%ADD11R,1.200000X0.900000*%
%ADD12R,0.900000X1.200000*%
%ADD13R,1.550000X1.300000*%
%ADD14R,1.501140X0.899160*%
%ADD15R,3.000000X3.000000*%
G04 APERTURE END LIST*
D10*
%TO.C,D23*%
G36*
X131450738Y-104107581D02*
G01*
X132632507Y-104315958D01*
X132476224Y-105202285D01*
X131294455Y-104993908D01*
X131450738Y-104107581D01*
G37*
G36*
X132023776Y-100857715D02*
G01*
X133205545Y-101066092D01*
X133049262Y-101952419D01*
X131867493Y-101744042D01*
X132023776Y-100857715D01*
G37*
%TD*%
D11*
%TO.C,D18*%
X127425000Y-72941000D03*
X127425000Y-69641000D03*
%TD*%
D12*
%TO.C,D25*%
X28350000Y-25000000D03*
X31650000Y-25000000D03*
%TD*%
D10*
%TO.C,D24*%
G36*
X150224219Y-107342514D02*
G01*
X151405988Y-107550891D01*
X151249705Y-108437218D01*
X150067936Y-108228841D01*
X150224219Y-107342514D01*
G37*
G36*
X150797257Y-104092648D02*
G01*
X151979026Y-104301025D01*
X151822743Y-105187352D01*
X150640974Y-104978975D01*
X150797257Y-104092648D01*
G37*
%TD*%
%TO.C,D22*%
G36*
X160487581Y-107239262D02*
G01*
X160695958Y-106057493D01*
X161582285Y-106213776D01*
X161373908Y-107395545D01*
X160487581Y-107239262D01*
G37*
G36*
X157237715Y-106666224D02*
G01*
X157446092Y-105484455D01*
X158332419Y-105640738D01*
X158124042Y-106822507D01*
X157237715Y-106666224D01*
G37*
%TD*%
D11*
%TO.C,D21*%
X113037500Y-91950000D03*
X113037500Y-88650000D03*
%TD*%
%TO.C,D20*%
X94037500Y-89950000D03*
X94037500Y-86650000D03*
%TD*%
D12*
%TO.C,D19*%
X71260000Y-94250000D03*
X74560000Y-94250000D03*
%TD*%
D11*
%TO.C,D17*%
X108425000Y-70941000D03*
X108425000Y-67641000D03*
%TD*%
%TO.C,D16*%
X89425000Y-60941000D03*
X89425000Y-57641000D03*
%TD*%
%TO.C,D15*%
X70425000Y-63941000D03*
X70425000Y-60641000D03*
%TD*%
%TO.C,D14*%
X51425000Y-79491000D03*
X51425000Y-76191000D03*
%TD*%
%TO.C,D13*%
X32425000Y-80791000D03*
X32425000Y-77491000D03*
%TD*%
%TO.C,D12*%
X127425000Y-53941000D03*
X127425000Y-50641000D03*
%TD*%
%TO.C,D11*%
X108425000Y-51941000D03*
X108425000Y-48641000D03*
%TD*%
%TO.C,D10*%
X89425000Y-41941000D03*
X89425000Y-38641000D03*
%TD*%
%TO.C,D9*%
X70425000Y-44941000D03*
X70425000Y-41641000D03*
%TD*%
%TO.C,D8*%
X51425000Y-60491000D03*
X51425000Y-57191000D03*
%TD*%
%TO.C,D7*%
X32420000Y-61840000D03*
X32420000Y-58540000D03*
%TD*%
%TO.C,D6*%
X127425000Y-34941000D03*
X127425000Y-31641000D03*
%TD*%
%TO.C,D5*%
X108425000Y-32941000D03*
X108425000Y-29641000D03*
%TD*%
%TO.C,D4*%
X89425000Y-22941000D03*
X89425000Y-19641000D03*
%TD*%
%TO.C,D3*%
X70425000Y-25941000D03*
X70425000Y-22641000D03*
%TD*%
%TO.C,D2*%
X51430000Y-41550000D03*
X51430000Y-38250000D03*
%TD*%
%TO.C,D1*%
X32425000Y-42791000D03*
X32425000Y-39491000D03*
%TD*%
D13*
%TO.C,Boot1*%
X139175000Y-59250000D03*
X139175000Y-54750000D03*
X131225000Y-54750000D03*
X131225000Y-59250000D03*
%TD*%
%TO.C,C5*%
G36*
G01*
X131050000Y-71025000D02*
X131050000Y-71975000D01*
G75*
G02*
X130800000Y-72225000I-250000J0D01*
G01*
X130300000Y-72225000D01*
G75*
G02*
X130050000Y-71975000I0J250000D01*
G01*
X130050000Y-71025000D01*
G75*
G02*
X130300000Y-70775000I250000J0D01*
G01*
X130800000Y-70775000D01*
G75*
G02*
X131050000Y-71025000I0J-250000D01*
G01*
G37*
G36*
G01*
X132950000Y-71025000D02*
X132950000Y-71975000D01*
G75*
G02*
X132700000Y-72225000I-250000J0D01*
G01*
X132200000Y-72225000D01*
G75*
G02*
X131950000Y-71975000I0J250000D01*
G01*
X131950000Y-71025000D01*
G75*
G02*
X132200000Y-70775000I250000J0D01*
G01*
X132700000Y-70775000D01*
G75*
G02*
X132950000Y-71025000I0J-250000D01*
G01*
G37*
%TD*%
D10*
%TO.C,U1*%
G36*
X136576090Y-69860610D02*
G01*
X136222536Y-69507056D01*
X137283196Y-68446396D01*
X137636750Y-68799950D01*
X136576090Y-69860610D01*
G37*
G36*
X137141775Y-70426295D02*
G01*
X136788221Y-70072741D01*
X137848881Y-69012081D01*
X138202435Y-69365635D01*
X137141775Y-70426295D01*
G37*
G36*
X137707461Y-70991981D02*
G01*
X137353907Y-70638427D01*
X138414567Y-69577767D01*
X138768121Y-69931321D01*
X137707461Y-70991981D01*
G37*
G36*
X138273146Y-71557666D02*
G01*
X137919592Y-71204112D01*
X138980252Y-70143452D01*
X139333806Y-70497006D01*
X138273146Y-71557666D01*
G37*
G36*
X138838832Y-72123352D02*
G01*
X138485278Y-71769798D01*
X139545938Y-70709138D01*
X139899492Y-71062692D01*
X138838832Y-72123352D01*
G37*
G36*
X139404517Y-72689037D02*
G01*
X139050963Y-72335483D01*
X140111623Y-71274823D01*
X140465177Y-71628377D01*
X139404517Y-72689037D01*
G37*
G36*
X139970202Y-73254722D02*
G01*
X139616648Y-72901168D01*
X140677308Y-71840508D01*
X141030862Y-72194062D01*
X139970202Y-73254722D01*
G37*
G36*
X140535888Y-73820408D02*
G01*
X140182334Y-73466854D01*
X141242994Y-72406194D01*
X141596548Y-72759748D01*
X140535888Y-73820408D01*
G37*
G36*
X141101573Y-74386093D02*
G01*
X140748019Y-74032539D01*
X141808679Y-72971879D01*
X142162233Y-73325433D01*
X141101573Y-74386093D01*
G37*
G36*
X141667259Y-74951779D02*
G01*
X141313705Y-74598225D01*
X142374365Y-73537565D01*
X142727919Y-73891119D01*
X141667259Y-74951779D01*
G37*
G36*
X142232944Y-75517464D02*
G01*
X141879390Y-75163910D01*
X142940050Y-74103250D01*
X143293604Y-74456804D01*
X142232944Y-75517464D01*
G37*
G36*
X145627056Y-75517464D02*
G01*
X144566396Y-74456804D01*
X144919950Y-74103250D01*
X145980610Y-75163910D01*
X145627056Y-75517464D01*
G37*
G36*
X146192741Y-74951779D02*
G01*
X145132081Y-73891119D01*
X145485635Y-73537565D01*
X146546295Y-74598225D01*
X146192741Y-74951779D01*
G37*
G36*
X146758427Y-74386093D02*
G01*
X145697767Y-73325433D01*
X146051321Y-72971879D01*
X147111981Y-74032539D01*
X146758427Y-74386093D01*
G37*
G36*
X147324112Y-73820408D02*
G01*
X146263452Y-72759748D01*
X146617006Y-72406194D01*
X147677666Y-73466854D01*
X147324112Y-73820408D01*
G37*
G36*
X147889798Y-73254722D02*
G01*
X146829138Y-72194062D01*
X147182692Y-71840508D01*
X148243352Y-72901168D01*
X147889798Y-73254722D01*
G37*
G36*
X148455483Y-72689037D02*
G01*
X147394823Y-71628377D01*
X147748377Y-71274823D01*
X148809037Y-72335483D01*
X148455483Y-72689037D01*
G37*
G36*
X149021168Y-72123352D02*
G01*
X147960508Y-71062692D01*
X148314062Y-70709138D01*
X149374722Y-71769798D01*
X149021168Y-72123352D01*
G37*
G36*
X149586854Y-71557666D02*
G01*
X148526194Y-70497006D01*
X148879748Y-70143452D01*
X149940408Y-71204112D01*
X149586854Y-71557666D01*
G37*
G36*
X150152539Y-70991981D02*
G01*
X149091879Y-69931321D01*
X149445433Y-69577767D01*
X150506093Y-70638427D01*
X150152539Y-70991981D01*
G37*
G36*
X150718225Y-70426295D02*
G01*
X149657565Y-69365635D01*
X150011119Y-69012081D01*
X151071779Y-70072741D01*
X150718225Y-70426295D01*
G37*
G36*
X151283910Y-69860610D02*
G01*
X150223250Y-68799950D01*
X150576804Y-68446396D01*
X151637464Y-69507056D01*
X151283910Y-69860610D01*
G37*
G36*
X150576804Y-67173604D02*
G01*
X150223250Y-66820050D01*
X151283910Y-65759390D01*
X151637464Y-66112944D01*
X150576804Y-67173604D01*
G37*
G36*
X150011119Y-66607919D02*
G01*
X149657565Y-66254365D01*
X150718225Y-65193705D01*
X151071779Y-65547259D01*
X150011119Y-66607919D01*
G37*
G36*
X149445433Y-66042233D02*
G01*
X149091879Y-65688679D01*
X150152539Y-64628019D01*
X150506093Y-64981573D01*
X149445433Y-66042233D01*
G37*
G36*
X148879748Y-65476548D02*
G01*
X148526194Y-65122994D01*
X149586854Y-64062334D01*
X149940408Y-64415888D01*
X148879748Y-65476548D01*
G37*
G36*
X148314062Y-64910862D02*
G01*
X147960508Y-64557308D01*
X149021168Y-63496648D01*
X149374722Y-63850202D01*
X148314062Y-64910862D01*
G37*
G36*
X147748377Y-64345177D02*
G01*
X147394823Y-63991623D01*
X148455483Y-62930963D01*
X148809037Y-63284517D01*
X147748377Y-64345177D01*
G37*
G36*
X147182692Y-63779492D02*
G01*
X146829138Y-63425938D01*
X147889798Y-62365278D01*
X148243352Y-62718832D01*
X147182692Y-63779492D01*
G37*
G36*
X146617006Y-63213806D02*
G01*
X146263452Y-62860252D01*
X147324112Y-61799592D01*
X147677666Y-62153146D01*
X146617006Y-63213806D01*
G37*
G36*
X146051321Y-62648121D02*
G01*
X145697767Y-62294567D01*
X146758427Y-61233907D01*
X147111981Y-61587461D01*
X146051321Y-62648121D01*
G37*
G36*
X145485635Y-62082435D02*
G01*
X145132081Y-61728881D01*
X146192741Y-60668221D01*
X146546295Y-61021775D01*
X145485635Y-62082435D01*
G37*
G36*
X144919950Y-61516750D02*
G01*
X144566396Y-61163196D01*
X145627056Y-60102536D01*
X145980610Y-60456090D01*
X144919950Y-61516750D01*
G37*
G36*
X142940050Y-61516750D02*
G01*
X141879390Y-60456090D01*
X142232944Y-60102536D01*
X143293604Y-61163196D01*
X142940050Y-61516750D01*
G37*
G36*
X142374365Y-62082435D02*
G01*
X141313705Y-61021775D01*
X141667259Y-60668221D01*
X142727919Y-61728881D01*
X142374365Y-62082435D01*
G37*
G36*
X141808679Y-62648121D02*
G01*
X140748019Y-61587461D01*
X141101573Y-61233907D01*
X142162233Y-62294567D01*
X141808679Y-62648121D01*
G37*
G36*
X141242994Y-63213806D02*
G01*
X140182334Y-62153146D01*
X140535888Y-61799592D01*
X141596548Y-62860252D01*
X141242994Y-63213806D01*
G37*
G36*
X140677308Y-63779492D02*
G01*
X139616648Y-62718832D01*
X139970202Y-62365278D01*
X141030862Y-63425938D01*
X140677308Y-63779492D01*
G37*
G36*
X140111623Y-64345177D02*
G01*
X139050963Y-63284517D01*
X139404517Y-62930963D01*
X140465177Y-63991623D01*
X140111623Y-64345177D01*
G37*
G36*
X139545938Y-64910862D02*
G01*
X138485278Y-63850202D01*
X138838832Y-63496648D01*
X139899492Y-64557308D01*
X139545938Y-64910862D01*
G37*
G36*
X138980252Y-65476548D02*
G01*
X137919592Y-64415888D01*
X138273146Y-64062334D01*
X139333806Y-65122994D01*
X138980252Y-65476548D01*
G37*
G36*
X138414567Y-66042233D02*
G01*
X137353907Y-64981573D01*
X137707461Y-64628019D01*
X138768121Y-65688679D01*
X138414567Y-66042233D01*
G37*
G36*
X137848881Y-66607919D02*
G01*
X136788221Y-65547259D01*
X137141775Y-65193705D01*
X138202435Y-66254365D01*
X137848881Y-66607919D01*
G37*
G36*
X137283196Y-67173604D02*
G01*
X136222536Y-66112944D01*
X136576090Y-65759390D01*
X137636750Y-66820050D01*
X137283196Y-67173604D01*
G37*
%TD*%
D14*
%TO.C,L39*%
X36249360Y-19600200D03*
X36249360Y-16399800D03*
X31250640Y-16399800D03*
X31250640Y-19600200D03*
%TD*%
D15*
%TO.C,BZ1*%
X75080000Y-79970000D03*
X57080000Y-79970000D03*
%TD*%
%TO.C,R6*%
G36*
G01*
X150570001Y-27937500D02*
X149669999Y-27937500D01*
G75*
G02*
X149420000Y-27687501I0J249999D01*
G01*
X149420000Y-27162499D01*
G75*
G02*
X149669999Y-26912500I249999J0D01*
G01*
X150570001Y-26912500D01*
G75*
G02*
X150820000Y-27162499I0J-249999D01*
G01*
X150820000Y-27687501D01*
G75*
G02*
X150570001Y-27937500I-249999J0D01*
G01*
G37*
G36*
G01*
X150570001Y-29762500D02*
X149669999Y-29762500D01*
G75*
G02*
X149420000Y-29512501I0J249999D01*
G01*
X149420000Y-28987499D01*
G75*
G02*
X149669999Y-28737500I249999J0D01*
G01*
X150570001Y-28737500D01*
G75*
G02*
X150820000Y-28987499I0J-249999D01*
G01*
X150820000Y-29512501D01*
G75*
G02*
X150570001Y-29762500I-249999J0D01*
G01*
G37*
%TD*%
D14*
%TO.C,L43*%
X124499360Y-21100200D03*
X124499360Y-17899800D03*
X119500640Y-17899800D03*
X119500640Y-21100200D03*
%TD*%
%TO.C,L42*%
X112249360Y-18100200D03*
X112249360Y-14899800D03*
X107250640Y-14899800D03*
X107250640Y-18100200D03*
%TD*%
%TO.C,L41*%
X95000640Y-15600200D03*
X95000640Y-12399800D03*
X99999360Y-12399800D03*
X99999360Y-15600200D03*
%TD*%
%TO.C,L40*%
X86499360Y-12100200D03*
X86499360Y-8899800D03*
X81500640Y-8899800D03*
X81500640Y-12100200D03*
%TD*%
%TO.C,L38*%
X48499360Y-16100200D03*
X48499360Y-12899800D03*
X43500640Y-12899800D03*
X43500640Y-16100200D03*
%TD*%
%TO.C,L37*%
X57000640Y-13190200D03*
X57000640Y-9989800D03*
X61999360Y-9989800D03*
X61999360Y-13190200D03*
%TD*%
%TO.C,L32*%
X74249360Y-12100200D03*
X74249360Y-8899800D03*
X69250640Y-8899800D03*
X69250640Y-12100200D03*
%TD*%
D13*
%TO.C,RESET_SW1*%
X148525000Y-59250000D03*
X148525000Y-54750000D03*
X156475000Y-54750000D03*
X156475000Y-59250000D03*
%TD*%
D14*
%TO.C,L36*%
X23999360Y-23600200D03*
X23999360Y-20399800D03*
X19000640Y-20399800D03*
X19000640Y-23600200D03*
%TD*%
%TO.C,R8*%
G36*
G01*
X156262500Y-64089999D02*
X156262500Y-64990001D01*
G75*
G02*
X156012501Y-65240000I-249999J0D01*
G01*
X155487499Y-65240000D01*
G75*
G02*
X155237500Y-64990001I0J249999D01*
G01*
X155237500Y-64089999D01*
G75*
G02*
X155487499Y-63840000I249999J0D01*
G01*
X156012501Y-63840000D01*
G75*
G02*
X156262500Y-64089999I0J-249999D01*
G01*
G37*
G36*
G01*
X158087500Y-64089999D02*
X158087500Y-64990001D01*
G75*
G02*
X157837501Y-65240000I-249999J0D01*
G01*
X157312499Y-65240000D01*
G75*
G02*
X157062500Y-64990001I0J249999D01*
G01*
X157062500Y-64089999D01*
G75*
G02*
X157312499Y-63840000I249999J0D01*
G01*
X157837501Y-63840000D01*
G75*
G02*
X158087500Y-64089999I0J-249999D01*
G01*
G37*
%TD*%
%TO.C,R4*%
G36*
G01*
X38793342Y-14906077D02*
X37893340Y-14906077D01*
G75*
G02*
X37643341Y-14656078I0J249999D01*
G01*
X37643341Y-14131076D01*
G75*
G02*
X37893340Y-13881077I249999J0D01*
G01*
X38793342Y-13881077D01*
G75*
G02*
X39043341Y-14131076I0J-249999D01*
G01*
X39043341Y-14656078D01*
G75*
G02*
X38793342Y-14906077I-249999J0D01*
G01*
G37*
G36*
G01*
X38793342Y-16731077D02*
X37893340Y-16731077D01*
G75*
G02*
X37643341Y-16481078I0J249999D01*
G01*
X37643341Y-15956076D01*
G75*
G02*
X37893340Y-15706077I249999J0D01*
G01*
X38793342Y-15706077D01*
G75*
G02*
X39043341Y-15956076I0J-249999D01*
G01*
X39043341Y-16481078D01*
G75*
G02*
X38793342Y-16731077I-249999J0D01*
G01*
G37*
%TD*%
%TO.C,R3*%
G36*
G01*
X28480952Y-19287290D02*
X27580950Y-19287290D01*
G75*
G02*
X27330951Y-19037291I0J249999D01*
G01*
X27330951Y-18512289D01*
G75*
G02*
X27580950Y-18262290I249999J0D01*
G01*
X28480952Y-18262290D01*
G75*
G02*
X28730951Y-18512289I0J-249999D01*
G01*
X28730951Y-19037291D01*
G75*
G02*
X28480952Y-19287290I-249999J0D01*
G01*
G37*
G36*
G01*
X28480952Y-21112290D02*
X27580950Y-21112290D01*
G75*
G02*
X27330951Y-20862291I0J249999D01*
G01*
X27330951Y-20337289D01*
G75*
G02*
X27580950Y-20087290I249999J0D01*
G01*
X28480952Y-20087290D01*
G75*
G02*
X28730951Y-20337289I0J-249999D01*
G01*
X28730951Y-20862291D01*
G75*
G02*
X28480952Y-21112290I-249999J0D01*
G01*
G37*
%TD*%
%TO.C,U2*%
G36*
G01*
X40300000Y-24125000D02*
X40300000Y-23925000D01*
G75*
G02*
X40400000Y-23825000I100000J0D01*
G01*
X41825000Y-23825000D01*
G75*
G02*
X41925000Y-23925000I0J-100000D01*
G01*
X41925000Y-24125000D01*
G75*
G02*
X41825000Y-24225000I-100000J0D01*
G01*
X40400000Y-24225000D01*
G75*
G02*
X40300000Y-24125000I0J100000D01*
G01*
G37*
G36*
G01*
X40300000Y-24775000D02*
X40300000Y-24575000D01*
G75*
G02*
X40400000Y-24475000I100000J0D01*
G01*
X41825000Y-24475000D01*
G75*
G02*
X41925000Y-24575000I0J-100000D01*
G01*
X41925000Y-24775000D01*
G75*
G02*
X41825000Y-24875000I-100000J0D01*
G01*
X40400000Y-24875000D01*
G75*
G02*
X40300000Y-24775000I0J100000D01*
G01*
G37*
G36*
G01*
X40300000Y-25425000D02*
X40300000Y-25225000D01*
G75*
G02*
X40400000Y-25125000I100000J0D01*
G01*
X41825000Y-25125000D01*
G75*
G02*
X41925000Y-25225000I0J-100000D01*
G01*
X41925000Y-25425000D01*
G75*
G02*
X41825000Y-25525000I-100000J0D01*
G01*
X40400000Y-25525000D01*
G75*
G02*
X40300000Y-25425000I0J100000D01*
G01*
G37*
G36*
G01*
X40300000Y-26075000D02*
X40300000Y-25875000D01*
G75*
G02*
X40400000Y-25775000I100000J0D01*
G01*
X41825000Y-25775000D01*
G75*
G02*
X41925000Y-25875000I0J-100000D01*
G01*
X41925000Y-26075000D01*
G75*
G02*
X41825000Y-26175000I-100000J0D01*
G01*
X40400000Y-26175000D01*
G75*
G02*
X40300000Y-26075000I0J100000D01*
G01*
G37*
G36*
G01*
X36075000Y-26075000D02*
X36075000Y-25875000D01*
G75*
G02*
X36175000Y-25775000I100000J0D01*
G01*
X37600000Y-25775000D01*
G75*
G02*
X37700000Y-25875000I0J-100000D01*
G01*
X37700000Y-26075000D01*
G75*
G02*
X37600000Y-26175000I-100000J0D01*
G01*
X36175000Y-26175000D01*
G75*
G02*
X36075000Y-26075000I0J100000D01*
G01*
G37*
G36*
G01*
X36075000Y-25425000D02*
X36075000Y-25225000D01*
G75*
G02*
X36175000Y-25125000I100000J0D01*
G01*
X37600000Y-25125000D01*
G75*
G02*
X37700000Y-25225000I0J-100000D01*
G01*
X37700000Y-25425000D01*
G75*
G02*
X37600000Y-25525000I-100000J0D01*
G01*
X36175000Y-25525000D01*
G75*
G02*
X36075000Y-25425000I0J100000D01*
G01*
G37*
G36*
G01*
X36075000Y-24775000D02*
X36075000Y-24575000D01*
G75*
G02*
X36175000Y-24475000I100000J0D01*
G01*
X37600000Y-24475000D01*
G75*
G02*
X37700000Y-24575000I0J-100000D01*
G01*
X37700000Y-24775000D01*
G75*
G02*
X37600000Y-24875000I-100000J0D01*
G01*
X36175000Y-24875000D01*
G75*
G02*
X36075000Y-24775000I0J100000D01*
G01*
G37*
G36*
G01*
X36075000Y-24125000D02*
X36075000Y-23925000D01*
G75*
G02*
X36175000Y-23825000I100000J0D01*
G01*
X37600000Y-23825000D01*
G75*
G02*
X37700000Y-23925000I0J-100000D01*
G01*
X37700000Y-24125000D01*
G75*
G02*
X37600000Y-24225000I-100000J0D01*
G01*
X36175000Y-24225000D01*
G75*
G02*
X36075000Y-24125000I0J100000D01*
G01*
G37*
%TD*%
%TO.C,R7*%
G36*
G01*
X131100000Y-67449999D02*
X131100000Y-68350001D01*
G75*
G02*
X130850001Y-68600000I-249999J0D01*
G01*
X130324999Y-68600000D01*
G75*
G02*
X130075000Y-68350001I0J249999D01*
G01*
X130075000Y-67449999D01*
G75*
G02*
X130324999Y-67200000I249999J0D01*
G01*
X130850001Y-67200000D01*
G75*
G02*
X131100000Y-67449999I0J-249999D01*
G01*
G37*
G36*
G01*
X132925000Y-67449999D02*
X132925000Y-68350001D01*
G75*
G02*
X132675001Y-68600000I-249999J0D01*
G01*
X132149999Y-68600000D01*
G75*
G02*
X131900000Y-68350001I0J249999D01*
G01*
X131900000Y-67449999D01*
G75*
G02*
X132149999Y-67200000I249999J0D01*
G01*
X132675001Y-67200000D01*
G75*
G02*
X132925000Y-67449999I0J-249999D01*
G01*
G37*
%TD*%
%TO.C,R5*%
G36*
G01*
X131100000Y-64949999D02*
X131100000Y-65850001D01*
G75*
G02*
X130850001Y-66100000I-249999J0D01*
G01*
X130324999Y-66100000D01*
G75*
G02*
X130075000Y-65850001I0J249999D01*
G01*
X130075000Y-64949999D01*
G75*
G02*
X130324999Y-64700000I249999J0D01*
G01*
X130850001Y-64700000D01*
G75*
G02*
X131100000Y-64949999I0J-249999D01*
G01*
G37*
G36*
G01*
X132925000Y-64949999D02*
X132925000Y-65850001D01*
G75*
G02*
X132675001Y-66100000I-249999J0D01*
G01*
X132149999Y-66100000D01*
G75*
G02*
X131900000Y-65850001I0J249999D01*
G01*
X131900000Y-64949999D01*
G75*
G02*
X132149999Y-64700000I249999J0D01*
G01*
X132675001Y-64700000D01*
G75*
G02*
X132925000Y-64949999I0J-249999D01*
G01*
G37*
%TD*%
%TO.C,R2*%
G36*
G01*
X157062500Y-62790001D02*
X157062500Y-61889999D01*
G75*
G02*
X157312499Y-61640000I249999J0D01*
G01*
X157837501Y-61640000D01*
G75*
G02*
X158087500Y-61889999I0J-249999D01*
G01*
X158087500Y-62790001D01*
G75*
G02*
X157837501Y-63040000I-249999J0D01*
G01*
X157312499Y-63040000D01*
G75*
G02*
X157062500Y-62790001I0J249999D01*
G01*
G37*
G36*
G01*
X155237500Y-62790001D02*
X155237500Y-61889999D01*
G75*
G02*
X155487499Y-61640000I249999J0D01*
G01*
X156012501Y-61640000D01*
G75*
G02*
X156262500Y-61889999I0J-249999D01*
G01*
X156262500Y-62790001D01*
G75*
G02*
X156012501Y-63040000I-249999J0D01*
G01*
X155487499Y-63040000D01*
G75*
G02*
X155237500Y-62790001I0J249999D01*
G01*
G37*
%TD*%
%TO.C,R1*%
G36*
G01*
X153620001Y-27472500D02*
X152719999Y-27472500D01*
G75*
G02*
X152470000Y-27222501I0J249999D01*
G01*
X152470000Y-26697499D01*
G75*
G02*
X152719999Y-26447500I249999J0D01*
G01*
X153620001Y-26447500D01*
G75*
G02*
X153870000Y-26697499I0J-249999D01*
G01*
X153870000Y-27222501D01*
G75*
G02*
X153620001Y-27472500I-249999J0D01*
G01*
G37*
G36*
G01*
X153620001Y-29297500D02*
X152719999Y-29297500D01*
G75*
G02*
X152470000Y-29047501I0J249999D01*
G01*
X152470000Y-28522499D01*
G75*
G02*
X152719999Y-28272500I249999J0D01*
G01*
X153620001Y-28272500D01*
G75*
G02*
X153870000Y-28522499I0J-249999D01*
G01*
X153870000Y-29047501D01*
G75*
G02*
X153620001Y-29297500I-249999J0D01*
G01*
G37*
%TD*%
%TO.C,F1*%
G36*
G01*
X21775000Y-26625000D02*
X21775000Y-25375000D01*
G75*
G02*
X22025000Y-25125000I250000J0D01*
G01*
X22775000Y-25125000D01*
G75*
G02*
X23025000Y-25375000I0J-250000D01*
G01*
X23025000Y-26625000D01*
G75*
G02*
X22775000Y-26875000I-250000J0D01*
G01*
X22025000Y-26875000D01*
G75*
G02*
X21775000Y-26625000I0J250000D01*
G01*
G37*
G36*
G01*
X18975000Y-26625000D02*
X18975000Y-25375000D01*
G75*
G02*
X19225000Y-25125000I250000J0D01*
G01*
X19975000Y-25125000D01*
G75*
G02*
X20225000Y-25375000I0J-250000D01*
G01*
X20225000Y-26625000D01*
G75*
G02*
X19975000Y-26875000I-250000J0D01*
G01*
X19225000Y-26875000D01*
G75*
G02*
X18975000Y-26625000I0J250000D01*
G01*
G37*
%TD*%
%TO.C,C19*%
G36*
G01*
X30650000Y-30425001D02*
X30650000Y-29574999D01*
G75*
G02*
X30899999Y-29325000I249999J0D01*
G01*
X31800001Y-29325000D01*
G75*
G02*
X32050000Y-29574999I0J-249999D01*
G01*
X32050000Y-30425001D01*
G75*
G02*
X31800001Y-30675000I-249999J0D01*
G01*
X30899999Y-30675000D01*
G75*
G02*
X30650000Y-30425001I0J249999D01*
G01*
G37*
G36*
G01*
X27950000Y-30425001D02*
X27950000Y-29574999D01*
G75*
G02*
X28199999Y-29325000I249999J0D01*
G01*
X29100001Y-29325000D01*
G75*
G02*
X29350000Y-29574999I0J-249999D01*
G01*
X29350000Y-30425001D01*
G75*
G02*
X29100001Y-30675000I-249999J0D01*
G01*
X28199999Y-30675000D01*
G75*
G02*
X27950000Y-30425001I0J249999D01*
G01*
G37*
%TD*%
%TO.C,C8*%
G36*
G01*
X48450000Y-25475000D02*
X48450000Y-24525000D01*
G75*
G02*
X48700000Y-24275000I250000J0D01*
G01*
X49200000Y-24275000D01*
G75*
G02*
X49450000Y-24525000I0J-250000D01*
G01*
X49450000Y-25475000D01*
G75*
G02*
X49200000Y-25725000I-250000J0D01*
G01*
X48700000Y-25725000D01*
G75*
G02*
X48450000Y-25475000I0J250000D01*
G01*
G37*
G36*
G01*
X46550000Y-25475000D02*
X46550000Y-24525000D01*
G75*
G02*
X46800000Y-24275000I250000J0D01*
G01*
X47300000Y-24275000D01*
G75*
G02*
X47550000Y-24525000I0J-250000D01*
G01*
X47550000Y-25475000D01*
G75*
G02*
X47300000Y-25725000I-250000J0D01*
G01*
X46800000Y-25725000D01*
G75*
G02*
X46550000Y-25475000I0J250000D01*
G01*
G37*
%TD*%
%TO.C,C7*%
G36*
G01*
X48450000Y-30475000D02*
X48450000Y-29525000D01*
G75*
G02*
X48700000Y-29275000I250000J0D01*
G01*
X49200000Y-29275000D01*
G75*
G02*
X49450000Y-29525000I0J-250000D01*
G01*
X49450000Y-30475000D01*
G75*
G02*
X49200000Y-30725000I-250000J0D01*
G01*
X48700000Y-30725000D01*
G75*
G02*
X48450000Y-30475000I0J250000D01*
G01*
G37*
G36*
G01*
X46550000Y-30475000D02*
X46550000Y-29525000D01*
G75*
G02*
X46800000Y-29275000I250000J0D01*
G01*
X47300000Y-29275000D01*
G75*
G02*
X47550000Y-29525000I0J-250000D01*
G01*
X47550000Y-30475000D01*
G75*
G02*
X47300000Y-30725000I-250000J0D01*
G01*
X46800000Y-30725000D01*
G75*
G02*
X46550000Y-30475000I0J250000D01*
G01*
G37*
%TD*%
%TO.C,C6*%
G36*
G01*
X39650000Y-30425001D02*
X39650000Y-29574999D01*
G75*
G02*
X39899999Y-29325000I249999J0D01*
G01*
X40800001Y-29325000D01*
G75*
G02*
X41050000Y-29574999I0J-249999D01*
G01*
X41050000Y-30425001D01*
G75*
G02*
X40800001Y-30675000I-249999J0D01*
G01*
X39899999Y-30675000D01*
G75*
G02*
X39650000Y-30425001I0J249999D01*
G01*
G37*
G36*
G01*
X36950000Y-30425001D02*
X36950000Y-29574999D01*
G75*
G02*
X37199999Y-29325000I249999J0D01*
G01*
X38100001Y-29325000D01*
G75*
G02*
X38350000Y-29574999I0J-249999D01*
G01*
X38350000Y-30425001D01*
G75*
G02*
X38100001Y-30675000I-249999J0D01*
G01*
X37199999Y-30675000D01*
G75*
G02*
X36950000Y-30425001I0J249999D01*
G01*
G37*
%TD*%
%TO.C,C3*%
G36*
G01*
X21450000Y-30475000D02*
X21450000Y-29525000D01*
G75*
G02*
X21700000Y-29275000I250000J0D01*
G01*
X22200000Y-29275000D01*
G75*
G02*
X22450000Y-29525000I0J-250000D01*
G01*
X22450000Y-30475000D01*
G75*
G02*
X22200000Y-30725000I-250000J0D01*
G01*
X21700000Y-30725000D01*
G75*
G02*
X21450000Y-30475000I0J250000D01*
G01*
G37*
G36*
G01*
X19550000Y-30475000D02*
X19550000Y-29525000D01*
G75*
G02*
X19800000Y-29275000I250000J0D01*
G01*
X20300000Y-29275000D01*
G75*
G02*
X20550000Y-29525000I0J-250000D01*
G01*
X20550000Y-30475000D01*
G75*
G02*
X20300000Y-30725000I-250000J0D01*
G01*
X19800000Y-30725000D01*
G75*
G02*
X19550000Y-30475000I0J250000D01*
G01*
G37*
%TD*%
%TO.C,C1*%
G36*
G01*
X131950000Y-63375000D02*
X131950000Y-62425000D01*
G75*
G02*
X132200000Y-62175000I250000J0D01*
G01*
X132700000Y-62175000D01*
G75*
G02*
X132950000Y-62425000I0J-250000D01*
G01*
X132950000Y-63375000D01*
G75*
G02*
X132700000Y-63625000I-250000J0D01*
G01*
X132200000Y-63625000D01*
G75*
G02*
X131950000Y-63375000I0J250000D01*
G01*
G37*
G36*
G01*
X130050000Y-63375000D02*
X130050000Y-62425000D01*
G75*
G02*
X130300000Y-62175000I250000J0D01*
G01*
X130800000Y-62175000D01*
G75*
G02*
X131050000Y-62425000I0J-250000D01*
G01*
X131050000Y-63375000D01*
G75*
G02*
X130800000Y-63625000I-250000J0D01*
G01*
X130300000Y-63625000D01*
G75*
G02*
X130050000Y-63375000I0J250000D01*
G01*
G37*
%TD*%
M02*
