%TF.GenerationSoftware,KiCad,Pcbnew,5.1.9*%
%TF.CreationDate,2021-05-05T06:58:16-05:00*%
%TF.ProjectId,monarch,6d6f6e61-7263-4682-9e6b-696361645f70,rev?*%
%TF.SameCoordinates,Original*%
%TF.FileFunction,Legend,Bot*%
%TF.FilePolarity,Positive*%
%FSLAX46Y46*%
G04 Gerber Fmt 4.6, Leading zero omitted, Abs format (unit mm)*
G04 Created by KiCad (PCBNEW 5.1.9) date 2021-05-05 06:58:16*
%MOMM*%
%LPD*%
G01*
G04 APERTURE LIST*
%ADD10C,0.120000*%
%ADD11C,0.200000*%
%ADD12C,0.150000*%
%ADD13C,0.100000*%
G04 APERTURE END LIST*
D10*
%TO.C,J2*%
X161361367Y-94665151D02*
X161517650Y-93778824D01*
X170411750Y-96260978D02*
X170568034Y-95374651D01*
X161986501Y-91119843D02*
X162460560Y-88431318D01*
X171036884Y-92715670D02*
X171510943Y-90027145D01*
X160944708Y-97719197D02*
X169758737Y-99273348D01*
X162460560Y-88431318D02*
X171510943Y-90027145D01*
D11*
%TO.C,L2*%
X95000640Y-11500640D02*
X95000640Y-16499360D01*
X95000000Y-16500000D02*
X100000000Y-16500000D01*
X99700000Y-11500000D02*
X100000000Y-11750000D01*
X100000000Y-11750000D02*
X100000000Y-16500000D01*
X99700000Y-11500000D02*
X95000000Y-11500000D01*
D12*
X97700000Y-11500000D02*
X100000000Y-13750000D01*
%TO.C,SW18*%
X125575000Y-74507000D02*
X125575000Y-74126000D01*
X114145000Y-77047000D02*
X114145000Y-76031000D01*
X114145000Y-76031000D02*
X119225000Y-76031000D01*
X121689162Y-74126000D02*
X123416000Y-74126000D01*
X125194000Y-74126000D02*
X125575000Y-74126000D01*
X125575000Y-77936000D02*
X125575000Y-77555000D01*
X123035000Y-80476000D02*
X114145000Y-80476000D01*
X114145000Y-80476000D02*
X114145000Y-80095000D01*
X125575000Y-77936000D02*
G75*
G02*
X123035000Y-80476000I-2540000J0D01*
G01*
X121689162Y-74107040D02*
G75*
G02*
X119225000Y-76031000I-2464162J616040D01*
G01*
D10*
%TO.C,J1*%
X27180000Y-5870000D02*
X36370000Y-5870000D01*
X27300000Y-15280000D02*
X36250000Y-15280000D01*
X36370000Y-8600000D02*
X36370000Y-5870000D01*
X27180000Y-8600000D02*
X27180000Y-5870000D01*
X36370000Y-12200000D02*
X36370000Y-11300000D01*
X27180000Y-12200000D02*
X27180000Y-11300000D01*
D12*
%TO.C,SW15*%
X68575000Y-65507000D02*
X68575000Y-65126000D01*
X57145000Y-68047000D02*
X57145000Y-67031000D01*
X57145000Y-67031000D02*
X62225000Y-67031000D01*
X64689162Y-65126000D02*
X66416000Y-65126000D01*
X68194000Y-65126000D02*
X68575000Y-65126000D01*
X68575000Y-68936000D02*
X68575000Y-68555000D01*
X66035000Y-71476000D02*
X57145000Y-71476000D01*
X57145000Y-71476000D02*
X57145000Y-71095000D01*
X68575000Y-68936000D02*
G75*
G02*
X66035000Y-71476000I-2540000J0D01*
G01*
X64689162Y-65107040D02*
G75*
G02*
X62225000Y-67031000I-2464162J616040D01*
G01*
%TO.C,SW22*%
X162623231Y-108922897D02*
X162248019Y-108856737D01*
X163139844Y-120620316D02*
X162139279Y-120443890D01*
X162139279Y-120443890D02*
X163021412Y-115441066D01*
X161573250Y-112683541D02*
X161873112Y-110982937D01*
X162181859Y-109231949D02*
X162248019Y-108856737D01*
X166000136Y-109518337D02*
X165624925Y-109452177D01*
X168060482Y-112460815D02*
X166516749Y-121215756D01*
X166516749Y-121215756D02*
X166141538Y-121149596D01*
X161554578Y-112680248D02*
G75*
G02*
X163021412Y-115441066I-1034578J-2319752D01*
G01*
X166000136Y-109518337D02*
G75*
G02*
X168060482Y-112460815I-441066J-2501412D01*
G01*
%TO.C,SW24*%
X136334244Y-112996749D02*
X136400404Y-112621538D01*
X145089185Y-114540482D02*
X136334244Y-112996749D01*
X148031663Y-112480136D02*
X148097823Y-112104925D01*
X148318051Y-108661859D02*
X148693263Y-108728019D01*
X144866459Y-108053250D02*
X146567063Y-108353112D01*
X137106110Y-108619279D02*
X142108934Y-109501412D01*
X136929684Y-109619844D02*
X137106110Y-108619279D01*
X148627103Y-109103231D02*
X148693263Y-108728019D01*
X148031663Y-112480136D02*
G75*
G02*
X145089185Y-114540482I-2501412J441066D01*
G01*
X144869752Y-108034578D02*
G75*
G02*
X142108934Y-109501412I-2319752J1034578D01*
G01*
%TO.C,SW23*%
X117534244Y-109646749D02*
X117600404Y-109271538D01*
X126289185Y-111190482D02*
X117534244Y-109646749D01*
X129231663Y-109130136D02*
X129297823Y-108754925D01*
X129518051Y-105311859D02*
X129893263Y-105378019D01*
X126066459Y-104703250D02*
X127767063Y-105003112D01*
X118306110Y-105269279D02*
X123308934Y-106151412D01*
X118129684Y-106269844D02*
X118306110Y-105269279D01*
X129827103Y-105753231D02*
X129893263Y-105378019D01*
X129231663Y-109130136D02*
G75*
G02*
X126289185Y-111190482I-2501412J441066D01*
G01*
X126069752Y-104684578D02*
G75*
G02*
X123308934Y-106151412I-2319752J1034578D01*
G01*
%TO.C,SW1*%
X30575000Y-44357000D02*
X30575000Y-43976000D01*
X19145000Y-46897000D02*
X19145000Y-45881000D01*
X19145000Y-45881000D02*
X24225000Y-45881000D01*
X26689162Y-43976000D02*
X28416000Y-43976000D01*
X30194000Y-43976000D02*
X30575000Y-43976000D01*
X30575000Y-47786000D02*
X30575000Y-47405000D01*
X28035000Y-50326000D02*
X19145000Y-50326000D01*
X19145000Y-50326000D02*
X19145000Y-49945000D01*
X30575000Y-47786000D02*
G75*
G02*
X28035000Y-50326000I-2540000J0D01*
G01*
X26689162Y-43957040D02*
G75*
G02*
X24225000Y-45881000I-2464162J616040D01*
G01*
%TO.C,SW2*%
X49575000Y-43057000D02*
X49575000Y-42676000D01*
X38145000Y-45597000D02*
X38145000Y-44581000D01*
X38145000Y-44581000D02*
X43225000Y-44581000D01*
X45689162Y-42676000D02*
X47416000Y-42676000D01*
X49194000Y-42676000D02*
X49575000Y-42676000D01*
X49575000Y-46486000D02*
X49575000Y-46105000D01*
X47035000Y-49026000D02*
X38145000Y-49026000D01*
X38145000Y-49026000D02*
X38145000Y-48645000D01*
X49575000Y-46486000D02*
G75*
G02*
X47035000Y-49026000I-2540000J0D01*
G01*
X45689162Y-42657040D02*
G75*
G02*
X43225000Y-44581000I-2464162J616040D01*
G01*
%TO.C,SW3*%
X68575000Y-27507000D02*
X68575000Y-27126000D01*
X57145000Y-30047000D02*
X57145000Y-29031000D01*
X57145000Y-29031000D02*
X62225000Y-29031000D01*
X64689162Y-27126000D02*
X66416000Y-27126000D01*
X68194000Y-27126000D02*
X68575000Y-27126000D01*
X68575000Y-30936000D02*
X68575000Y-30555000D01*
X66035000Y-33476000D02*
X57145000Y-33476000D01*
X57145000Y-33476000D02*
X57145000Y-33095000D01*
X68575000Y-30936000D02*
G75*
G02*
X66035000Y-33476000I-2540000J0D01*
G01*
X64689162Y-27107040D02*
G75*
G02*
X62225000Y-29031000I-2464162J616040D01*
G01*
%TO.C,SW4*%
X87575000Y-24507000D02*
X87575000Y-24126000D01*
X76145000Y-27047000D02*
X76145000Y-26031000D01*
X76145000Y-26031000D02*
X81225000Y-26031000D01*
X83689162Y-24126000D02*
X85416000Y-24126000D01*
X87194000Y-24126000D02*
X87575000Y-24126000D01*
X87575000Y-27936000D02*
X87575000Y-27555000D01*
X85035000Y-30476000D02*
X76145000Y-30476000D01*
X76145000Y-30476000D02*
X76145000Y-30095000D01*
X87575000Y-27936000D02*
G75*
G02*
X85035000Y-30476000I-2540000J0D01*
G01*
X83689162Y-24107040D02*
G75*
G02*
X81225000Y-26031000I-2464162J616040D01*
G01*
%TO.C,SW5*%
X95145000Y-40476000D02*
X95145000Y-40095000D01*
X104035000Y-40476000D02*
X95145000Y-40476000D01*
X106575000Y-37936000D02*
X106575000Y-37555000D01*
X106194000Y-34126000D02*
X106575000Y-34126000D01*
X102689162Y-34126000D02*
X104416000Y-34126000D01*
X95145000Y-36031000D02*
X100225000Y-36031000D01*
X95145000Y-37047000D02*
X95145000Y-36031000D01*
X106575000Y-34507000D02*
X106575000Y-34126000D01*
X102689162Y-34107040D02*
G75*
G02*
X100225000Y-36031000I-2464162J616040D01*
G01*
X106575000Y-37936000D02*
G75*
G02*
X104035000Y-40476000I-2540000J0D01*
G01*
%TO.C,SW6*%
X125575000Y-36507000D02*
X125575000Y-36126000D01*
X114145000Y-39047000D02*
X114145000Y-38031000D01*
X114145000Y-38031000D02*
X119225000Y-38031000D01*
X121689162Y-36126000D02*
X123416000Y-36126000D01*
X125194000Y-36126000D02*
X125575000Y-36126000D01*
X125575000Y-39936000D02*
X125575000Y-39555000D01*
X123035000Y-42476000D02*
X114145000Y-42476000D01*
X114145000Y-42476000D02*
X114145000Y-42095000D01*
X125575000Y-39936000D02*
G75*
G02*
X123035000Y-42476000I-2540000J0D01*
G01*
X121689162Y-36107040D02*
G75*
G02*
X119225000Y-38031000I-2464162J616040D01*
G01*
%TO.C,SW7*%
X30575000Y-63357000D02*
X30575000Y-62976000D01*
X19145000Y-65897000D02*
X19145000Y-64881000D01*
X19145000Y-64881000D02*
X24225000Y-64881000D01*
X26689162Y-62976000D02*
X28416000Y-62976000D01*
X30194000Y-62976000D02*
X30575000Y-62976000D01*
X30575000Y-66786000D02*
X30575000Y-66405000D01*
X28035000Y-69326000D02*
X19145000Y-69326000D01*
X19145000Y-69326000D02*
X19145000Y-68945000D01*
X30575000Y-66786000D02*
G75*
G02*
X28035000Y-69326000I-2540000J0D01*
G01*
X26689162Y-62957040D02*
G75*
G02*
X24225000Y-64881000I-2464162J616040D01*
G01*
%TO.C,SW8*%
X49575000Y-62057000D02*
X49575000Y-61676000D01*
X38145000Y-64597000D02*
X38145000Y-63581000D01*
X38145000Y-63581000D02*
X43225000Y-63581000D01*
X45689162Y-61676000D02*
X47416000Y-61676000D01*
X49194000Y-61676000D02*
X49575000Y-61676000D01*
X49575000Y-65486000D02*
X49575000Y-65105000D01*
X47035000Y-68026000D02*
X38145000Y-68026000D01*
X38145000Y-68026000D02*
X38145000Y-67645000D01*
X49575000Y-65486000D02*
G75*
G02*
X47035000Y-68026000I-2540000J0D01*
G01*
X45689162Y-61657040D02*
G75*
G02*
X43225000Y-63581000I-2464162J616040D01*
G01*
%TO.C,SW9*%
X68575000Y-46507000D02*
X68575000Y-46126000D01*
X57145000Y-49047000D02*
X57145000Y-48031000D01*
X57145000Y-48031000D02*
X62225000Y-48031000D01*
X64689162Y-46126000D02*
X66416000Y-46126000D01*
X68194000Y-46126000D02*
X68575000Y-46126000D01*
X68575000Y-49936000D02*
X68575000Y-49555000D01*
X66035000Y-52476000D02*
X57145000Y-52476000D01*
X57145000Y-52476000D02*
X57145000Y-52095000D01*
X68575000Y-49936000D02*
G75*
G02*
X66035000Y-52476000I-2540000J0D01*
G01*
X64689162Y-46107040D02*
G75*
G02*
X62225000Y-48031000I-2464162J616040D01*
G01*
%TO.C,SW10*%
X87575000Y-43507000D02*
X87575000Y-43126000D01*
X76145000Y-46047000D02*
X76145000Y-45031000D01*
X76145000Y-45031000D02*
X81225000Y-45031000D01*
X83689162Y-43126000D02*
X85416000Y-43126000D01*
X87194000Y-43126000D02*
X87575000Y-43126000D01*
X87575000Y-46936000D02*
X87575000Y-46555000D01*
X85035000Y-49476000D02*
X76145000Y-49476000D01*
X76145000Y-49476000D02*
X76145000Y-49095000D01*
X87575000Y-46936000D02*
G75*
G02*
X85035000Y-49476000I-2540000J0D01*
G01*
X83689162Y-43107040D02*
G75*
G02*
X81225000Y-45031000I-2464162J616040D01*
G01*
%TO.C,SW11*%
X106575000Y-53507000D02*
X106575000Y-53126000D01*
X95145000Y-56047000D02*
X95145000Y-55031000D01*
X95145000Y-55031000D02*
X100225000Y-55031000D01*
X102689162Y-53126000D02*
X104416000Y-53126000D01*
X106194000Y-53126000D02*
X106575000Y-53126000D01*
X106575000Y-56936000D02*
X106575000Y-56555000D01*
X104035000Y-59476000D02*
X95145000Y-59476000D01*
X95145000Y-59476000D02*
X95145000Y-59095000D01*
X106575000Y-56936000D02*
G75*
G02*
X104035000Y-59476000I-2540000J0D01*
G01*
X102689162Y-53107040D02*
G75*
G02*
X100225000Y-55031000I-2464162J616040D01*
G01*
%TO.C,SW12*%
X125575000Y-55507000D02*
X125575000Y-55126000D01*
X114145000Y-58047000D02*
X114145000Y-57031000D01*
X114145000Y-57031000D02*
X119225000Y-57031000D01*
X121689162Y-55126000D02*
X123416000Y-55126000D01*
X125194000Y-55126000D02*
X125575000Y-55126000D01*
X125575000Y-58936000D02*
X125575000Y-58555000D01*
X123035000Y-61476000D02*
X114145000Y-61476000D01*
X114145000Y-61476000D02*
X114145000Y-61095000D01*
X125575000Y-58936000D02*
G75*
G02*
X123035000Y-61476000I-2540000J0D01*
G01*
X121689162Y-55107040D02*
G75*
G02*
X119225000Y-57031000I-2464162J616040D01*
G01*
%TO.C,SW13*%
X30575000Y-82357000D02*
X30575000Y-81976000D01*
X19145000Y-84897000D02*
X19145000Y-83881000D01*
X19145000Y-83881000D02*
X24225000Y-83881000D01*
X26689162Y-81976000D02*
X28416000Y-81976000D01*
X30194000Y-81976000D02*
X30575000Y-81976000D01*
X30575000Y-85786000D02*
X30575000Y-85405000D01*
X28035000Y-88326000D02*
X19145000Y-88326000D01*
X19145000Y-88326000D02*
X19145000Y-87945000D01*
X30575000Y-85786000D02*
G75*
G02*
X28035000Y-88326000I-2540000J0D01*
G01*
X26689162Y-81957040D02*
G75*
G02*
X24225000Y-83881000I-2464162J616040D01*
G01*
%TO.C,SW14*%
X49575000Y-81057000D02*
X49575000Y-80676000D01*
X38145000Y-83597000D02*
X38145000Y-82581000D01*
X38145000Y-82581000D02*
X43225000Y-82581000D01*
X45689162Y-80676000D02*
X47416000Y-80676000D01*
X49194000Y-80676000D02*
X49575000Y-80676000D01*
X49575000Y-84486000D02*
X49575000Y-84105000D01*
X47035000Y-87026000D02*
X38145000Y-87026000D01*
X38145000Y-87026000D02*
X38145000Y-86645000D01*
X49575000Y-84486000D02*
G75*
G02*
X47035000Y-87026000I-2540000J0D01*
G01*
X45689162Y-80657040D02*
G75*
G02*
X43225000Y-82581000I-2464162J616040D01*
G01*
%TO.C,SW16*%
X87575000Y-62507000D02*
X87575000Y-62126000D01*
X76145000Y-65047000D02*
X76145000Y-64031000D01*
X76145000Y-64031000D02*
X81225000Y-64031000D01*
X83689162Y-62126000D02*
X85416000Y-62126000D01*
X87194000Y-62126000D02*
X87575000Y-62126000D01*
X87575000Y-65936000D02*
X87575000Y-65555000D01*
X85035000Y-68476000D02*
X76145000Y-68476000D01*
X76145000Y-68476000D02*
X76145000Y-68095000D01*
X87575000Y-65936000D02*
G75*
G02*
X85035000Y-68476000I-2540000J0D01*
G01*
X83689162Y-62107040D02*
G75*
G02*
X81225000Y-64031000I-2464162J616040D01*
G01*
%TO.C,SW17*%
X106575000Y-72507000D02*
X106575000Y-72126000D01*
X95145000Y-75047000D02*
X95145000Y-74031000D01*
X95145000Y-74031000D02*
X100225000Y-74031000D01*
X102689162Y-72126000D02*
X104416000Y-72126000D01*
X106194000Y-72126000D02*
X106575000Y-72126000D01*
X106575000Y-75936000D02*
X106575000Y-75555000D01*
X104035000Y-78476000D02*
X95145000Y-78476000D01*
X95145000Y-78476000D02*
X95145000Y-78095000D01*
X106575000Y-75936000D02*
G75*
G02*
X104035000Y-78476000I-2540000J0D01*
G01*
X102689162Y-72107040D02*
G75*
G02*
X100225000Y-74031000I-2464162J616040D01*
G01*
%TO.C,SW20*%
X92187500Y-91516000D02*
X92187500Y-91135000D01*
X80757500Y-94056000D02*
X80757500Y-93040000D01*
X80757500Y-93040000D02*
X85837500Y-93040000D01*
X88301662Y-91135000D02*
X90028500Y-91135000D01*
X91806500Y-91135000D02*
X92187500Y-91135000D01*
X92187500Y-94945000D02*
X92187500Y-94564000D01*
X89647500Y-97485000D02*
X80757500Y-97485000D01*
X80757500Y-97485000D02*
X80757500Y-97104000D01*
X92187500Y-94945000D02*
G75*
G02*
X89647500Y-97485000I-2540000J0D01*
G01*
X88301662Y-91116040D02*
G75*
G02*
X85837500Y-93040000I-2464162J616040D01*
G01*
%TO.C,SW21*%
X99757500Y-99485000D02*
X99757500Y-99104000D01*
X108647500Y-99485000D02*
X99757500Y-99485000D01*
X111187500Y-96945000D02*
X111187500Y-96564000D01*
X110806500Y-93135000D02*
X111187500Y-93135000D01*
X107301662Y-93135000D02*
X109028500Y-93135000D01*
X99757500Y-95040000D02*
X104837500Y-95040000D01*
X99757500Y-96056000D02*
X99757500Y-95040000D01*
X111187500Y-93516000D02*
X111187500Y-93135000D01*
X107301662Y-93116040D02*
G75*
G02*
X104837500Y-95040000I-2464162J616040D01*
G01*
X111187500Y-96945000D02*
G75*
G02*
X108647500Y-99485000I-2540000J0D01*
G01*
D11*
%TO.C,L35*%
X17660640Y-28090640D02*
X17660640Y-33089360D01*
X17660000Y-33090000D02*
X22660000Y-33090000D01*
X22360000Y-28090000D02*
X22660000Y-28340000D01*
X22660000Y-28340000D02*
X22660000Y-33090000D01*
X22360000Y-28090000D02*
X17660000Y-28090000D01*
D12*
X20360000Y-28090000D02*
X22660000Y-30340000D01*
%TO.C,L34*%
X20100000Y-69400000D02*
X22400000Y-71650000D01*
D11*
X22100000Y-69400000D02*
X17400000Y-69400000D01*
X22400000Y-69650000D02*
X22400000Y-74400000D01*
X22100000Y-69400000D02*
X22400000Y-69650000D01*
X17400000Y-74400000D02*
X22400000Y-74400000D01*
X17400640Y-69400640D02*
X17400640Y-74399360D01*
%TO.C,L33*%
X56770640Y-93510640D02*
X56770640Y-98509360D01*
X56770000Y-98510000D02*
X61770000Y-98510000D01*
X61470000Y-93510000D02*
X61770000Y-93760000D01*
X61770000Y-93760000D02*
X61770000Y-98510000D01*
X61470000Y-93510000D02*
X56770000Y-93510000D01*
D12*
X59470000Y-93510000D02*
X61770000Y-95760000D01*
D13*
%TO.C,L31*%
G36*
X156954946Y-111465646D02*
G01*
X156850757Y-112056530D01*
X157441641Y-112160719D01*
X156954946Y-111465646D01*
G37*
X156954946Y-111465646D02*
X156850757Y-112056530D01*
X157441641Y-112160719D01*
X156954946Y-111465646D01*
%TO.C,L30*%
G36*
X141235646Y-99835054D02*
G01*
X141826530Y-99939243D01*
X141930719Y-99348359D01*
X141235646Y-99835054D01*
G37*
X141235646Y-99835054D02*
X141826530Y-99939243D01*
X141930719Y-99348359D01*
X141235646Y-99835054D01*
%TO.C,L29*%
G36*
X122294150Y-96380857D02*
G01*
X122885034Y-96485046D01*
X122989223Y-95894162D01*
X122294150Y-96380857D01*
G37*
X122294150Y-96380857D02*
X122885034Y-96485046D01*
X122989223Y-95894162D01*
X122294150Y-96380857D01*
%TO.C,L28*%
G36*
X102037500Y-85600000D02*
G01*
X102637500Y-85600000D01*
X102637500Y-85000000D01*
X102037500Y-85600000D01*
G37*
X102037500Y-85600000D02*
X102637500Y-85600000D01*
X102637500Y-85000000D01*
X102037500Y-85600000D01*
%TO.C,L27*%
G36*
X83037500Y-83600000D02*
G01*
X83637500Y-83600000D01*
X83637500Y-83000000D01*
X83037500Y-83600000D01*
G37*
X83037500Y-83600000D02*
X83637500Y-83600000D01*
X83637500Y-83000000D01*
X83037500Y-83600000D01*
%TO.C,L26*%
G36*
X116425000Y-66591000D02*
G01*
X117025000Y-66591000D01*
X117025000Y-65991000D01*
X116425000Y-66591000D01*
G37*
X116425000Y-66591000D02*
X117025000Y-66591000D01*
X117025000Y-65991000D01*
X116425000Y-66591000D01*
%TO.C,L25*%
G36*
X97425000Y-64591000D02*
G01*
X98025000Y-64591000D01*
X98025000Y-63991000D01*
X97425000Y-64591000D01*
G37*
X97425000Y-64591000D02*
X98025000Y-64591000D01*
X98025000Y-63991000D01*
X97425000Y-64591000D01*
%TO.C,L24*%
G36*
X78425000Y-54591000D02*
G01*
X79025000Y-54591000D01*
X79025000Y-53991000D01*
X78425000Y-54591000D01*
G37*
X78425000Y-54591000D02*
X79025000Y-54591000D01*
X79025000Y-53991000D01*
X78425000Y-54591000D01*
%TO.C,L23*%
G36*
X59425000Y-57591000D02*
G01*
X60025000Y-57591000D01*
X60025000Y-56991000D01*
X59425000Y-57591000D01*
G37*
X59425000Y-57591000D02*
X60025000Y-57591000D01*
X60025000Y-56991000D01*
X59425000Y-57591000D01*
%TO.C,L22*%
G36*
X40425000Y-73141000D02*
G01*
X41025000Y-73141000D01*
X41025000Y-72541000D01*
X40425000Y-73141000D01*
G37*
X40425000Y-73141000D02*
X41025000Y-73141000D01*
X41025000Y-72541000D01*
X40425000Y-73141000D01*
%TO.C,L21*%
G36*
X21425000Y-74441000D02*
G01*
X22025000Y-74441000D01*
X22025000Y-73841000D01*
X21425000Y-74441000D01*
G37*
X21425000Y-74441000D02*
X22025000Y-74441000D01*
X22025000Y-73841000D01*
X21425000Y-74441000D01*
%TO.C,L20*%
G36*
X27025000Y-58241000D02*
G01*
X26425000Y-58241000D01*
X26425000Y-58841000D01*
X27025000Y-58241000D01*
G37*
X27025000Y-58241000D02*
X26425000Y-58241000D01*
X26425000Y-58841000D01*
X27025000Y-58241000D01*
%TO.C,L19*%
G36*
X46025000Y-56941000D02*
G01*
X45425000Y-56941000D01*
X45425000Y-57541000D01*
X46025000Y-56941000D01*
G37*
X46025000Y-56941000D02*
X45425000Y-56941000D01*
X45425000Y-57541000D01*
X46025000Y-56941000D01*
%TO.C,L18*%
G36*
X65025000Y-41391000D02*
G01*
X64425000Y-41391000D01*
X64425000Y-41991000D01*
X65025000Y-41391000D01*
G37*
X65025000Y-41391000D02*
X64425000Y-41391000D01*
X64425000Y-41991000D01*
X65025000Y-41391000D01*
%TO.C,L17*%
G36*
X84025000Y-38391000D02*
G01*
X83425000Y-38391000D01*
X83425000Y-38991000D01*
X84025000Y-38391000D01*
G37*
X84025000Y-38391000D02*
X83425000Y-38391000D01*
X83425000Y-38991000D01*
X84025000Y-38391000D01*
%TO.C,L16*%
G36*
X103025000Y-48391000D02*
G01*
X102425000Y-48391000D01*
X102425000Y-48991000D01*
X103025000Y-48391000D01*
G37*
X103025000Y-48391000D02*
X102425000Y-48391000D01*
X102425000Y-48991000D01*
X103025000Y-48391000D01*
%TO.C,L15*%
G36*
X122025000Y-50391000D02*
G01*
X121425000Y-50391000D01*
X121425000Y-50991000D01*
X122025000Y-50391000D01*
G37*
X122025000Y-50391000D02*
X121425000Y-50391000D01*
X121425000Y-50991000D01*
X122025000Y-50391000D01*
%TO.C,L14*%
G36*
X116425000Y-28591000D02*
G01*
X117025000Y-28591000D01*
X117025000Y-27991000D01*
X116425000Y-28591000D01*
G37*
X116425000Y-28591000D02*
X117025000Y-28591000D01*
X117025000Y-27991000D01*
X116425000Y-28591000D01*
%TO.C,L13*%
G36*
X97425000Y-26591000D02*
G01*
X98025000Y-26591000D01*
X98025000Y-25991000D01*
X97425000Y-26591000D01*
G37*
X97425000Y-26591000D02*
X98025000Y-26591000D01*
X98025000Y-25991000D01*
X97425000Y-26591000D01*
%TO.C,L12*%
G36*
X78425000Y-16591000D02*
G01*
X79025000Y-16591000D01*
X79025000Y-15991000D01*
X78425000Y-16591000D01*
G37*
X78425000Y-16591000D02*
X79025000Y-16591000D01*
X79025000Y-15991000D01*
X78425000Y-16591000D01*
%TO.C,L11*%
G36*
X59425000Y-19591000D02*
G01*
X60025000Y-19591000D01*
X60025000Y-18991000D01*
X59425000Y-19591000D01*
G37*
X59425000Y-19591000D02*
X60025000Y-19591000D01*
X60025000Y-18991000D01*
X59425000Y-19591000D01*
%TO.C,L10*%
G36*
X40425000Y-35141000D02*
G01*
X41025000Y-35141000D01*
X41025000Y-34541000D01*
X40425000Y-35141000D01*
G37*
X40425000Y-35141000D02*
X41025000Y-35141000D01*
X41025000Y-34541000D01*
X40425000Y-35141000D01*
%TO.C,L9*%
G36*
X21425000Y-36441000D02*
G01*
X22025000Y-36441000D01*
X22025000Y-35841000D01*
X21425000Y-36441000D01*
G37*
X21425000Y-36441000D02*
X22025000Y-36441000D01*
X22025000Y-35841000D01*
X21425000Y-36441000D01*
D11*
%TO.C,L8*%
X118682620Y-112504602D02*
X117814602Y-117427380D01*
X117813860Y-117427899D02*
X122737899Y-118296140D01*
X123310698Y-113320007D02*
X123562728Y-113618303D01*
X123562728Y-113618303D02*
X122737899Y-118296140D01*
X123310698Y-113320007D02*
X118682101Y-112503860D01*
D12*
X121341082Y-112972710D02*
X123215431Y-115587919D01*
D11*
%TO.C,L7*%
X152402620Y-118704602D02*
X151534602Y-123627380D01*
X151533860Y-123627899D02*
X156457899Y-124496140D01*
X157030698Y-119520007D02*
X157282728Y-119818303D01*
X157282728Y-119818303D02*
X156457899Y-124496140D01*
X157030698Y-119520007D02*
X152402101Y-118703860D01*
D12*
X155061082Y-119172710D02*
X156935431Y-121787919D01*
D11*
%TO.C,L6*%
X164032620Y-100814602D02*
X163164602Y-105737380D01*
X163163860Y-105737899D02*
X168087899Y-106606140D01*
X168660698Y-101630007D02*
X168912728Y-101928303D01*
X168912728Y-101928303D02*
X168087899Y-106606140D01*
X168660698Y-101630007D02*
X164032101Y-100813860D01*
D12*
X166691082Y-101282710D02*
X168565431Y-103897919D01*
D11*
%TO.C,L5*%
X148420640Y-78790640D02*
X148420640Y-83789360D01*
X148420000Y-83790000D02*
X153420000Y-83790000D01*
X153120000Y-78790000D02*
X153420000Y-79040000D01*
X153420000Y-79040000D02*
X153420000Y-83790000D01*
X153120000Y-78790000D02*
X148420000Y-78790000D01*
D12*
X151120000Y-78790000D02*
X153420000Y-81040000D01*
D11*
%TO.C,L4*%
X148110640Y-42750640D02*
X148110640Y-47749360D01*
X148110000Y-47750000D02*
X153110000Y-47750000D01*
X152810000Y-42750000D02*
X153110000Y-43000000D01*
X153110000Y-43000000D02*
X153110000Y-47750000D01*
X152810000Y-42750000D02*
X148110000Y-42750000D01*
D12*
X150810000Y-42750000D02*
X153110000Y-45000000D01*
D11*
%TO.C,L3*%
X127570640Y-19490640D02*
X127570640Y-24489360D01*
X127570000Y-24490000D02*
X132570000Y-24490000D01*
X132270000Y-19490000D02*
X132570000Y-19740000D01*
X132570000Y-19740000D02*
X132570000Y-24490000D01*
X132270000Y-19490000D02*
X127570000Y-19490000D01*
D12*
X130270000Y-19490000D02*
X132570000Y-21740000D01*
D11*
%TO.C,L1*%
X43500640Y-12000640D02*
X43500640Y-16999360D01*
X43500000Y-17000000D02*
X48500000Y-17000000D01*
X48200000Y-12000000D02*
X48500000Y-12250000D01*
X48500000Y-12250000D02*
X48500000Y-17000000D01*
X48200000Y-12000000D02*
X43500000Y-12000000D01*
D12*
X46200000Y-12000000D02*
X48500000Y-14250000D01*
%TO.C,J2*%
X165580598Y-99117840D02*
X165456563Y-99821274D01*
X165478652Y-99970230D01*
X165555905Y-100080559D01*
X165688323Y-100152261D01*
X165782114Y-100168799D01*
X165141999Y-99137210D02*
X165103373Y-99082046D01*
X165017851Y-99018612D01*
X164783372Y-98977267D01*
X164681312Y-99007625D01*
X164626148Y-99046252D01*
X164562714Y-99131774D01*
X164546176Y-99225565D01*
X164568265Y-99374521D01*
X165031785Y-100036496D01*
X164422142Y-99928999D01*
%TO.C,L2*%
D11*
X97606666Y-17862380D02*
X98082857Y-17862380D01*
X98082857Y-16862380D01*
X97320952Y-16957619D02*
X97273333Y-16910000D01*
X97178095Y-16862380D01*
X96940000Y-16862380D01*
X96844761Y-16910000D01*
X96797142Y-16957619D01*
X96749523Y-17052857D01*
X96749523Y-17148095D01*
X96797142Y-17290952D01*
X97368571Y-17862380D01*
X96749523Y-17862380D01*
%TO.C,SW18*%
D12*
X121034523Y-82150761D02*
X120891666Y-82198380D01*
X120653571Y-82198380D01*
X120558333Y-82150761D01*
X120510714Y-82103142D01*
X120463095Y-82007904D01*
X120463095Y-81912666D01*
X120510714Y-81817428D01*
X120558333Y-81769809D01*
X120653571Y-81722190D01*
X120844047Y-81674571D01*
X120939285Y-81626952D01*
X120986904Y-81579333D01*
X121034523Y-81484095D01*
X121034523Y-81388857D01*
X120986904Y-81293619D01*
X120939285Y-81246000D01*
X120844047Y-81198380D01*
X120605952Y-81198380D01*
X120463095Y-81246000D01*
X120129761Y-81198380D02*
X119891666Y-82198380D01*
X119701190Y-81484095D01*
X119510714Y-82198380D01*
X119272619Y-81198380D01*
X118367857Y-82198380D02*
X118939285Y-82198380D01*
X118653571Y-82198380D02*
X118653571Y-81198380D01*
X118748809Y-81341238D01*
X118844047Y-81436476D01*
X118939285Y-81484095D01*
X117796428Y-81626952D02*
X117891666Y-81579333D01*
X117939285Y-81531714D01*
X117986904Y-81436476D01*
X117986904Y-81388857D01*
X117939285Y-81293619D01*
X117891666Y-81246000D01*
X117796428Y-81198380D01*
X117605952Y-81198380D01*
X117510714Y-81246000D01*
X117463095Y-81293619D01*
X117415476Y-81388857D01*
X117415476Y-81436476D01*
X117463095Y-81531714D01*
X117510714Y-81579333D01*
X117605952Y-81626952D01*
X117796428Y-81626952D01*
X117891666Y-81674571D01*
X117939285Y-81722190D01*
X117986904Y-81817428D01*
X117986904Y-82007904D01*
X117939285Y-82103142D01*
X117891666Y-82150761D01*
X117796428Y-82198380D01*
X117605952Y-82198380D01*
X117510714Y-82150761D01*
X117463095Y-82103142D01*
X117415476Y-82007904D01*
X117415476Y-81817428D01*
X117463095Y-81722190D01*
X117510714Y-81674571D01*
X117605952Y-81626952D01*
%TO.C,J1*%
X32108333Y-15852380D02*
X32108333Y-16566666D01*
X32155952Y-16709523D01*
X32251190Y-16804761D01*
X32394047Y-16852380D01*
X32489285Y-16852380D01*
X31108333Y-16852380D02*
X31679761Y-16852380D01*
X31394047Y-16852380D02*
X31394047Y-15852380D01*
X31489285Y-15995238D01*
X31584523Y-16090476D01*
X31679761Y-16138095D01*
%TO.C,SW15*%
X64034523Y-73150761D02*
X63891666Y-73198380D01*
X63653571Y-73198380D01*
X63558333Y-73150761D01*
X63510714Y-73103142D01*
X63463095Y-73007904D01*
X63463095Y-72912666D01*
X63510714Y-72817428D01*
X63558333Y-72769809D01*
X63653571Y-72722190D01*
X63844047Y-72674571D01*
X63939285Y-72626952D01*
X63986904Y-72579333D01*
X64034523Y-72484095D01*
X64034523Y-72388857D01*
X63986904Y-72293619D01*
X63939285Y-72246000D01*
X63844047Y-72198380D01*
X63605952Y-72198380D01*
X63463095Y-72246000D01*
X63129761Y-72198380D02*
X62891666Y-73198380D01*
X62701190Y-72484095D01*
X62510714Y-73198380D01*
X62272619Y-72198380D01*
X61367857Y-73198380D02*
X61939285Y-73198380D01*
X61653571Y-73198380D02*
X61653571Y-72198380D01*
X61748809Y-72341238D01*
X61844047Y-72436476D01*
X61939285Y-72484095D01*
X60463095Y-72198380D02*
X60939285Y-72198380D01*
X60986904Y-72674571D01*
X60939285Y-72626952D01*
X60844047Y-72579333D01*
X60605952Y-72579333D01*
X60510714Y-72626952D01*
X60463095Y-72674571D01*
X60415476Y-72769809D01*
X60415476Y-73007904D01*
X60463095Y-73103142D01*
X60510714Y-73150761D01*
X60605952Y-73198380D01*
X60844047Y-73198380D01*
X60939285Y-73150761D01*
X60986904Y-73103142D01*
%TO.C,SW22*%
X169362421Y-114721719D02*
X169384509Y-114870674D01*
X169343165Y-115105152D01*
X169279731Y-115190675D01*
X169224566Y-115229301D01*
X169122506Y-115259659D01*
X169028715Y-115243121D01*
X168943193Y-115179688D01*
X168904566Y-115124523D01*
X168874209Y-115022463D01*
X168860389Y-114826611D01*
X168830031Y-114724551D01*
X168791404Y-114669387D01*
X168705882Y-114605953D01*
X168612091Y-114589415D01*
X168510031Y-114619773D01*
X168454866Y-114658400D01*
X168391433Y-114743922D01*
X168350088Y-114978400D01*
X168372177Y-115127356D01*
X168267398Y-115447356D02*
X169210861Y-115855482D01*
X168474351Y-115919030D01*
X169144710Y-116230647D01*
X168118557Y-116291477D01*
X168154465Y-116636284D02*
X168099301Y-116674911D01*
X168035867Y-116760433D01*
X167994523Y-116994911D01*
X168024880Y-117096971D01*
X168063507Y-117152136D01*
X168149029Y-117215569D01*
X168242820Y-117232107D01*
X168391776Y-117210018D01*
X169053751Y-116746499D01*
X168946254Y-117356142D01*
X167989086Y-117574196D02*
X167933922Y-117612823D01*
X167870488Y-117698345D01*
X167829143Y-117932823D01*
X167859501Y-118034883D01*
X167898128Y-118090048D01*
X167983650Y-118153481D01*
X168077441Y-118170019D01*
X168226397Y-118147931D01*
X168888372Y-117684411D01*
X168780875Y-118294054D01*
%TO.C,SW24*%
X142828280Y-115842421D02*
X142679325Y-115864509D01*
X142444847Y-115823165D01*
X142359324Y-115759731D01*
X142320698Y-115704566D01*
X142290340Y-115602506D01*
X142306878Y-115508715D01*
X142370311Y-115423193D01*
X142425476Y-115384566D01*
X142527536Y-115354209D01*
X142723388Y-115340389D01*
X142825448Y-115310031D01*
X142880612Y-115271404D01*
X142944046Y-115185882D01*
X142960584Y-115092091D01*
X142930226Y-114990031D01*
X142891599Y-114934866D01*
X142806077Y-114871433D01*
X142571599Y-114830088D01*
X142422643Y-114852177D01*
X142102643Y-114747398D02*
X141694517Y-115690861D01*
X141630969Y-114954351D01*
X141319352Y-115624710D01*
X141258522Y-114598557D01*
X140913715Y-114634465D02*
X140875088Y-114579301D01*
X140789566Y-114515867D01*
X140555088Y-114474523D01*
X140453028Y-114504880D01*
X140397863Y-114543507D01*
X140334430Y-114629029D01*
X140317892Y-114722820D01*
X140339981Y-114871776D01*
X140803500Y-115533751D01*
X140193857Y-115426254D01*
X139465502Y-114620875D02*
X139349737Y-115277413D01*
X139766132Y-114287055D02*
X139876575Y-115031834D01*
X139266932Y-114924337D01*
%TO.C,SW23*%
X124028280Y-112492421D02*
X123879325Y-112514509D01*
X123644847Y-112473165D01*
X123559324Y-112409731D01*
X123520698Y-112354566D01*
X123490340Y-112252506D01*
X123506878Y-112158715D01*
X123570311Y-112073193D01*
X123625476Y-112034566D01*
X123727536Y-112004209D01*
X123923388Y-111990389D01*
X124025448Y-111960031D01*
X124080612Y-111921404D01*
X124144046Y-111835882D01*
X124160584Y-111742091D01*
X124130226Y-111640031D01*
X124091599Y-111584866D01*
X124006077Y-111521433D01*
X123771599Y-111480088D01*
X123622643Y-111502177D01*
X123302643Y-111397398D02*
X122894517Y-112340861D01*
X122830969Y-111604351D01*
X122519352Y-112274710D01*
X122458522Y-111248557D01*
X122113715Y-111284465D02*
X122075088Y-111229301D01*
X121989566Y-111165867D01*
X121755088Y-111124523D01*
X121653028Y-111154880D01*
X121597863Y-111193507D01*
X121534430Y-111279029D01*
X121517892Y-111372820D01*
X121539981Y-111521776D01*
X122003500Y-112183751D01*
X121393857Y-112076254D01*
X121239236Y-111033564D02*
X120629593Y-110926068D01*
X120891711Y-111359115D01*
X120751024Y-111334308D01*
X120648964Y-111364666D01*
X120593799Y-111403293D01*
X120530366Y-111488815D01*
X120489021Y-111723293D01*
X120519379Y-111825353D01*
X120558005Y-111880518D01*
X120643528Y-111943951D01*
X120924901Y-111993565D01*
X121026962Y-111963207D01*
X121082126Y-111924581D01*
%TO.C,SW1*%
X25558333Y-52000761D02*
X25415476Y-52048380D01*
X25177380Y-52048380D01*
X25082142Y-52000761D01*
X25034523Y-51953142D01*
X24986904Y-51857904D01*
X24986904Y-51762666D01*
X25034523Y-51667428D01*
X25082142Y-51619809D01*
X25177380Y-51572190D01*
X25367857Y-51524571D01*
X25463095Y-51476952D01*
X25510714Y-51429333D01*
X25558333Y-51334095D01*
X25558333Y-51238857D01*
X25510714Y-51143619D01*
X25463095Y-51096000D01*
X25367857Y-51048380D01*
X25129761Y-51048380D01*
X24986904Y-51096000D01*
X24653571Y-51048380D02*
X24415476Y-52048380D01*
X24225000Y-51334095D01*
X24034523Y-52048380D01*
X23796428Y-51048380D01*
X22891666Y-52048380D02*
X23463095Y-52048380D01*
X23177380Y-52048380D02*
X23177380Y-51048380D01*
X23272619Y-51191238D01*
X23367857Y-51286476D01*
X23463095Y-51334095D01*
%TO.C,SW2*%
X44558333Y-50700761D02*
X44415476Y-50748380D01*
X44177380Y-50748380D01*
X44082142Y-50700761D01*
X44034523Y-50653142D01*
X43986904Y-50557904D01*
X43986904Y-50462666D01*
X44034523Y-50367428D01*
X44082142Y-50319809D01*
X44177380Y-50272190D01*
X44367857Y-50224571D01*
X44463095Y-50176952D01*
X44510714Y-50129333D01*
X44558333Y-50034095D01*
X44558333Y-49938857D01*
X44510714Y-49843619D01*
X44463095Y-49796000D01*
X44367857Y-49748380D01*
X44129761Y-49748380D01*
X43986904Y-49796000D01*
X43653571Y-49748380D02*
X43415476Y-50748380D01*
X43225000Y-50034095D01*
X43034523Y-50748380D01*
X42796428Y-49748380D01*
X42463095Y-49843619D02*
X42415476Y-49796000D01*
X42320238Y-49748380D01*
X42082142Y-49748380D01*
X41986904Y-49796000D01*
X41939285Y-49843619D01*
X41891666Y-49938857D01*
X41891666Y-50034095D01*
X41939285Y-50176952D01*
X42510714Y-50748380D01*
X41891666Y-50748380D01*
%TO.C,SW3*%
X63558333Y-35150761D02*
X63415476Y-35198380D01*
X63177380Y-35198380D01*
X63082142Y-35150761D01*
X63034523Y-35103142D01*
X62986904Y-35007904D01*
X62986904Y-34912666D01*
X63034523Y-34817428D01*
X63082142Y-34769809D01*
X63177380Y-34722190D01*
X63367857Y-34674571D01*
X63463095Y-34626952D01*
X63510714Y-34579333D01*
X63558333Y-34484095D01*
X63558333Y-34388857D01*
X63510714Y-34293619D01*
X63463095Y-34246000D01*
X63367857Y-34198380D01*
X63129761Y-34198380D01*
X62986904Y-34246000D01*
X62653571Y-34198380D02*
X62415476Y-35198380D01*
X62225000Y-34484095D01*
X62034523Y-35198380D01*
X61796428Y-34198380D01*
X61510714Y-34198380D02*
X60891666Y-34198380D01*
X61225000Y-34579333D01*
X61082142Y-34579333D01*
X60986904Y-34626952D01*
X60939285Y-34674571D01*
X60891666Y-34769809D01*
X60891666Y-35007904D01*
X60939285Y-35103142D01*
X60986904Y-35150761D01*
X61082142Y-35198380D01*
X61367857Y-35198380D01*
X61463095Y-35150761D01*
X61510714Y-35103142D01*
%TO.C,SW4*%
X82558333Y-32150761D02*
X82415476Y-32198380D01*
X82177380Y-32198380D01*
X82082142Y-32150761D01*
X82034523Y-32103142D01*
X81986904Y-32007904D01*
X81986904Y-31912666D01*
X82034523Y-31817428D01*
X82082142Y-31769809D01*
X82177380Y-31722190D01*
X82367857Y-31674571D01*
X82463095Y-31626952D01*
X82510714Y-31579333D01*
X82558333Y-31484095D01*
X82558333Y-31388857D01*
X82510714Y-31293619D01*
X82463095Y-31246000D01*
X82367857Y-31198380D01*
X82129761Y-31198380D01*
X81986904Y-31246000D01*
X81653571Y-31198380D02*
X81415476Y-32198380D01*
X81225000Y-31484095D01*
X81034523Y-32198380D01*
X80796428Y-31198380D01*
X79986904Y-31531714D02*
X79986904Y-32198380D01*
X80225000Y-31150761D02*
X80463095Y-31865047D01*
X79844047Y-31865047D01*
%TO.C,SW5*%
X101558333Y-42150761D02*
X101415476Y-42198380D01*
X101177380Y-42198380D01*
X101082142Y-42150761D01*
X101034523Y-42103142D01*
X100986904Y-42007904D01*
X100986904Y-41912666D01*
X101034523Y-41817428D01*
X101082142Y-41769809D01*
X101177380Y-41722190D01*
X101367857Y-41674571D01*
X101463095Y-41626952D01*
X101510714Y-41579333D01*
X101558333Y-41484095D01*
X101558333Y-41388857D01*
X101510714Y-41293619D01*
X101463095Y-41246000D01*
X101367857Y-41198380D01*
X101129761Y-41198380D01*
X100986904Y-41246000D01*
X100653571Y-41198380D02*
X100415476Y-42198380D01*
X100225000Y-41484095D01*
X100034523Y-42198380D01*
X99796428Y-41198380D01*
X98939285Y-41198380D02*
X99415476Y-41198380D01*
X99463095Y-41674571D01*
X99415476Y-41626952D01*
X99320238Y-41579333D01*
X99082142Y-41579333D01*
X98986904Y-41626952D01*
X98939285Y-41674571D01*
X98891666Y-41769809D01*
X98891666Y-42007904D01*
X98939285Y-42103142D01*
X98986904Y-42150761D01*
X99082142Y-42198380D01*
X99320238Y-42198380D01*
X99415476Y-42150761D01*
X99463095Y-42103142D01*
%TO.C,SW6*%
X120558333Y-44150761D02*
X120415476Y-44198380D01*
X120177380Y-44198380D01*
X120082142Y-44150761D01*
X120034523Y-44103142D01*
X119986904Y-44007904D01*
X119986904Y-43912666D01*
X120034523Y-43817428D01*
X120082142Y-43769809D01*
X120177380Y-43722190D01*
X120367857Y-43674571D01*
X120463095Y-43626952D01*
X120510714Y-43579333D01*
X120558333Y-43484095D01*
X120558333Y-43388857D01*
X120510714Y-43293619D01*
X120463095Y-43246000D01*
X120367857Y-43198380D01*
X120129761Y-43198380D01*
X119986904Y-43246000D01*
X119653571Y-43198380D02*
X119415476Y-44198380D01*
X119225000Y-43484095D01*
X119034523Y-44198380D01*
X118796428Y-43198380D01*
X117986904Y-43198380D02*
X118177380Y-43198380D01*
X118272619Y-43246000D01*
X118320238Y-43293619D01*
X118415476Y-43436476D01*
X118463095Y-43626952D01*
X118463095Y-44007904D01*
X118415476Y-44103142D01*
X118367857Y-44150761D01*
X118272619Y-44198380D01*
X118082142Y-44198380D01*
X117986904Y-44150761D01*
X117939285Y-44103142D01*
X117891666Y-44007904D01*
X117891666Y-43769809D01*
X117939285Y-43674571D01*
X117986904Y-43626952D01*
X118082142Y-43579333D01*
X118272619Y-43579333D01*
X118367857Y-43626952D01*
X118415476Y-43674571D01*
X118463095Y-43769809D01*
%TO.C,SW7*%
X25558333Y-71000761D02*
X25415476Y-71048380D01*
X25177380Y-71048380D01*
X25082142Y-71000761D01*
X25034523Y-70953142D01*
X24986904Y-70857904D01*
X24986904Y-70762666D01*
X25034523Y-70667428D01*
X25082142Y-70619809D01*
X25177380Y-70572190D01*
X25367857Y-70524571D01*
X25463095Y-70476952D01*
X25510714Y-70429333D01*
X25558333Y-70334095D01*
X25558333Y-70238857D01*
X25510714Y-70143619D01*
X25463095Y-70096000D01*
X25367857Y-70048380D01*
X25129761Y-70048380D01*
X24986904Y-70096000D01*
X24653571Y-70048380D02*
X24415476Y-71048380D01*
X24225000Y-70334095D01*
X24034523Y-71048380D01*
X23796428Y-70048380D01*
X23510714Y-70048380D02*
X22844047Y-70048380D01*
X23272619Y-71048380D01*
%TO.C,SW8*%
X44558333Y-69700761D02*
X44415476Y-69748380D01*
X44177380Y-69748380D01*
X44082142Y-69700761D01*
X44034523Y-69653142D01*
X43986904Y-69557904D01*
X43986904Y-69462666D01*
X44034523Y-69367428D01*
X44082142Y-69319809D01*
X44177380Y-69272190D01*
X44367857Y-69224571D01*
X44463095Y-69176952D01*
X44510714Y-69129333D01*
X44558333Y-69034095D01*
X44558333Y-68938857D01*
X44510714Y-68843619D01*
X44463095Y-68796000D01*
X44367857Y-68748380D01*
X44129761Y-68748380D01*
X43986904Y-68796000D01*
X43653571Y-68748380D02*
X43415476Y-69748380D01*
X43225000Y-69034095D01*
X43034523Y-69748380D01*
X42796428Y-68748380D01*
X42272619Y-69176952D02*
X42367857Y-69129333D01*
X42415476Y-69081714D01*
X42463095Y-68986476D01*
X42463095Y-68938857D01*
X42415476Y-68843619D01*
X42367857Y-68796000D01*
X42272619Y-68748380D01*
X42082142Y-68748380D01*
X41986904Y-68796000D01*
X41939285Y-68843619D01*
X41891666Y-68938857D01*
X41891666Y-68986476D01*
X41939285Y-69081714D01*
X41986904Y-69129333D01*
X42082142Y-69176952D01*
X42272619Y-69176952D01*
X42367857Y-69224571D01*
X42415476Y-69272190D01*
X42463095Y-69367428D01*
X42463095Y-69557904D01*
X42415476Y-69653142D01*
X42367857Y-69700761D01*
X42272619Y-69748380D01*
X42082142Y-69748380D01*
X41986904Y-69700761D01*
X41939285Y-69653142D01*
X41891666Y-69557904D01*
X41891666Y-69367428D01*
X41939285Y-69272190D01*
X41986904Y-69224571D01*
X42082142Y-69176952D01*
%TO.C,SW9*%
X63558333Y-54150761D02*
X63415476Y-54198380D01*
X63177380Y-54198380D01*
X63082142Y-54150761D01*
X63034523Y-54103142D01*
X62986904Y-54007904D01*
X62986904Y-53912666D01*
X63034523Y-53817428D01*
X63082142Y-53769809D01*
X63177380Y-53722190D01*
X63367857Y-53674571D01*
X63463095Y-53626952D01*
X63510714Y-53579333D01*
X63558333Y-53484095D01*
X63558333Y-53388857D01*
X63510714Y-53293619D01*
X63463095Y-53246000D01*
X63367857Y-53198380D01*
X63129761Y-53198380D01*
X62986904Y-53246000D01*
X62653571Y-53198380D02*
X62415476Y-54198380D01*
X62225000Y-53484095D01*
X62034523Y-54198380D01*
X61796428Y-53198380D01*
X61367857Y-54198380D02*
X61177380Y-54198380D01*
X61082142Y-54150761D01*
X61034523Y-54103142D01*
X60939285Y-53960285D01*
X60891666Y-53769809D01*
X60891666Y-53388857D01*
X60939285Y-53293619D01*
X60986904Y-53246000D01*
X61082142Y-53198380D01*
X61272619Y-53198380D01*
X61367857Y-53246000D01*
X61415476Y-53293619D01*
X61463095Y-53388857D01*
X61463095Y-53626952D01*
X61415476Y-53722190D01*
X61367857Y-53769809D01*
X61272619Y-53817428D01*
X61082142Y-53817428D01*
X60986904Y-53769809D01*
X60939285Y-53722190D01*
X60891666Y-53626952D01*
%TO.C,SW10*%
X83034523Y-51150761D02*
X82891666Y-51198380D01*
X82653571Y-51198380D01*
X82558333Y-51150761D01*
X82510714Y-51103142D01*
X82463095Y-51007904D01*
X82463095Y-50912666D01*
X82510714Y-50817428D01*
X82558333Y-50769809D01*
X82653571Y-50722190D01*
X82844047Y-50674571D01*
X82939285Y-50626952D01*
X82986904Y-50579333D01*
X83034523Y-50484095D01*
X83034523Y-50388857D01*
X82986904Y-50293619D01*
X82939285Y-50246000D01*
X82844047Y-50198380D01*
X82605952Y-50198380D01*
X82463095Y-50246000D01*
X82129761Y-50198380D02*
X81891666Y-51198380D01*
X81701190Y-50484095D01*
X81510714Y-51198380D01*
X81272619Y-50198380D01*
X80367857Y-51198380D02*
X80939285Y-51198380D01*
X80653571Y-51198380D02*
X80653571Y-50198380D01*
X80748809Y-50341238D01*
X80844047Y-50436476D01*
X80939285Y-50484095D01*
X79748809Y-50198380D02*
X79653571Y-50198380D01*
X79558333Y-50246000D01*
X79510714Y-50293619D01*
X79463095Y-50388857D01*
X79415476Y-50579333D01*
X79415476Y-50817428D01*
X79463095Y-51007904D01*
X79510714Y-51103142D01*
X79558333Y-51150761D01*
X79653571Y-51198380D01*
X79748809Y-51198380D01*
X79844047Y-51150761D01*
X79891666Y-51103142D01*
X79939285Y-51007904D01*
X79986904Y-50817428D01*
X79986904Y-50579333D01*
X79939285Y-50388857D01*
X79891666Y-50293619D01*
X79844047Y-50246000D01*
X79748809Y-50198380D01*
%TO.C,SW11*%
X102034523Y-61150761D02*
X101891666Y-61198380D01*
X101653571Y-61198380D01*
X101558333Y-61150761D01*
X101510714Y-61103142D01*
X101463095Y-61007904D01*
X101463095Y-60912666D01*
X101510714Y-60817428D01*
X101558333Y-60769809D01*
X101653571Y-60722190D01*
X101844047Y-60674571D01*
X101939285Y-60626952D01*
X101986904Y-60579333D01*
X102034523Y-60484095D01*
X102034523Y-60388857D01*
X101986904Y-60293619D01*
X101939285Y-60246000D01*
X101844047Y-60198380D01*
X101605952Y-60198380D01*
X101463095Y-60246000D01*
X101129761Y-60198380D02*
X100891666Y-61198380D01*
X100701190Y-60484095D01*
X100510714Y-61198380D01*
X100272619Y-60198380D01*
X99367857Y-61198380D02*
X99939285Y-61198380D01*
X99653571Y-61198380D02*
X99653571Y-60198380D01*
X99748809Y-60341238D01*
X99844047Y-60436476D01*
X99939285Y-60484095D01*
X98415476Y-61198380D02*
X98986904Y-61198380D01*
X98701190Y-61198380D02*
X98701190Y-60198380D01*
X98796428Y-60341238D01*
X98891666Y-60436476D01*
X98986904Y-60484095D01*
%TO.C,SW12*%
X121034523Y-63150761D02*
X120891666Y-63198380D01*
X120653571Y-63198380D01*
X120558333Y-63150761D01*
X120510714Y-63103142D01*
X120463095Y-63007904D01*
X120463095Y-62912666D01*
X120510714Y-62817428D01*
X120558333Y-62769809D01*
X120653571Y-62722190D01*
X120844047Y-62674571D01*
X120939285Y-62626952D01*
X120986904Y-62579333D01*
X121034523Y-62484095D01*
X121034523Y-62388857D01*
X120986904Y-62293619D01*
X120939285Y-62246000D01*
X120844047Y-62198380D01*
X120605952Y-62198380D01*
X120463095Y-62246000D01*
X120129761Y-62198380D02*
X119891666Y-63198380D01*
X119701190Y-62484095D01*
X119510714Y-63198380D01*
X119272619Y-62198380D01*
X118367857Y-63198380D02*
X118939285Y-63198380D01*
X118653571Y-63198380D02*
X118653571Y-62198380D01*
X118748809Y-62341238D01*
X118844047Y-62436476D01*
X118939285Y-62484095D01*
X117986904Y-62293619D02*
X117939285Y-62246000D01*
X117844047Y-62198380D01*
X117605952Y-62198380D01*
X117510714Y-62246000D01*
X117463095Y-62293619D01*
X117415476Y-62388857D01*
X117415476Y-62484095D01*
X117463095Y-62626952D01*
X118034523Y-63198380D01*
X117415476Y-63198380D01*
%TO.C,SW13*%
X26034523Y-90000761D02*
X25891666Y-90048380D01*
X25653571Y-90048380D01*
X25558333Y-90000761D01*
X25510714Y-89953142D01*
X25463095Y-89857904D01*
X25463095Y-89762666D01*
X25510714Y-89667428D01*
X25558333Y-89619809D01*
X25653571Y-89572190D01*
X25844047Y-89524571D01*
X25939285Y-89476952D01*
X25986904Y-89429333D01*
X26034523Y-89334095D01*
X26034523Y-89238857D01*
X25986904Y-89143619D01*
X25939285Y-89096000D01*
X25844047Y-89048380D01*
X25605952Y-89048380D01*
X25463095Y-89096000D01*
X25129761Y-89048380D02*
X24891666Y-90048380D01*
X24701190Y-89334095D01*
X24510714Y-90048380D01*
X24272619Y-89048380D01*
X23367857Y-90048380D02*
X23939285Y-90048380D01*
X23653571Y-90048380D02*
X23653571Y-89048380D01*
X23748809Y-89191238D01*
X23844047Y-89286476D01*
X23939285Y-89334095D01*
X23034523Y-89048380D02*
X22415476Y-89048380D01*
X22748809Y-89429333D01*
X22605952Y-89429333D01*
X22510714Y-89476952D01*
X22463095Y-89524571D01*
X22415476Y-89619809D01*
X22415476Y-89857904D01*
X22463095Y-89953142D01*
X22510714Y-90000761D01*
X22605952Y-90048380D01*
X22891666Y-90048380D01*
X22986904Y-90000761D01*
X23034523Y-89953142D01*
%TO.C,SW14*%
X45034523Y-88700761D02*
X44891666Y-88748380D01*
X44653571Y-88748380D01*
X44558333Y-88700761D01*
X44510714Y-88653142D01*
X44463095Y-88557904D01*
X44463095Y-88462666D01*
X44510714Y-88367428D01*
X44558333Y-88319809D01*
X44653571Y-88272190D01*
X44844047Y-88224571D01*
X44939285Y-88176952D01*
X44986904Y-88129333D01*
X45034523Y-88034095D01*
X45034523Y-87938857D01*
X44986904Y-87843619D01*
X44939285Y-87796000D01*
X44844047Y-87748380D01*
X44605952Y-87748380D01*
X44463095Y-87796000D01*
X44129761Y-87748380D02*
X43891666Y-88748380D01*
X43701190Y-88034095D01*
X43510714Y-88748380D01*
X43272619Y-87748380D01*
X42367857Y-88748380D02*
X42939285Y-88748380D01*
X42653571Y-88748380D02*
X42653571Y-87748380D01*
X42748809Y-87891238D01*
X42844047Y-87986476D01*
X42939285Y-88034095D01*
X41510714Y-88081714D02*
X41510714Y-88748380D01*
X41748809Y-87700761D02*
X41986904Y-88415047D01*
X41367857Y-88415047D01*
%TO.C,SW16*%
X83034523Y-70150761D02*
X82891666Y-70198380D01*
X82653571Y-70198380D01*
X82558333Y-70150761D01*
X82510714Y-70103142D01*
X82463095Y-70007904D01*
X82463095Y-69912666D01*
X82510714Y-69817428D01*
X82558333Y-69769809D01*
X82653571Y-69722190D01*
X82844047Y-69674571D01*
X82939285Y-69626952D01*
X82986904Y-69579333D01*
X83034523Y-69484095D01*
X83034523Y-69388857D01*
X82986904Y-69293619D01*
X82939285Y-69246000D01*
X82844047Y-69198380D01*
X82605952Y-69198380D01*
X82463095Y-69246000D01*
X82129761Y-69198380D02*
X81891666Y-70198380D01*
X81701190Y-69484095D01*
X81510714Y-70198380D01*
X81272619Y-69198380D01*
X80367857Y-70198380D02*
X80939285Y-70198380D01*
X80653571Y-70198380D02*
X80653571Y-69198380D01*
X80748809Y-69341238D01*
X80844047Y-69436476D01*
X80939285Y-69484095D01*
X79510714Y-69198380D02*
X79701190Y-69198380D01*
X79796428Y-69246000D01*
X79844047Y-69293619D01*
X79939285Y-69436476D01*
X79986904Y-69626952D01*
X79986904Y-70007904D01*
X79939285Y-70103142D01*
X79891666Y-70150761D01*
X79796428Y-70198380D01*
X79605952Y-70198380D01*
X79510714Y-70150761D01*
X79463095Y-70103142D01*
X79415476Y-70007904D01*
X79415476Y-69769809D01*
X79463095Y-69674571D01*
X79510714Y-69626952D01*
X79605952Y-69579333D01*
X79796428Y-69579333D01*
X79891666Y-69626952D01*
X79939285Y-69674571D01*
X79986904Y-69769809D01*
%TO.C,SW17*%
X102034523Y-80150761D02*
X101891666Y-80198380D01*
X101653571Y-80198380D01*
X101558333Y-80150761D01*
X101510714Y-80103142D01*
X101463095Y-80007904D01*
X101463095Y-79912666D01*
X101510714Y-79817428D01*
X101558333Y-79769809D01*
X101653571Y-79722190D01*
X101844047Y-79674571D01*
X101939285Y-79626952D01*
X101986904Y-79579333D01*
X102034523Y-79484095D01*
X102034523Y-79388857D01*
X101986904Y-79293619D01*
X101939285Y-79246000D01*
X101844047Y-79198380D01*
X101605952Y-79198380D01*
X101463095Y-79246000D01*
X101129761Y-79198380D02*
X100891666Y-80198380D01*
X100701190Y-79484095D01*
X100510714Y-80198380D01*
X100272619Y-79198380D01*
X99367857Y-80198380D02*
X99939285Y-80198380D01*
X99653571Y-80198380D02*
X99653571Y-79198380D01*
X99748809Y-79341238D01*
X99844047Y-79436476D01*
X99939285Y-79484095D01*
X99034523Y-79198380D02*
X98367857Y-79198380D01*
X98796428Y-80198380D01*
%TO.C,SW20*%
X87647023Y-99159761D02*
X87504166Y-99207380D01*
X87266071Y-99207380D01*
X87170833Y-99159761D01*
X87123214Y-99112142D01*
X87075595Y-99016904D01*
X87075595Y-98921666D01*
X87123214Y-98826428D01*
X87170833Y-98778809D01*
X87266071Y-98731190D01*
X87456547Y-98683571D01*
X87551785Y-98635952D01*
X87599404Y-98588333D01*
X87647023Y-98493095D01*
X87647023Y-98397857D01*
X87599404Y-98302619D01*
X87551785Y-98255000D01*
X87456547Y-98207380D01*
X87218452Y-98207380D01*
X87075595Y-98255000D01*
X86742261Y-98207380D02*
X86504166Y-99207380D01*
X86313690Y-98493095D01*
X86123214Y-99207380D01*
X85885119Y-98207380D01*
X85551785Y-98302619D02*
X85504166Y-98255000D01*
X85408928Y-98207380D01*
X85170833Y-98207380D01*
X85075595Y-98255000D01*
X85027976Y-98302619D01*
X84980357Y-98397857D01*
X84980357Y-98493095D01*
X85027976Y-98635952D01*
X85599404Y-99207380D01*
X84980357Y-99207380D01*
X84361309Y-98207380D02*
X84266071Y-98207380D01*
X84170833Y-98255000D01*
X84123214Y-98302619D01*
X84075595Y-98397857D01*
X84027976Y-98588333D01*
X84027976Y-98826428D01*
X84075595Y-99016904D01*
X84123214Y-99112142D01*
X84170833Y-99159761D01*
X84266071Y-99207380D01*
X84361309Y-99207380D01*
X84456547Y-99159761D01*
X84504166Y-99112142D01*
X84551785Y-99016904D01*
X84599404Y-98826428D01*
X84599404Y-98588333D01*
X84551785Y-98397857D01*
X84504166Y-98302619D01*
X84456547Y-98255000D01*
X84361309Y-98207380D01*
%TO.C,SW21*%
X106647023Y-101159761D02*
X106504166Y-101207380D01*
X106266071Y-101207380D01*
X106170833Y-101159761D01*
X106123214Y-101112142D01*
X106075595Y-101016904D01*
X106075595Y-100921666D01*
X106123214Y-100826428D01*
X106170833Y-100778809D01*
X106266071Y-100731190D01*
X106456547Y-100683571D01*
X106551785Y-100635952D01*
X106599404Y-100588333D01*
X106647023Y-100493095D01*
X106647023Y-100397857D01*
X106599404Y-100302619D01*
X106551785Y-100255000D01*
X106456547Y-100207380D01*
X106218452Y-100207380D01*
X106075595Y-100255000D01*
X105742261Y-100207380D02*
X105504166Y-101207380D01*
X105313690Y-100493095D01*
X105123214Y-101207380D01*
X104885119Y-100207380D01*
X104551785Y-100302619D02*
X104504166Y-100255000D01*
X104408928Y-100207380D01*
X104170833Y-100207380D01*
X104075595Y-100255000D01*
X104027976Y-100302619D01*
X103980357Y-100397857D01*
X103980357Y-100493095D01*
X104027976Y-100635952D01*
X104599404Y-101207380D01*
X103980357Y-101207380D01*
X103027976Y-101207380D02*
X103599404Y-101207380D01*
X103313690Y-101207380D02*
X103313690Y-100207380D01*
X103408928Y-100350238D01*
X103504166Y-100445476D01*
X103599404Y-100493095D01*
%TO.C,L35*%
D11*
X20742857Y-34452380D02*
X21219047Y-34452380D01*
X21219047Y-33452380D01*
X20504761Y-33452380D02*
X19885714Y-33452380D01*
X20219047Y-33833333D01*
X20076190Y-33833333D01*
X19980952Y-33880952D01*
X19933333Y-33928571D01*
X19885714Y-34023809D01*
X19885714Y-34261904D01*
X19933333Y-34357142D01*
X19980952Y-34404761D01*
X20076190Y-34452380D01*
X20361904Y-34452380D01*
X20457142Y-34404761D01*
X20504761Y-34357142D01*
X18980952Y-33452380D02*
X19457142Y-33452380D01*
X19504761Y-33928571D01*
X19457142Y-33880952D01*
X19361904Y-33833333D01*
X19123809Y-33833333D01*
X19028571Y-33880952D01*
X18980952Y-33928571D01*
X18933333Y-34023809D01*
X18933333Y-34261904D01*
X18980952Y-34357142D01*
X19028571Y-34404761D01*
X19123809Y-34452380D01*
X19361904Y-34452380D01*
X19457142Y-34404761D01*
X19504761Y-34357142D01*
%TO.C,L34*%
X20482857Y-75762380D02*
X20959047Y-75762380D01*
X20959047Y-74762380D01*
X20244761Y-74762380D02*
X19625714Y-74762380D01*
X19959047Y-75143333D01*
X19816190Y-75143333D01*
X19720952Y-75190952D01*
X19673333Y-75238571D01*
X19625714Y-75333809D01*
X19625714Y-75571904D01*
X19673333Y-75667142D01*
X19720952Y-75714761D01*
X19816190Y-75762380D01*
X20101904Y-75762380D01*
X20197142Y-75714761D01*
X20244761Y-75667142D01*
X18768571Y-75095714D02*
X18768571Y-75762380D01*
X19006666Y-74714761D02*
X19244761Y-75429047D01*
X18625714Y-75429047D01*
%TO.C,L33*%
X59852857Y-99872380D02*
X60329047Y-99872380D01*
X60329047Y-98872380D01*
X59614761Y-98872380D02*
X58995714Y-98872380D01*
X59329047Y-99253333D01*
X59186190Y-99253333D01*
X59090952Y-99300952D01*
X59043333Y-99348571D01*
X58995714Y-99443809D01*
X58995714Y-99681904D01*
X59043333Y-99777142D01*
X59090952Y-99824761D01*
X59186190Y-99872380D01*
X59471904Y-99872380D01*
X59567142Y-99824761D01*
X59614761Y-99777142D01*
X58662380Y-98872380D02*
X58043333Y-98872380D01*
X58376666Y-99253333D01*
X58233809Y-99253333D01*
X58138571Y-99300952D01*
X58090952Y-99348571D01*
X58043333Y-99443809D01*
X58043333Y-99681904D01*
X58090952Y-99777142D01*
X58138571Y-99824761D01*
X58233809Y-99872380D01*
X58519523Y-99872380D01*
X58614761Y-99824761D01*
X58662380Y-99777142D01*
%TO.C,L31*%
D12*
X153411901Y-113227164D02*
X153469784Y-112898894D01*
X152780418Y-112777341D01*
X152693594Y-113269745D02*
X152618347Y-113696495D01*
X152921480Y-113513012D01*
X152904115Y-113611493D01*
X152925366Y-113682935D01*
X152952404Y-113721550D01*
X153012270Y-113765954D01*
X153176404Y-113794895D01*
X153247846Y-113773645D01*
X153286462Y-113746606D01*
X153330865Y-113686741D01*
X153365595Y-113489779D01*
X153344344Y-113418337D01*
X153317306Y-113379722D01*
X153191947Y-114474587D02*
X153261406Y-114080664D01*
X153226676Y-114277625D02*
X152537311Y-114156071D01*
X152647368Y-114107782D01*
X152724599Y-114053705D01*
X152769002Y-113993840D01*
%TO.C,L30*%
X142997164Y-103378098D02*
X142668894Y-103320215D01*
X142547341Y-104009581D01*
X143039745Y-104096405D02*
X143466495Y-104171652D01*
X143283012Y-103868519D01*
X143381493Y-103885884D01*
X143452935Y-103864633D01*
X143491550Y-103837595D01*
X143535954Y-103777729D01*
X143564895Y-103613595D01*
X143543645Y-103542153D01*
X143516606Y-103503537D01*
X143456741Y-103459134D01*
X143259779Y-103424404D01*
X143188337Y-103445655D01*
X143149722Y-103472693D01*
X143893245Y-104246900D02*
X143958898Y-104258476D01*
X144030341Y-104237226D01*
X144068956Y-104210187D01*
X144113359Y-104150322D01*
X144169339Y-104024802D01*
X144198281Y-103860668D01*
X144188607Y-103723572D01*
X144167356Y-103652130D01*
X144140318Y-103613514D01*
X144080452Y-103569111D01*
X144014798Y-103557534D01*
X143943356Y-103578785D01*
X143904741Y-103605824D01*
X143860337Y-103665689D01*
X143804357Y-103791209D01*
X143775416Y-103955343D01*
X143785090Y-104092439D01*
X143806340Y-104163881D01*
X143833379Y-104202496D01*
X143893245Y-104246900D01*
%TO.C,L29*%
X124055668Y-99923901D02*
X123727398Y-99866018D01*
X123605845Y-100555384D01*
X124142652Y-100582342D02*
X124169691Y-100620957D01*
X124229556Y-100665361D01*
X124393691Y-100694302D01*
X124465133Y-100673052D01*
X124503748Y-100646013D01*
X124548152Y-100586148D01*
X124559728Y-100520494D01*
X124544266Y-100416225D01*
X124219802Y-99952842D01*
X124646552Y-100028090D01*
X124974822Y-100085973D02*
X125106129Y-100109126D01*
X125165995Y-100153529D01*
X125193033Y-100192144D01*
X125241322Y-100302202D01*
X125250996Y-100439298D01*
X125204690Y-100701913D01*
X125160287Y-100761779D01*
X125121671Y-100788817D01*
X125050229Y-100810068D01*
X124918922Y-100786915D01*
X124859056Y-100742511D01*
X124832017Y-100703896D01*
X124810767Y-100632454D01*
X124839708Y-100468319D01*
X124884112Y-100408454D01*
X124922727Y-100381415D01*
X124994169Y-100360165D01*
X125125477Y-100383318D01*
X125185342Y-100427721D01*
X125212381Y-100466336D01*
X125233631Y-100537778D01*
%TO.C,L28*%
X104387500Y-88783333D02*
X104054166Y-88783333D01*
X104054166Y-89483333D01*
X104587500Y-89416666D02*
X104620833Y-89450000D01*
X104687500Y-89483333D01*
X104854166Y-89483333D01*
X104920833Y-89450000D01*
X104954166Y-89416666D01*
X104987500Y-89350000D01*
X104987500Y-89283333D01*
X104954166Y-89183333D01*
X104554166Y-88783333D01*
X104987500Y-88783333D01*
X105387500Y-89183333D02*
X105320833Y-89216666D01*
X105287500Y-89250000D01*
X105254166Y-89316666D01*
X105254166Y-89350000D01*
X105287500Y-89416666D01*
X105320833Y-89450000D01*
X105387500Y-89483333D01*
X105520833Y-89483333D01*
X105587500Y-89450000D01*
X105620833Y-89416666D01*
X105654166Y-89350000D01*
X105654166Y-89316666D01*
X105620833Y-89250000D01*
X105587500Y-89216666D01*
X105520833Y-89183333D01*
X105387500Y-89183333D01*
X105320833Y-89150000D01*
X105287500Y-89116666D01*
X105254166Y-89050000D01*
X105254166Y-88916666D01*
X105287500Y-88850000D01*
X105320833Y-88816666D01*
X105387500Y-88783333D01*
X105520833Y-88783333D01*
X105587500Y-88816666D01*
X105620833Y-88850000D01*
X105654166Y-88916666D01*
X105654166Y-89050000D01*
X105620833Y-89116666D01*
X105587500Y-89150000D01*
X105520833Y-89183333D01*
%TO.C,L27*%
X85387500Y-86783333D02*
X85054166Y-86783333D01*
X85054166Y-87483333D01*
X85587500Y-87416666D02*
X85620833Y-87450000D01*
X85687500Y-87483333D01*
X85854166Y-87483333D01*
X85920833Y-87450000D01*
X85954166Y-87416666D01*
X85987500Y-87350000D01*
X85987500Y-87283333D01*
X85954166Y-87183333D01*
X85554166Y-86783333D01*
X85987500Y-86783333D01*
X86220833Y-87483333D02*
X86687500Y-87483333D01*
X86387500Y-86783333D01*
%TO.C,L26*%
X118775000Y-69774333D02*
X118441666Y-69774333D01*
X118441666Y-70474333D01*
X118975000Y-70407666D02*
X119008333Y-70441000D01*
X119075000Y-70474333D01*
X119241666Y-70474333D01*
X119308333Y-70441000D01*
X119341666Y-70407666D01*
X119375000Y-70341000D01*
X119375000Y-70274333D01*
X119341666Y-70174333D01*
X118941666Y-69774333D01*
X119375000Y-69774333D01*
X119975000Y-70474333D02*
X119841666Y-70474333D01*
X119775000Y-70441000D01*
X119741666Y-70407666D01*
X119675000Y-70307666D01*
X119641666Y-70174333D01*
X119641666Y-69907666D01*
X119675000Y-69841000D01*
X119708333Y-69807666D01*
X119775000Y-69774333D01*
X119908333Y-69774333D01*
X119975000Y-69807666D01*
X120008333Y-69841000D01*
X120041666Y-69907666D01*
X120041666Y-70074333D01*
X120008333Y-70141000D01*
X119975000Y-70174333D01*
X119908333Y-70207666D01*
X119775000Y-70207666D01*
X119708333Y-70174333D01*
X119675000Y-70141000D01*
X119641666Y-70074333D01*
%TO.C,L25*%
X99775000Y-67774333D02*
X99441666Y-67774333D01*
X99441666Y-68474333D01*
X99975000Y-68407666D02*
X100008333Y-68441000D01*
X100075000Y-68474333D01*
X100241666Y-68474333D01*
X100308333Y-68441000D01*
X100341666Y-68407666D01*
X100375000Y-68341000D01*
X100375000Y-68274333D01*
X100341666Y-68174333D01*
X99941666Y-67774333D01*
X100375000Y-67774333D01*
X101008333Y-68474333D02*
X100675000Y-68474333D01*
X100641666Y-68141000D01*
X100675000Y-68174333D01*
X100741666Y-68207666D01*
X100908333Y-68207666D01*
X100975000Y-68174333D01*
X101008333Y-68141000D01*
X101041666Y-68074333D01*
X101041666Y-67907666D01*
X101008333Y-67841000D01*
X100975000Y-67807666D01*
X100908333Y-67774333D01*
X100741666Y-67774333D01*
X100675000Y-67807666D01*
X100641666Y-67841000D01*
%TO.C,L24*%
X80775000Y-57774333D02*
X80441666Y-57774333D01*
X80441666Y-58474333D01*
X80975000Y-58407666D02*
X81008333Y-58441000D01*
X81075000Y-58474333D01*
X81241666Y-58474333D01*
X81308333Y-58441000D01*
X81341666Y-58407666D01*
X81375000Y-58341000D01*
X81375000Y-58274333D01*
X81341666Y-58174333D01*
X80941666Y-57774333D01*
X81375000Y-57774333D01*
X81975000Y-58241000D02*
X81975000Y-57774333D01*
X81808333Y-58507666D02*
X81641666Y-58007666D01*
X82075000Y-58007666D01*
%TO.C,L23*%
X61775000Y-60774333D02*
X61441666Y-60774333D01*
X61441666Y-61474333D01*
X61975000Y-61407666D02*
X62008333Y-61441000D01*
X62075000Y-61474333D01*
X62241666Y-61474333D01*
X62308333Y-61441000D01*
X62341666Y-61407666D01*
X62375000Y-61341000D01*
X62375000Y-61274333D01*
X62341666Y-61174333D01*
X61941666Y-60774333D01*
X62375000Y-60774333D01*
X62608333Y-61474333D02*
X63041666Y-61474333D01*
X62808333Y-61207666D01*
X62908333Y-61207666D01*
X62975000Y-61174333D01*
X63008333Y-61141000D01*
X63041666Y-61074333D01*
X63041666Y-60907666D01*
X63008333Y-60841000D01*
X62975000Y-60807666D01*
X62908333Y-60774333D01*
X62708333Y-60774333D01*
X62641666Y-60807666D01*
X62608333Y-60841000D01*
%TO.C,L22*%
X42775000Y-76324333D02*
X42441666Y-76324333D01*
X42441666Y-77024333D01*
X42975000Y-76957666D02*
X43008333Y-76991000D01*
X43075000Y-77024333D01*
X43241666Y-77024333D01*
X43308333Y-76991000D01*
X43341666Y-76957666D01*
X43375000Y-76891000D01*
X43375000Y-76824333D01*
X43341666Y-76724333D01*
X42941666Y-76324333D01*
X43375000Y-76324333D01*
X43641666Y-76957666D02*
X43675000Y-76991000D01*
X43741666Y-77024333D01*
X43908333Y-77024333D01*
X43975000Y-76991000D01*
X44008333Y-76957666D01*
X44041666Y-76891000D01*
X44041666Y-76824333D01*
X44008333Y-76724333D01*
X43608333Y-76324333D01*
X44041666Y-76324333D01*
%TO.C,L21*%
X23775000Y-77624333D02*
X23441666Y-77624333D01*
X23441666Y-78324333D01*
X23975000Y-78257666D02*
X24008333Y-78291000D01*
X24075000Y-78324333D01*
X24241666Y-78324333D01*
X24308333Y-78291000D01*
X24341666Y-78257666D01*
X24375000Y-78191000D01*
X24375000Y-78124333D01*
X24341666Y-78024333D01*
X23941666Y-77624333D01*
X24375000Y-77624333D01*
X25041666Y-77624333D02*
X24641666Y-77624333D01*
X24841666Y-77624333D02*
X24841666Y-78324333D01*
X24775000Y-78224333D01*
X24708333Y-78157666D01*
X24641666Y-78124333D01*
%TO.C,L20*%
X24675000Y-55057666D02*
X25008333Y-55057666D01*
X25008333Y-54357666D01*
X24475000Y-54424333D02*
X24441666Y-54391000D01*
X24375000Y-54357666D01*
X24208333Y-54357666D01*
X24141666Y-54391000D01*
X24108333Y-54424333D01*
X24075000Y-54491000D01*
X24075000Y-54557666D01*
X24108333Y-54657666D01*
X24508333Y-55057666D01*
X24075000Y-55057666D01*
X23641666Y-54357666D02*
X23575000Y-54357666D01*
X23508333Y-54391000D01*
X23475000Y-54424333D01*
X23441666Y-54491000D01*
X23408333Y-54624333D01*
X23408333Y-54791000D01*
X23441666Y-54924333D01*
X23475000Y-54991000D01*
X23508333Y-55024333D01*
X23575000Y-55057666D01*
X23641666Y-55057666D01*
X23708333Y-55024333D01*
X23741666Y-54991000D01*
X23775000Y-54924333D01*
X23808333Y-54791000D01*
X23808333Y-54624333D01*
X23775000Y-54491000D01*
X23741666Y-54424333D01*
X23708333Y-54391000D01*
X23641666Y-54357666D01*
%TO.C,L19*%
X43675000Y-53757666D02*
X44008333Y-53757666D01*
X44008333Y-53057666D01*
X43075000Y-53757666D02*
X43475000Y-53757666D01*
X43275000Y-53757666D02*
X43275000Y-53057666D01*
X43341666Y-53157666D01*
X43408333Y-53224333D01*
X43475000Y-53257666D01*
X42741666Y-53757666D02*
X42608333Y-53757666D01*
X42541666Y-53724333D01*
X42508333Y-53691000D01*
X42441666Y-53591000D01*
X42408333Y-53457666D01*
X42408333Y-53191000D01*
X42441666Y-53124333D01*
X42475000Y-53091000D01*
X42541666Y-53057666D01*
X42675000Y-53057666D01*
X42741666Y-53091000D01*
X42775000Y-53124333D01*
X42808333Y-53191000D01*
X42808333Y-53357666D01*
X42775000Y-53424333D01*
X42741666Y-53457666D01*
X42675000Y-53491000D01*
X42541666Y-53491000D01*
X42475000Y-53457666D01*
X42441666Y-53424333D01*
X42408333Y-53357666D01*
%TO.C,L18*%
X62675000Y-38207666D02*
X63008333Y-38207666D01*
X63008333Y-37507666D01*
X62075000Y-38207666D02*
X62475000Y-38207666D01*
X62275000Y-38207666D02*
X62275000Y-37507666D01*
X62341666Y-37607666D01*
X62408333Y-37674333D01*
X62475000Y-37707666D01*
X61675000Y-37807666D02*
X61741666Y-37774333D01*
X61775000Y-37741000D01*
X61808333Y-37674333D01*
X61808333Y-37641000D01*
X61775000Y-37574333D01*
X61741666Y-37541000D01*
X61675000Y-37507666D01*
X61541666Y-37507666D01*
X61475000Y-37541000D01*
X61441666Y-37574333D01*
X61408333Y-37641000D01*
X61408333Y-37674333D01*
X61441666Y-37741000D01*
X61475000Y-37774333D01*
X61541666Y-37807666D01*
X61675000Y-37807666D01*
X61741666Y-37841000D01*
X61775000Y-37874333D01*
X61808333Y-37941000D01*
X61808333Y-38074333D01*
X61775000Y-38141000D01*
X61741666Y-38174333D01*
X61675000Y-38207666D01*
X61541666Y-38207666D01*
X61475000Y-38174333D01*
X61441666Y-38141000D01*
X61408333Y-38074333D01*
X61408333Y-37941000D01*
X61441666Y-37874333D01*
X61475000Y-37841000D01*
X61541666Y-37807666D01*
%TO.C,L17*%
X81675000Y-35207666D02*
X82008333Y-35207666D01*
X82008333Y-34507666D01*
X81075000Y-35207666D02*
X81475000Y-35207666D01*
X81275000Y-35207666D02*
X81275000Y-34507666D01*
X81341666Y-34607666D01*
X81408333Y-34674333D01*
X81475000Y-34707666D01*
X80841666Y-34507666D02*
X80375000Y-34507666D01*
X80675000Y-35207666D01*
%TO.C,L16*%
X100675000Y-45207666D02*
X101008333Y-45207666D01*
X101008333Y-44507666D01*
X100075000Y-45207666D02*
X100475000Y-45207666D01*
X100275000Y-45207666D02*
X100275000Y-44507666D01*
X100341666Y-44607666D01*
X100408333Y-44674333D01*
X100475000Y-44707666D01*
X99475000Y-44507666D02*
X99608333Y-44507666D01*
X99675000Y-44541000D01*
X99708333Y-44574333D01*
X99775000Y-44674333D01*
X99808333Y-44807666D01*
X99808333Y-45074333D01*
X99775000Y-45141000D01*
X99741666Y-45174333D01*
X99675000Y-45207666D01*
X99541666Y-45207666D01*
X99475000Y-45174333D01*
X99441666Y-45141000D01*
X99408333Y-45074333D01*
X99408333Y-44907666D01*
X99441666Y-44841000D01*
X99475000Y-44807666D01*
X99541666Y-44774333D01*
X99675000Y-44774333D01*
X99741666Y-44807666D01*
X99775000Y-44841000D01*
X99808333Y-44907666D01*
%TO.C,L15*%
X119675000Y-47207666D02*
X120008333Y-47207666D01*
X120008333Y-46507666D01*
X119075000Y-47207666D02*
X119475000Y-47207666D01*
X119275000Y-47207666D02*
X119275000Y-46507666D01*
X119341666Y-46607666D01*
X119408333Y-46674333D01*
X119475000Y-46707666D01*
X118441666Y-46507666D02*
X118775000Y-46507666D01*
X118808333Y-46841000D01*
X118775000Y-46807666D01*
X118708333Y-46774333D01*
X118541666Y-46774333D01*
X118475000Y-46807666D01*
X118441666Y-46841000D01*
X118408333Y-46907666D01*
X118408333Y-47074333D01*
X118441666Y-47141000D01*
X118475000Y-47174333D01*
X118541666Y-47207666D01*
X118708333Y-47207666D01*
X118775000Y-47174333D01*
X118808333Y-47141000D01*
%TO.C,L14*%
X118775000Y-31774333D02*
X118441666Y-31774333D01*
X118441666Y-32474333D01*
X119375000Y-31774333D02*
X118975000Y-31774333D01*
X119175000Y-31774333D02*
X119175000Y-32474333D01*
X119108333Y-32374333D01*
X119041666Y-32307666D01*
X118975000Y-32274333D01*
X119975000Y-32241000D02*
X119975000Y-31774333D01*
X119808333Y-32507666D02*
X119641666Y-32007666D01*
X120075000Y-32007666D01*
%TO.C,L13*%
X99775000Y-29774333D02*
X99441666Y-29774333D01*
X99441666Y-30474333D01*
X100375000Y-29774333D02*
X99975000Y-29774333D01*
X100175000Y-29774333D02*
X100175000Y-30474333D01*
X100108333Y-30374333D01*
X100041666Y-30307666D01*
X99975000Y-30274333D01*
X100608333Y-30474333D02*
X101041666Y-30474333D01*
X100808333Y-30207666D01*
X100908333Y-30207666D01*
X100975000Y-30174333D01*
X101008333Y-30141000D01*
X101041666Y-30074333D01*
X101041666Y-29907666D01*
X101008333Y-29841000D01*
X100975000Y-29807666D01*
X100908333Y-29774333D01*
X100708333Y-29774333D01*
X100641666Y-29807666D01*
X100608333Y-29841000D01*
%TO.C,L12*%
X80775000Y-19774333D02*
X80441666Y-19774333D01*
X80441666Y-20474333D01*
X81375000Y-19774333D02*
X80975000Y-19774333D01*
X81175000Y-19774333D02*
X81175000Y-20474333D01*
X81108333Y-20374333D01*
X81041666Y-20307666D01*
X80975000Y-20274333D01*
X81641666Y-20407666D02*
X81675000Y-20441000D01*
X81741666Y-20474333D01*
X81908333Y-20474333D01*
X81975000Y-20441000D01*
X82008333Y-20407666D01*
X82041666Y-20341000D01*
X82041666Y-20274333D01*
X82008333Y-20174333D01*
X81608333Y-19774333D01*
X82041666Y-19774333D01*
%TO.C,L11*%
X61775000Y-22774333D02*
X61441666Y-22774333D01*
X61441666Y-23474333D01*
X62375000Y-22774333D02*
X61975000Y-22774333D01*
X62175000Y-22774333D02*
X62175000Y-23474333D01*
X62108333Y-23374333D01*
X62041666Y-23307666D01*
X61975000Y-23274333D01*
X63041666Y-22774333D02*
X62641666Y-22774333D01*
X62841666Y-22774333D02*
X62841666Y-23474333D01*
X62775000Y-23374333D01*
X62708333Y-23307666D01*
X62641666Y-23274333D01*
%TO.C,L10*%
X42775000Y-38324333D02*
X42441666Y-38324333D01*
X42441666Y-39024333D01*
X43375000Y-38324333D02*
X42975000Y-38324333D01*
X43175000Y-38324333D02*
X43175000Y-39024333D01*
X43108333Y-38924333D01*
X43041666Y-38857666D01*
X42975000Y-38824333D01*
X43808333Y-39024333D02*
X43875000Y-39024333D01*
X43941666Y-38991000D01*
X43975000Y-38957666D01*
X44008333Y-38891000D01*
X44041666Y-38757666D01*
X44041666Y-38591000D01*
X44008333Y-38457666D01*
X43975000Y-38391000D01*
X43941666Y-38357666D01*
X43875000Y-38324333D01*
X43808333Y-38324333D01*
X43741666Y-38357666D01*
X43708333Y-38391000D01*
X43675000Y-38457666D01*
X43641666Y-38591000D01*
X43641666Y-38757666D01*
X43675000Y-38891000D01*
X43708333Y-38957666D01*
X43741666Y-38991000D01*
X43808333Y-39024333D01*
%TO.C,L9*%
X24108333Y-39624333D02*
X23775000Y-39624333D01*
X23775000Y-40324333D01*
X24375000Y-39624333D02*
X24508333Y-39624333D01*
X24575000Y-39657666D01*
X24608333Y-39691000D01*
X24675000Y-39791000D01*
X24708333Y-39924333D01*
X24708333Y-40191000D01*
X24675000Y-40257666D01*
X24641666Y-40291000D01*
X24575000Y-40324333D01*
X24441666Y-40324333D01*
X24375000Y-40291000D01*
X24341666Y-40257666D01*
X24308333Y-40191000D01*
X24308333Y-40024333D01*
X24341666Y-39957666D01*
X24375000Y-39924333D01*
X24441666Y-39891000D01*
X24575000Y-39891000D01*
X24641666Y-39924333D01*
X24675000Y-39957666D01*
X24708333Y-40024333D01*
%TO.C,L8*%
D11*
X120695579Y-115904449D02*
X121164535Y-115987139D01*
X121338183Y-115002331D01*
X120325850Y-115259012D02*
X120427911Y-115228655D01*
X120483075Y-115190028D01*
X120546509Y-115104506D01*
X120554778Y-115057610D01*
X120524420Y-114955550D01*
X120485793Y-114900385D01*
X120400271Y-114836952D01*
X120212689Y-114803876D01*
X120110628Y-114834234D01*
X120055464Y-114872860D01*
X119992030Y-114958383D01*
X119983761Y-115005278D01*
X120014119Y-115107338D01*
X120052746Y-115162503D01*
X120138268Y-115225936D01*
X120325850Y-115259012D01*
X120411373Y-115322446D01*
X120449999Y-115377610D01*
X120480357Y-115479671D01*
X120447281Y-115667253D01*
X120383848Y-115752775D01*
X120328683Y-115791402D01*
X120226623Y-115821760D01*
X120039040Y-115788684D01*
X119953518Y-115725250D01*
X119914892Y-115670086D01*
X119884534Y-115568025D01*
X119917610Y-115380443D01*
X119981043Y-115294921D01*
X120036208Y-115256294D01*
X120138268Y-115225936D01*
%TO.C,L7*%
X153864350Y-125422225D02*
X154333306Y-125504915D01*
X154506954Y-124520107D01*
X153803520Y-124396073D02*
X153146982Y-124280307D01*
X153395394Y-125339536D01*
%TO.C,L6*%
X166208189Y-104520425D02*
X166677145Y-104603115D01*
X166850793Y-103618307D01*
X165631507Y-103403314D02*
X165819090Y-103436390D01*
X165904612Y-103499823D01*
X165943239Y-103554988D01*
X166012223Y-103712213D01*
X166026043Y-103908064D01*
X165959891Y-104283229D01*
X165896458Y-104368751D01*
X165841293Y-104407378D01*
X165739233Y-104437736D01*
X165551650Y-104404660D01*
X165466128Y-104341226D01*
X165427502Y-104286062D01*
X165397144Y-104184001D01*
X165438489Y-103949523D01*
X165501922Y-103864001D01*
X165557087Y-103825374D01*
X165659147Y-103795017D01*
X165846729Y-103828093D01*
X165932252Y-103891526D01*
X165970878Y-103946691D01*
X166001236Y-104048751D01*
%TO.C,L5*%
X151026666Y-85152380D02*
X151502857Y-85152380D01*
X151502857Y-84152380D01*
X150217142Y-84152380D02*
X150693333Y-84152380D01*
X150740952Y-84628571D01*
X150693333Y-84580952D01*
X150598095Y-84533333D01*
X150360000Y-84533333D01*
X150264761Y-84580952D01*
X150217142Y-84628571D01*
X150169523Y-84723809D01*
X150169523Y-84961904D01*
X150217142Y-85057142D01*
X150264761Y-85104761D01*
X150360000Y-85152380D01*
X150598095Y-85152380D01*
X150693333Y-85104761D01*
X150740952Y-85057142D01*
%TO.C,L4*%
X150716666Y-49112380D02*
X151192857Y-49112380D01*
X151192857Y-48112380D01*
X149954761Y-48445714D02*
X149954761Y-49112380D01*
X150192857Y-48064761D02*
X150430952Y-48779047D01*
X149811904Y-48779047D01*
%TO.C,L3*%
X130176666Y-25852380D02*
X130652857Y-25852380D01*
X130652857Y-24852380D01*
X129938571Y-24852380D02*
X129319523Y-24852380D01*
X129652857Y-25233333D01*
X129510000Y-25233333D01*
X129414761Y-25280952D01*
X129367142Y-25328571D01*
X129319523Y-25423809D01*
X129319523Y-25661904D01*
X129367142Y-25757142D01*
X129414761Y-25804761D01*
X129510000Y-25852380D01*
X129795714Y-25852380D01*
X129890952Y-25804761D01*
X129938571Y-25757142D01*
%TO.C,L1*%
X46106666Y-18362380D02*
X46582857Y-18362380D01*
X46582857Y-17362380D01*
X45249523Y-18362380D02*
X45820952Y-18362380D01*
X45535238Y-18362380D02*
X45535238Y-17362380D01*
X45630476Y-17505238D01*
X45725714Y-17600476D01*
X45820952Y-17648095D01*
%TD*%
M02*
