%TF.GenerationSoftware,KiCad,Pcbnew,5.1.9*%
%TF.CreationDate,2021-05-05T06:58:16-05:00*%
%TF.ProjectId,monarch,6d6f6e61-7263-4682-9e6b-696361645f70,rev?*%
%TF.SameCoordinates,Original*%
%TF.FileFunction,Profile,NP*%
%FSLAX46Y46*%
G04 Gerber Fmt 4.6, Leading zero omitted, Abs format (unit mm)*
G04 Created by KiCad (PCBNEW 5.1.9) date 2021-05-05 06:58:16*
%MOMM*%
%LPD*%
G01*
G04 APERTURE LIST*
%TA.AperFunction,Profile*%
%ADD10C,0.050000*%
%TD*%
%TA.AperFunction,Profile*%
%ADD11C,0.100000*%
%TD*%
%TA.AperFunction,Profile*%
%ADD12C,0.120000*%
%TD*%
G04 APERTURE END LIST*
D10*
X158790122Y-17985593D02*
X158790000Y-90450000D01*
X158790000Y-90450000D02*
X177070000Y-93680000D01*
X177070000Y-93680000D02*
X169900000Y-134360000D01*
X158790122Y-17985593D02*
G75*
G03*
X11660000Y-11930000I-84480762J-262186278D01*
G01*
X11660000Y-93950000D02*
X11660000Y-11930000D01*
X49750000Y-93950000D02*
X11660000Y-93950000D01*
X49750000Y-105000000D02*
X49750000Y-93950000D01*
D11*
X108000000Y-105000000D02*
X49750000Y-105000000D01*
X108000000Y-123270000D02*
X108000000Y-105000000D01*
D10*
X169900000Y-134360000D02*
X108000000Y-123270000D01*
D12*
%TO.C,L31*%
X156272010Y-115914645D02*
X156862414Y-112566299D01*
X153317586Y-115393701D02*
X156272010Y-115914645D01*
X153907990Y-112045355D02*
X153317586Y-115393701D01*
X156862414Y-112566299D02*
X153907990Y-112045355D01*
%TO.C,L30*%
X142336299Y-99927586D02*
X141815355Y-102882010D01*
X141815355Y-102882010D02*
X145163701Y-103472414D01*
X145163701Y-103472414D02*
X145684645Y-100517990D01*
X145684645Y-100517990D02*
X142336299Y-99927586D01*
%TO.C,L29*%
X123394803Y-96473389D02*
X122873859Y-99427813D01*
X122873859Y-99427813D02*
X126222205Y-100018217D01*
X126222205Y-100018217D02*
X126743149Y-97063793D01*
X126743149Y-97063793D02*
X123394803Y-96473389D01*
%TO.C,L28*%
X103137500Y-85500000D02*
X103137500Y-88500000D01*
X103137500Y-88500000D02*
X106537500Y-88500000D01*
X106537500Y-88500000D02*
X106537500Y-85500000D01*
X106537500Y-85500000D02*
X103137500Y-85500000D01*
%TO.C,L27*%
X84137500Y-83500000D02*
X84137500Y-86500000D01*
X84137500Y-86500000D02*
X87537500Y-86500000D01*
X87537500Y-86500000D02*
X87537500Y-83500000D01*
X87537500Y-83500000D02*
X84137500Y-83500000D01*
%TO.C,L26*%
X120925000Y-66491000D02*
X117525000Y-66491000D01*
X120925000Y-69491000D02*
X120925000Y-66491000D01*
X117525000Y-69491000D02*
X120925000Y-69491000D01*
X117525000Y-66491000D02*
X117525000Y-69491000D01*
%TO.C,L25*%
X101925000Y-64491000D02*
X98525000Y-64491000D01*
X101925000Y-67491000D02*
X101925000Y-64491000D01*
X98525000Y-67491000D02*
X101925000Y-67491000D01*
X98525000Y-64491000D02*
X98525000Y-67491000D01*
%TO.C,L24*%
X82925000Y-54491000D02*
X79525000Y-54491000D01*
X82925000Y-57491000D02*
X82925000Y-54491000D01*
X79525000Y-57491000D02*
X82925000Y-57491000D01*
X79525000Y-54491000D02*
X79525000Y-57491000D01*
%TO.C,L23*%
X63925000Y-57491000D02*
X60525000Y-57491000D01*
X63925000Y-60491000D02*
X63925000Y-57491000D01*
X60525000Y-60491000D02*
X63925000Y-60491000D01*
X60525000Y-57491000D02*
X60525000Y-60491000D01*
%TO.C,L22*%
X44925000Y-73041000D02*
X41525000Y-73041000D01*
X44925000Y-76041000D02*
X44925000Y-73041000D01*
X41525000Y-76041000D02*
X44925000Y-76041000D01*
X41525000Y-73041000D02*
X41525000Y-76041000D01*
%TO.C,L21*%
X25925000Y-74341000D02*
X22525000Y-74341000D01*
X25925000Y-77341000D02*
X25925000Y-74341000D01*
X22525000Y-77341000D02*
X25925000Y-77341000D01*
X22525000Y-74341000D02*
X22525000Y-77341000D01*
%TO.C,L20*%
X22525000Y-58341000D02*
X25925000Y-58341000D01*
X22525000Y-55341000D02*
X22525000Y-58341000D01*
X25925000Y-55341000D02*
X22525000Y-55341000D01*
X25925000Y-58341000D02*
X25925000Y-55341000D01*
%TO.C,L19*%
X41525000Y-57041000D02*
X44925000Y-57041000D01*
X41525000Y-54041000D02*
X41525000Y-57041000D01*
X44925000Y-54041000D02*
X41525000Y-54041000D01*
X44925000Y-57041000D02*
X44925000Y-54041000D01*
%TO.C,L18*%
X60525000Y-41491000D02*
X63925000Y-41491000D01*
X60525000Y-38491000D02*
X60525000Y-41491000D01*
X63925000Y-38491000D02*
X60525000Y-38491000D01*
X63925000Y-41491000D02*
X63925000Y-38491000D01*
%TO.C,L17*%
X79525000Y-38491000D02*
X82925000Y-38491000D01*
X79525000Y-35491000D02*
X79525000Y-38491000D01*
X82925000Y-35491000D02*
X79525000Y-35491000D01*
X82925000Y-38491000D02*
X82925000Y-35491000D01*
%TO.C,L16*%
X98525000Y-48491000D02*
X101925000Y-48491000D01*
X98525000Y-45491000D02*
X98525000Y-48491000D01*
X101925000Y-45491000D02*
X98525000Y-45491000D01*
X101925000Y-48491000D02*
X101925000Y-45491000D01*
%TO.C,L15*%
X117525000Y-50491000D02*
X120925000Y-50491000D01*
X117525000Y-47491000D02*
X117525000Y-50491000D01*
X120925000Y-47491000D02*
X117525000Y-47491000D01*
X120925000Y-50491000D02*
X120925000Y-47491000D01*
%TO.C,L14*%
X120925000Y-28491000D02*
X117525000Y-28491000D01*
X120925000Y-31491000D02*
X120925000Y-28491000D01*
X117525000Y-31491000D02*
X120925000Y-31491000D01*
X117525000Y-28491000D02*
X117525000Y-31491000D01*
%TO.C,L13*%
X101925000Y-26491000D02*
X98525000Y-26491000D01*
X101925000Y-29491000D02*
X101925000Y-26491000D01*
X98525000Y-29491000D02*
X101925000Y-29491000D01*
X98525000Y-26491000D02*
X98525000Y-29491000D01*
%TO.C,L12*%
X82925000Y-16491000D02*
X79525000Y-16491000D01*
X82925000Y-19491000D02*
X82925000Y-16491000D01*
X79525000Y-19491000D02*
X82925000Y-19491000D01*
X79525000Y-16491000D02*
X79525000Y-19491000D01*
%TO.C,L11*%
X63925000Y-19491000D02*
X60525000Y-19491000D01*
X63925000Y-22491000D02*
X63925000Y-19491000D01*
X60525000Y-22491000D02*
X63925000Y-22491000D01*
X60525000Y-19491000D02*
X60525000Y-22491000D01*
%TO.C,L10*%
X44925000Y-35041000D02*
X41525000Y-35041000D01*
X44925000Y-38041000D02*
X44925000Y-35041000D01*
X41525000Y-38041000D02*
X44925000Y-38041000D01*
X41525000Y-35041000D02*
X41525000Y-38041000D01*
%TO.C,L9*%
X25925000Y-36341000D02*
X22525000Y-36341000D01*
X25925000Y-39341000D02*
X25925000Y-36341000D01*
X22525000Y-39341000D02*
X25925000Y-39341000D01*
X22525000Y-36341000D02*
X22525000Y-39341000D01*
%TD*%
M02*
