%TF.GenerationSoftware,KiCad,Pcbnew,5.1.9*%
%TF.CreationDate,2021-05-05T06:58:16-05:00*%
%TF.ProjectId,monarch,6d6f6e61-7263-4682-9e6b-696361645f70,rev?*%
%TF.SameCoordinates,Original*%
%TF.FileFunction,Other,User*%
%FSLAX46Y46*%
G04 Gerber Fmt 4.6, Leading zero omitted, Abs format (unit mm)*
G04 Created by KiCad (PCBNEW 5.1.9) date 2021-05-05 06:58:16*
%MOMM*%
%LPD*%
G01*
G04 APERTURE LIST*
%ADD10C,0.050000*%
%ADD11C,0.150000*%
G04 APERTURE END LIST*
D10*
%TO.C,H9*%
X176500000Y-95850000D02*
G75*
G03*
X176500000Y-95850000I-2450000J0D01*
G01*
%TO.C,D23*%
X133790602Y-100915397D02*
X131525544Y-100516006D01*
X130709398Y-105144603D02*
X131525544Y-100516006D01*
X132974456Y-105543994D02*
X130709398Y-105144603D01*
X133790602Y-100915397D02*
X132974456Y-105543994D01*
%TO.C,D18*%
X128575000Y-68941000D02*
X126275000Y-68941000D01*
X126275000Y-73641000D02*
X126275000Y-68941000D01*
X128575000Y-73641000D02*
X126275000Y-73641000D01*
X128575000Y-68941000D02*
X128575000Y-73641000D01*
%TO.C,D25*%
X32350000Y-26150000D02*
X32350000Y-23850000D01*
X27650000Y-23850000D02*
X32350000Y-23850000D01*
X27650000Y-26150000D02*
X27650000Y-23850000D01*
X32350000Y-26150000D02*
X27650000Y-26150000D01*
%TO.C,D24*%
X152564083Y-104150330D02*
X150299025Y-103750939D01*
X149482879Y-108379536D02*
X150299025Y-103750939D01*
X151747937Y-108778927D02*
X149482879Y-108379536D01*
X152564083Y-104150330D02*
X151747937Y-108778927D01*
%TO.C,D22*%
X157295397Y-104899398D02*
X156896006Y-107164456D01*
X161524603Y-107980602D02*
X156896006Y-107164456D01*
X161923994Y-105715544D02*
X161524603Y-107980602D01*
X157295397Y-104899398D02*
X161923994Y-105715544D01*
%TO.C,D21*%
X114187500Y-87950000D02*
X111887500Y-87950000D01*
X111887500Y-92650000D02*
X111887500Y-87950000D01*
X114187500Y-92650000D02*
X111887500Y-92650000D01*
X114187500Y-87950000D02*
X114187500Y-92650000D01*
%TO.C,D20*%
X95187500Y-85950000D02*
X92887500Y-85950000D01*
X92887500Y-90650000D02*
X92887500Y-85950000D01*
X95187500Y-90650000D02*
X92887500Y-90650000D01*
X95187500Y-85950000D02*
X95187500Y-90650000D01*
%TO.C,D19*%
X75260000Y-95400000D02*
X75260000Y-93100000D01*
X70560000Y-93100000D02*
X75260000Y-93100000D01*
X70560000Y-95400000D02*
X70560000Y-93100000D01*
X75260000Y-95400000D02*
X70560000Y-95400000D01*
%TO.C,D17*%
X109575000Y-66941000D02*
X107275000Y-66941000D01*
X107275000Y-71641000D02*
X107275000Y-66941000D01*
X109575000Y-71641000D02*
X107275000Y-71641000D01*
X109575000Y-66941000D02*
X109575000Y-71641000D01*
%TO.C,D16*%
X90575000Y-56941000D02*
X88275000Y-56941000D01*
X88275000Y-61641000D02*
X88275000Y-56941000D01*
X90575000Y-61641000D02*
X88275000Y-61641000D01*
X90575000Y-56941000D02*
X90575000Y-61641000D01*
%TO.C,D15*%
X71575000Y-59941000D02*
X69275000Y-59941000D01*
X69275000Y-64641000D02*
X69275000Y-59941000D01*
X71575000Y-64641000D02*
X69275000Y-64641000D01*
X71575000Y-59941000D02*
X71575000Y-64641000D01*
%TO.C,D14*%
X52575000Y-75491000D02*
X50275000Y-75491000D01*
X50275000Y-80191000D02*
X50275000Y-75491000D01*
X52575000Y-80191000D02*
X50275000Y-80191000D01*
X52575000Y-75491000D02*
X52575000Y-80191000D01*
%TO.C,D13*%
X33575000Y-76791000D02*
X31275000Y-76791000D01*
X31275000Y-81491000D02*
X31275000Y-76791000D01*
X33575000Y-81491000D02*
X31275000Y-81491000D01*
X33575000Y-76791000D02*
X33575000Y-81491000D01*
%TO.C,D12*%
X128575000Y-49941000D02*
X126275000Y-49941000D01*
X126275000Y-54641000D02*
X126275000Y-49941000D01*
X128575000Y-54641000D02*
X126275000Y-54641000D01*
X128575000Y-49941000D02*
X128575000Y-54641000D01*
%TO.C,D11*%
X109575000Y-47941000D02*
X107275000Y-47941000D01*
X107275000Y-52641000D02*
X107275000Y-47941000D01*
X109575000Y-52641000D02*
X107275000Y-52641000D01*
X109575000Y-47941000D02*
X109575000Y-52641000D01*
%TO.C,D10*%
X90575000Y-37941000D02*
X88275000Y-37941000D01*
X88275000Y-42641000D02*
X88275000Y-37941000D01*
X90575000Y-42641000D02*
X88275000Y-42641000D01*
X90575000Y-37941000D02*
X90575000Y-42641000D01*
%TO.C,D9*%
X71575000Y-40941000D02*
X69275000Y-40941000D01*
X69275000Y-45641000D02*
X69275000Y-40941000D01*
X71575000Y-45641000D02*
X69275000Y-45641000D01*
X71575000Y-40941000D02*
X71575000Y-45641000D01*
%TO.C,D8*%
X52575000Y-56491000D02*
X50275000Y-56491000D01*
X50275000Y-61191000D02*
X50275000Y-56491000D01*
X52575000Y-61191000D02*
X50275000Y-61191000D01*
X52575000Y-56491000D02*
X52575000Y-61191000D01*
%TO.C,D7*%
X33570000Y-57840000D02*
X31270000Y-57840000D01*
X31270000Y-62540000D02*
X31270000Y-57840000D01*
X33570000Y-62540000D02*
X31270000Y-62540000D01*
X33570000Y-57840000D02*
X33570000Y-62540000D01*
%TO.C,D6*%
X128575000Y-30941000D02*
X126275000Y-30941000D01*
X126275000Y-35641000D02*
X126275000Y-30941000D01*
X128575000Y-35641000D02*
X126275000Y-35641000D01*
X128575000Y-30941000D02*
X128575000Y-35641000D01*
%TO.C,D5*%
X109575000Y-28941000D02*
X107275000Y-28941000D01*
X107275000Y-33641000D02*
X107275000Y-28941000D01*
X109575000Y-33641000D02*
X107275000Y-33641000D01*
X109575000Y-28941000D02*
X109575000Y-33641000D01*
%TO.C,D4*%
X90575000Y-18941000D02*
X88275000Y-18941000D01*
X88275000Y-23641000D02*
X88275000Y-18941000D01*
X90575000Y-23641000D02*
X88275000Y-23641000D01*
X90575000Y-18941000D02*
X90575000Y-23641000D01*
%TO.C,D3*%
X71575000Y-21941000D02*
X69275000Y-21941000D01*
X69275000Y-26641000D02*
X69275000Y-21941000D01*
X71575000Y-26641000D02*
X69275000Y-26641000D01*
X71575000Y-21941000D02*
X71575000Y-26641000D01*
%TO.C,D2*%
X52580000Y-37550000D02*
X50280000Y-37550000D01*
X50280000Y-42250000D02*
X50280000Y-37550000D01*
X52580000Y-42250000D02*
X50280000Y-42250000D01*
X52580000Y-37550000D02*
X52580000Y-42250000D01*
%TO.C,D1*%
X33575000Y-38791000D02*
X31275000Y-38791000D01*
X31275000Y-43491000D02*
X31275000Y-38791000D01*
X33575000Y-43491000D02*
X31275000Y-43491000D01*
X33575000Y-38791000D02*
X33575000Y-43491000D01*
%TO.C,H1*%
X128480000Y-12400000D02*
G75*
G03*
X128480000Y-12400000I-2450000J0D01*
G01*
D11*
%TO.C,J3*%
X130010000Y-53400000D02*
X157610000Y-53400000D01*
X157610000Y-25800000D02*
X157610000Y-53400000D01*
X130010000Y-25800000D02*
X130010000Y-53400000D01*
X130010000Y-25800000D02*
X157610000Y-25800000D01*
D10*
%TO.C,16mhz1*%
X145294517Y-78035685D02*
X149254315Y-81995483D01*
X149254315Y-81995483D02*
X157810307Y-73439491D01*
X157810307Y-73439491D02*
X153850509Y-69479693D01*
X153850509Y-69479693D02*
X145294517Y-78035685D01*
%TO.C,Boot1*%
X130200000Y-53750000D02*
X140200000Y-53750000D01*
X130200000Y-60250000D02*
X140200000Y-60250000D01*
X130200000Y-53750000D02*
X130200000Y-60250000D01*
X140200000Y-60250000D02*
X140200000Y-53750000D01*
%TO.C,C5*%
X129800000Y-70520000D02*
X133200000Y-70520000D01*
X129800000Y-72480000D02*
X129800000Y-70520000D01*
X133200000Y-72480000D02*
X129800000Y-72480000D01*
X133200000Y-70520000D02*
X133200000Y-72480000D01*
%TO.C,H1*%
X134450000Y-13550000D02*
G75*
G03*
X134450000Y-13550000I-2450000J0D01*
G01*
X158450000Y-19970000D02*
G75*
G03*
X158450000Y-19970000I-2450000J0D01*
G01*
X36400000Y-71450000D02*
G75*
G03*
X36400000Y-71450000I-2450000J0D01*
G01*
%TO.C,H6*%
X74710000Y-33240000D02*
G75*
G03*
X74710000Y-33240000I-2450000J0D01*
G01*
%TO.C,H1*%
X113480000Y-120710000D02*
G75*
G03*
X113480000Y-120710000I-2450000J0D01*
G01*
X17324828Y-90916530D02*
G75*
G03*
X17324828Y-90916530I-2450000J0D01*
G01*
X16870000Y-14060000D02*
G75*
G03*
X16870000Y-14060000I-2450000J0D01*
G01*
X80020000Y-7390000D02*
G75*
G03*
X80020000Y-7390000I-2450000J0D01*
G01*
%TO.C,H10*%
X83636634Y-102186410D02*
G75*
G03*
X83636634Y-102186410I-2450000J0D01*
G01*
%TO.C,H9*%
X169830000Y-130690000D02*
G75*
G03*
X169830000Y-130690000I-2450000J0D01*
G01*
%TO.C,H8*%
X111370000Y-82030000D02*
G75*
G03*
X111370000Y-82030000I-2450000J0D01*
G01*
%TO.C,H7*%
X111990000Y-43230000D02*
G75*
G03*
X111990000Y-43230000I-2450000J0D01*
G01*
%TO.C,H2*%
X158450000Y-86590000D02*
G75*
G03*
X158450000Y-86590000I-2450000J0D01*
G01*
%TO.C,H5*%
X73700000Y-55080000D02*
G75*
G03*
X73700000Y-55080000I-2450000J0D01*
G01*
%TO.C,H4*%
X134450000Y-82250000D02*
G75*
G03*
X134450000Y-82250000I-2450000J0D01*
G01*
%TO.C,H3*%
X36420000Y-51840000D02*
G75*
G03*
X36420000Y-51840000I-2450000J0D01*
G01*
%TO.C,D27*%
X146250000Y-21180000D02*
X141400000Y-21180000D01*
X146250000Y-25680000D02*
X146250000Y-21180000D01*
X141400000Y-25680000D02*
X146250000Y-25680000D01*
X141400000Y-21180000D02*
X141400000Y-25680000D01*
%TO.C,R6*%
X151070000Y-26657500D02*
X151070000Y-30017500D01*
X149170000Y-26657500D02*
X151070000Y-26657500D01*
X149170000Y-30017500D02*
X149170000Y-26657500D01*
X151070000Y-30017500D02*
X149170000Y-30017500D01*
%TO.C,RESET_SW1*%
X147500000Y-53750000D02*
X157500000Y-53750000D01*
X147500000Y-60250000D02*
X157500000Y-60250000D01*
X147500000Y-53750000D02*
X147500000Y-60250000D01*
X157500000Y-60250000D02*
X157500000Y-53750000D01*
%TO.C,RED1*%
X148400000Y-21180000D02*
X148400000Y-25680000D01*
X148400000Y-25680000D02*
X153250000Y-25680000D01*
X153250000Y-25680000D02*
X153250000Y-21180000D01*
X153250000Y-21180000D02*
X148400000Y-21180000D01*
%TO.C,D26*%
X133400000Y-21180000D02*
X133400000Y-25680000D01*
X133400000Y-25680000D02*
X138250000Y-25680000D01*
X138250000Y-25680000D02*
X138250000Y-21180000D01*
X138250000Y-21180000D02*
X133400000Y-21180000D01*
%TO.C,R8*%
X158342500Y-63590000D02*
X158342500Y-65490000D01*
X158342500Y-65490000D02*
X154982500Y-65490000D01*
X154982500Y-65490000D02*
X154982500Y-63590000D01*
X154982500Y-63590000D02*
X158342500Y-63590000D01*
%TO.C,SW19*%
X70290000Y-102070000D02*
X52790000Y-102070000D01*
X70290000Y-102070000D02*
X70290000Y-87870000D01*
X52790000Y-87870000D02*
X52790000Y-102070000D01*
X52790000Y-87870000D02*
X70290000Y-87870000D01*
%TO.C,R4*%
X39293341Y-16986077D02*
X37393341Y-16986077D01*
X37393341Y-16986077D02*
X37393341Y-13626077D01*
X37393341Y-13626077D02*
X39293341Y-13626077D01*
X39293341Y-13626077D02*
X39293341Y-16986077D01*
%TO.C,R3*%
X28980951Y-21367290D02*
X27080951Y-21367290D01*
X27080951Y-21367290D02*
X27080951Y-18007290D01*
X27080951Y-18007290D02*
X28980951Y-18007290D01*
X28980951Y-18007290D02*
X28980951Y-21367290D01*
%TO.C,U2*%
X42180000Y-23250000D02*
X35820000Y-23250000D01*
X42180000Y-26750000D02*
X42180000Y-23250000D01*
X35820000Y-26750000D02*
X42180000Y-26750000D01*
X35820000Y-23250000D02*
X35820000Y-26750000D01*
%TO.C,R7*%
X129820000Y-66950000D02*
X133180000Y-66950000D01*
X129820000Y-68850000D02*
X129820000Y-66950000D01*
X133180000Y-68850000D02*
X129820000Y-68850000D01*
X133180000Y-66950000D02*
X133180000Y-68850000D01*
%TO.C,R5*%
X129820000Y-64450000D02*
X133180000Y-64450000D01*
X129820000Y-66350000D02*
X129820000Y-64450000D01*
X133180000Y-66350000D02*
X129820000Y-66350000D01*
X133180000Y-64450000D02*
X133180000Y-66350000D01*
%TO.C,R2*%
X158342500Y-63290000D02*
X154982500Y-63290000D01*
X158342500Y-61390000D02*
X158342500Y-63290000D01*
X154982500Y-61390000D02*
X158342500Y-61390000D01*
X154982500Y-63290000D02*
X154982500Y-61390000D01*
%TO.C,R1*%
X154120000Y-26192500D02*
X154120000Y-29552500D01*
X152220000Y-26192500D02*
X154120000Y-26192500D01*
X152220000Y-29552500D02*
X152220000Y-26192500D01*
X154120000Y-29552500D02*
X152220000Y-29552500D01*
%TO.C,F1*%
X23280000Y-27120000D02*
X18720000Y-27120000D01*
X23280000Y-24880000D02*
X23280000Y-27120000D01*
X18720000Y-24880000D02*
X23280000Y-24880000D01*
X18720000Y-27120000D02*
X18720000Y-24880000D01*
%TO.C,C19*%
X32300000Y-31050000D02*
X27700000Y-31050000D01*
X32300000Y-28950000D02*
X32300000Y-31050000D01*
X27700000Y-28950000D02*
X32300000Y-28950000D01*
X27700000Y-31050000D02*
X27700000Y-28950000D01*
%TO.C,C8*%
X49700000Y-25980000D02*
X46300000Y-25980000D01*
X49700000Y-24020000D02*
X49700000Y-25980000D01*
X46300000Y-24020000D02*
X49700000Y-24020000D01*
X46300000Y-25980000D02*
X46300000Y-24020000D01*
%TO.C,C7*%
X49700000Y-30980000D02*
X46300000Y-30980000D01*
X49700000Y-29020000D02*
X49700000Y-30980000D01*
X46300000Y-29020000D02*
X49700000Y-29020000D01*
X46300000Y-30980000D02*
X46300000Y-29020000D01*
%TO.C,C6*%
X41300000Y-31050000D02*
X36700000Y-31050000D01*
X41300000Y-28950000D02*
X41300000Y-31050000D01*
X36700000Y-28950000D02*
X41300000Y-28950000D01*
X36700000Y-31050000D02*
X36700000Y-28950000D01*
%TO.C,C3*%
X22700000Y-30980000D02*
X19300000Y-30980000D01*
X22700000Y-29020000D02*
X22700000Y-30980000D01*
X19300000Y-29020000D02*
X22700000Y-29020000D01*
X19300000Y-30980000D02*
X19300000Y-29020000D01*
%TO.C,C1*%
X133200000Y-63880000D02*
X129800000Y-63880000D01*
X133200000Y-61920000D02*
X133200000Y-63880000D01*
X129800000Y-61920000D02*
X133200000Y-61920000D01*
X129800000Y-63880000D02*
X129800000Y-61920000D01*
%TD*%
M02*
